<svg xmlns="http://www.w3.org/2000/svg" viewBox="0 0 850.4 365.8"><path fill="#00716A" d="M436.6 58.4c0-38.5-23.5-53.9-61.3-53.9-19.6 0-36.1 2.8-54.3 8.1v36.1c17.5-8.1 34.3-11.2 51.2-11.2 16.5 0 25.6 8.1 25.6 21.4v6.3c-61.7 1.8-88.3 28.4-88.3 61 0 31.9 20.3 50.8 61 50.8 23.8 0 38.9-4.6 66.9-4.6-1.1-8.8-1.8-23.8-1.8-37.5 0-26 1-49.5 1-76.5zm-40.3 77.4c-1.4 4.9-8.1 8.8-22.1 8.8-15.1 0-24.9-8.8-24.9-21.4 0-18.6 16.5-28.4 48.3-29.4.1 21-.2 36.8-1.3 42zm103-84.4c0-8.4 8.4-14 21.7-14 11.2 0 22.8 1.7 39.2 8.4V9.4c-14-3.8-24.9-4.9-37.8-4.9-39.3 0-63.1 19.6-63.1 51.1 0 48 69 43.8 69 71.5 0 10.9-9.5 17.9-28 17.9-11.2 0-27-2.1-40.3-6.7v34.3c13.7 4.2 28.4 5.6 42.7 5.6 45.5 0 65.2-26.3 65.2-53.6 0-50.4-68.6-48-68.6-73.2zM662.9 4.5c-45.9 0-79.2 32.6-79.2 85.5 0 61.3 35.4 88.3 84.8 88.3 11.6 0 28.4-1.4 42.8-6V138c-13.3 5.9-28.4 7.4-41 7.4-27 0-45.2-17.2-45.2-44.1V96h98.4c1.4-9.8 1.7-17.2 1.7-23.1.1-39-18.8-68.4-62.3-68.4zm14.8 60.9h-49.1c2.8-16.8 13.7-29.1 32.2-29.1 17.2 0 24.5 9.1 24.5 21.7.1 4.6-2.4 7.4-7.6 7.4zM173.8 91.3c0 57.8 33.6 87.2 84.1 87.2 9.5 0 18.6-1.1 29.1-3.2v-33.6c-8.4 1.4-16.1 2.5-27.3 2.5-26.6 0-43.4-15.1-43.4-52.9s16.8-51.9 42.7-51.9c11.6 0 18.9 1.1 28 3.9V7.6c-9.1-2.1-18.2-2.8-29.1-2.8-53.9 0-84.1 33.6-84.1 86.5zM824.4 3.8c-36.3 0-40.6 8.2-75.4 8.2v163h39.1V53.3c0-8.9 10-14.6 27-14.6 1.6 0 3.2.1 4.8.2 7.9.5 20.3 2.2 30.5 5.2V7.9c-8-2.8-16.9-4.1-26-4.1z"/><path fill="#D48026" d="M99.9 164.8c15.9 0 47 3.3 60.8 9.2-43.1-47.8-32.5-130.4 0-173.9C67.7 28.2 0 99.1 0 201.2c0 2.3 0 4.5.1 6.7C19.6 173 57 164.8 99.9 164.8z"/><g fill="#D48026"><path d="M237.1 257.9c5.4 0 9.9.4 15.8 2.1v15.2c-6.9-2.8-11.7-3.5-16.4-3.5-5.5 0-9.1 2.3-9.1 5.9 0 10.5 28.6 9.5 28.6 30.5 0 11.4-8.2 22.4-27.2 22.4-6 0-12.1-.6-17.8-2.3v-14.3c5.6 1.9 12.1 2.8 16.8 2.8 7.7 0 11.7-2.9 11.7-7.5 0-11.5-28.8-9.8-28.8-29.8.1-13.3 10.1-21.5 26.4-21.5zM282.9 296c0 .6 0 1.6 0 2.2 0 11.2 7.6 18.4 18.8 18.4 5.3 0 11.5-.6 17.1-3.1v14.3c-6 1.9-13 2.5-17.8 2.5-20.6 0-35.4-11.2-35.4-36.8 0-22.1 13.9-35.6 33-35.6 18.1 0 26 12.3 26 28.5 0 2.5-.1 5.6-.7 9.6h-41zm21.9-12.7c2.2 0 3.2-1.2 3.2-3.1 0-5.3-3.1-9.1-10.2-9.1-7.7 0-12.3 5.1-13.4 12.1h20.4zM376.2 326.8c-2.1 1.6-5.8 3.1-12.1 3.1-14.6 0-30.4-12.3-30.4-35.4 0-23.8 14.8-36.7 32.6-36.7 9.6 0 16.2 2.3 26.2 2.3-.3 12.9-.3 25-.3 38.4v39.7c0 19.6-16.2 27.5-32.7 27.5-5.4 0-11.1-.4-18-2.5v-14.6c6.7 2.2 13.2 2.9 17.8 2.9 8.2 0 16.9-3.1 16.9-12.6v-12.1zm-8.8-10.8c5 0 8.8-2.2 8.8-4.7v-35.1c0-2.3-3.4-4.7-8.8-4.7-10.2 0-16.1 7.2-16.1 22.6 0 15.5 5.9 21.9 16.1 21.9zM450.5 310v-50.1h16.1v67.2c-13.6 0-16.2 2.9-30.1 2.9-14 0-26-6.6-26-24.5v-45.6h16.2v43.5c0 8.9 4.8 12.3 13 12.3 6.7 0 10.8-1.6 10.8-5.7zM485.1 328.3v-68.4h15.2v6.4c4.1-6.4 11-8.6 17.7-8.6 2.9 0 5.3.3 7.4.6v16.9c-2.8-1.3-7.1-1.9-11.2-1.9-6.6 0-12.4 2.6-12.7 8.3-.3 11.5-.3 29.2-.3 46.6h-16.1zM593.7 294c0 21.5-12.4 36.4-31.6 36.4-18.8 0-31.4-14.9-31.4-36.4 0-21.8 12.6-36.1 31.4-36.1 19.1 0 31.6 14.3 31.6 36.1zm-45.6 0c0 14.8 6.4 22.1 14.5 22.1 7.9 0 13.9-6.7 13.9-22.1 0-14.6-6.4-21.9-14.6-21.9-8 0-13.8 6.5-13.8 21.9zM630 257.9c5.4 0 9.9.4 15.8 2.1v15.2c-6.9-2.8-11.7-3.5-16.3-3.5-5.5 0-9.1 2.3-9.1 5.9 0 10.5 28.6 9.5 28.6 30.5 0 11.4-8.2 22.4-27.2 22.4-6 0-12.1-.6-17.8-2.3v-14.3c5.6 1.9 12.1 2.8 16.8 2.8 7.8 0 11.7-2.9 11.7-7.5 0-11.5-28.8-9.8-28.8-29.8 0-13.3 9.9-21.5 26.3-21.5z"/></g></svg>