<svg xmlns="http://www.w3.org/2000/svg" viewBox="0 0 334 111" fill="#6283bd"><path d="M102.316 49.866q2.31-14.668 12.028-25.536C127.502 9.622 147.279 1.473 166.516.493c6.189-.32 13.518-.35 20.017.67 17.167 2.7 33.285 9.998 44.693 22.607 9.978 11.028 15.558 26.476 11.438 41.134q-.02.1.07.13l.25.1q.29.11.43-.17l14.468-29.475a1.02 1.01 13.2 0 1 .91-.56l7.479-.01q.94 0 1.38.82 10.138 18.877 19.867 39.094a.73.73 0 0 1-.66 1.04l-5.519-.03q-1.07 0-1.52-.97l-4.839-10.458a1.38 1.38 0 0 0-1.25-.8l-10.468.02q-.96.01-.9-.96l.17-2.72a1.18 1.17 2 0 1 1.19-1.1l7.809.06a.49.5 76.7 0 0 .45-.72l-8.789-16.997a.35.35 0 0 0-.63.01q-7.829 16.138-16.148 33.155-1.07 2.19-3.509 1.56-1.59-.42-3.12-.17a1.27 1.29 11.2 0 0-.91.62q-2.99 5.119-5.789 8.539c-10.668 13.048-26.876 21.207-43.413 24.216q-27.676 5.049-52.532-6.059c-16.357-7.299-29.905-20.537-34.095-38.134q-.06-.26-.29-.44-.22-.18-.51-.17a.39.4 86.3 0 0-.37.41l.45 10.218q.04.85-.82.86l-5.249.04a1.22 1.22 0 0 1-1.22-1.21l-.04-9.998a.74.73 0 0 0-.74-.73l-25.436.04q-1.14 0-2 .75l-5.859 5.109q-1.24 1.09.41 1.14c1.2.04 2.32-.28 3.549-.27q13.328.07 26.866 0a1.44 1.44 0 0 1 1.45 1.5l-.1 2.55q-.05 1.11-1.16 1.11l-40.204-.03q-1.17 0-1.22-1.16l-.15-3.05q-.03-.56.38-.94l6.139-5.679q1.14-1.06-.42-1.06l-11.718-.02a.54.54 0 0 0-.49.78l5.289 10.808q.12.25-.15.26-3.469.16-7.129.03a.42.41 78.1 0 1-.36-.24l-5.159-11.108a.92.93 77.5 0 0-.84-.53l-11.448.1q-.87 0-.85-.87l.07-2.84q.04-1.17 1.2-1.14l8.359.21a.64.64 0 0 0 .58-.94q-4.169-7.869-8.529-16.777-.17-.35-.34-.45-.41-.25-.63.19L7.69 75.562q-.15.31-.48.3-5.879-.01-7.009-.01a.2.2 0 0 1-.18-.29l19.817-40.244q.2-.39.63-.39l7.929-.01a1.26 1.27 76.7 0 1 1.13.69l11.418 22.517a1.87 1.84 76.3 0 0 1.65 1.02l19.477.01a2.2 2.22 23.7 0 0 1.51-.6q9.229-8.799 18.687-17.697a.68.66 50.2 0 0 .07-.88q-.04-.05-.11-.05-15.168.03-30.305 0-.54 0-.53-.54l.04-3.899q.01-.55.55-.55l39.864-.03a.71.71 0 0 1 .7.61c.34 2.28.42 3.829-1.46 5.679q-8.669 8.579-17.667 17.167-.84.81.32.8l20.287-.02a.96.96 0 0 0 .96-.96l.01-22.247q0-1.03 1.03-1.03l5.079.02a1.13 1.14 0 0 1 1.13 1.14q-.05 6.939-.55 13.938 0 .06.06.07l.25.03q.28.03.32-.24zm36.414 26.106a.08.08 0 0 1-.08-.12l20.047-40.434a.92.92 0 0 1 .8-.5h7.999q.54 0 .77.48l11.178 22.876a1.18 1.17 76.4 0 0 1.07.66l11.598-.03a1.06 1.05 89.7 0 0 1.05-1.07l-.13-22.377a.51.52 0 0 1 .51-.52q11.588-.05 22.836 0 6.719.03 10.638 4.839 5.839 7.149 1.8 17.507c-.52 1.34-1.76 2.01-2.76 2.94a.32.32 0 0 0 .06.52q5.099 2.78 6.689 7.069 1.12 3.01 1.96-.09 4.239-15.798-1.87-28.916c-4.989-10.708-14.658-19.527-25.236-24.746q-23.406-11.538-50.532-6.399c-22.846 4.329-43.803 19.787-47.673 43.323q-.52 3.12 1.54.72l13.978-16.297a1.37 1.37 0 0 1 1.04-.48l7.739-.02a.52.52 0 0 1 .39.86l-19.647 22.866a.53.53 0 0 0 .35.87c5.419.58 12.778 2.76 16.038 7.369q2.66 3.759 3.08 8.829.02.24-.23.23l-7.199-.29a.37.37 0 0 1-.36-.36q-.21-7.149-5.939-8.629-4.799-1.23-8.749-1.87a.67.68 86.3 0 0-.76.86c5.609 18.177 21.367 30.505 39.174 35.745 28.926 8.519 62.92 1.24 80.668-24.716a.63.63 0 0 0-.52-.99l-1.94.03a.82.82 0 0 1-.82-.71c-1.14-7.989-5.019-11.638-13.088-11.378q-6.729.22-12.768.03a.69.7.8 0 0-.72.71l.15 10.438a.98.98 0 0 1-.96.99l-5.909.06q-.97.01-.96-.96l.12-10.518a.68.68 0 0 0-.68-.68h-9.709a.35.35 0 0 0-.31.52q3.12 5.669 6.179 11.558a.06.06 0 0 1-.05.08q-3.799.03-7.359-.11-.33-.01-.48-.31l-5.539-10.838a1.48 1.5 76.8 0 0-1.33-.81l-10.528.01q-1.31 0-1.23-1.3l.14-2.34q.07-1.22 1.29-1.21l8.149.04a.48.48 0 0 0 .44-.69l-8.109-16.767a.51.51 0 0 0-.92 0l-16.417 33.805a.26.25 5.2 0 1-.16.13q-.77.23-7.799.51zm62.06-35.784l-.04 18.217a.34.34 0 0 0 .34.34l14.328.03a8.909 9.339.1 0 0 8.929-9.329v-.22a8.909 9.339.1 0 0-8.889-9.349l-14.328-.03a.34.34 0 0 0-.34.34zM334 34.958v40.624q-3.11.54-7.259.29-2.82-.18-3.879-1.58-11.878-15.738-23.906-31.685-1.35-1.8-1.31.45.25 16.098.09 32.265-.01.48-.49.49l-5.999.05a.71.7 0 0 1-.71-.7l.01-39.444q0-.79.79-.8l9.209-.01a1.5 1.49 71.3 0 1 1.19.59l24.776 32.885q1.24 1.64 1.24-.41l-.04-32.505q0-.51.51-.51z"/></svg>