<svg xmlns="http://www.w3.org/2000/svg" viewBox="0 0 420 86"><g fill="#ffb611"><path d="M27.58 0h1.44l-.04 1.35q-.01.67-.66.51l-.49-.12q-.59-.14-.61-.74-.02-.52.36-1z"/><ellipse cx="0" cy="0" transform="matrix(.681998 .731354 -.731354 .681998 26.01 2.37)" rx="1.09" ry=".98"/><ellipse cx="0" cy="0" transform="matrix(.5373 .843391 -.843391 .5373 23.4 4.29)" rx="1.51" ry="1.41"/><path d="M18.97 7.06q-.64.15-.14.59.8.72 1.16 1.57.24.58-.16 1.06-.94 1.13-2.21 1.03a1.85 1.85 0 0 1-1.69-2.05q.19-1.62 1.86-1.9a.68.68 0 0 0 .57-.66l.02-1.03a.69.69 0 0 1 .69-.67h.48q.59.01.7.59.07.44 0 .88-.1.6-.71.55-.28-.03-.57.04z"/><circle cx="22.04" cy="7.8" r="1.44"/></g><path d="M85.57 33.87q8.41 3.53 15.55-2.62a.08.08 0 0 1 .13.06v7.15q0 .26-.22.39c-9.08 5.6-22.39 3.54-24.94-8.35-2.01-9.39 1.02-19.1 11.53-21.01q6.99-1.27 13.41 2.64.22.13.22.39v7.17a.08.08 0 0 1-.13.06q-7.03-5.95-15.01-2.93c-5.82 2.2-6.25 14.65-.54 17.05zm38.87 4.69c-5.65 4.25-18.61 5.24-19.14-5.3-.37-7.47 4.99-10.12 11.23-11.37q3.97-.79 7.86-.88 1.41-.04 1.16-1.42-.21-1.22-1.18-2.23a3.12 3.1 72.6 0 0-1.71-.9q-7.95-1.42-14.96 2.38a.15.14-15 0 1-.22-.12l.02-7.09a.33.33 0 0 1 .24-.32c6.35-1.8 13.39-3.18 19.11.07q4.52 2.56 4.56 8.78.07 10.55.01 20.16a.74.73 6.1 0 1-.89.71q-2.02-.45-4.03-.03-.87.17-1.01-.7-.08-.54.02-1.04.38-1.79-1.07-.7zm.38-11.85c-3.33.72-14.78.41-13.44 6.44a1.24 1.2 12.5 0 0 .46.7c3.81 2.74 10.48.2 13.25-2.57a1.47 1.47 0 0 0 .43-1.04l-.03-2.98q0-.69-.67-.55zm61.95 11.51c-5.13 3.64-15.02 5.66-18.67-.88-2.15-3.85-1.3-9.99 2.62-12.6 4.36-2.91 10.77-3.59 16.01-3.84a.61.6-3.3 0 0 .58-.64c-.51-7.44-14.3-3.3-17.99-1.49q-.18.08-.18-.11l.11-6.89q0-.28.27-.37c10.3-3.43 24.02-3.84 23.8 10.67q-.14 9.54-.01 18.24.01.82-.8.67-2.02-.37-4.36.05a.78.78 0 0 1-.92-.8l.08-1.72q.03-.7-.54-.29zm.22-11.42c-4.06.19-10.56.5-13.43 3.53a2.49 2.49 0 0 0 .5 3.83c3.73 2.29 10.03-.28 12.74-2.82q.45-.43.45-1.05v-3.24q0-.26-.26-.25zm44.15-6.99c6.62 2.36 17.4 3.94 15.76 13.97q-.87 5.29-5.44 6.95-7.78 2.84-17.47-1.49-.14-.06-.14-.21l-.1-7.17a.11.1 19.1 0 1 .17-.08c4.02 2.95 11.85 5.58 16.36 2.15a1.78 1.78 0 0 0 .34-2.5q-.83-1.08-2.1-1.52c-6.3-2.18-16.22-3.53-14.69-12.98 1.6-9.94 14.29-8.56 21.05-5.4a.51.51 0 0 1 .29.46l.02 6.63q0 .17-.15.08c-3.45-2.26-10.1-4.45-13.9-2.58q-.31.15-.56.35a1.95 1.94-54.6 0 0 .56 3.34zm40.18 18.53c-6.67 4.43-19.22 5.65-19.76-5.33-.51-10.19 11.57-11.82 18.86-12.01q2.23-.06 1.28-2.08-.53-1.12-1.6-1.91a3.77 3.7 66.7 0 0-1.71-.7q-7.92-1.08-14.46 2.57-.2.12-.2-.12v-7.01a.36.36 0 0 1 .25-.34c9.14-2.94 24.03-4.38 23.84 9.9q-.13 10.25-.02 18.87a.73.73 0 0 1-.75.74l-4.62-.08a.59.58-86 0 1-.57-.66l.17-1.4q.13-1-.71-.44zm-.31-11.59c-3.53.72-12.26.34-13.33 4.81a2.6 2.6 0 0 0 2.1 3.17q6.49 1.09 11.58-3.35.57-.51.56-1.28l-.06-2.67q-.01-.86-.85-.68z" fill="#a8b3b2"/><path fill="#ffb611" d="M376.39 38.12a.34.34 0 0 0 .34.39l14.93-.08q.48 0 .48.48l.04 1.54a.44.43 0 0 1-.45.44q-9.35-.19-17.81-.01-4.74.1-1.02-2.83 5.4-4.24 10.66-8.89 3.8-3.36 5.57-7.41c1.71-3.91-.63-8.13-4.65-9.38-4.23-1.32-8.74-.29-12.24 2.66q-.51.43-.51-.24l.03-2.05q.01-.54.48-.81c4.47-2.52 9.11-3.47 14.05-1.35 4.48 1.94 6.32 7.03 4.88 11.47q-1.13 3.48-4.18 6.64-4.8 4.99-10.39 9.08-.18.13-.21.35z"/><path d="M157.29 10h5.16a.33.33 0 0 1 .33.33l.01 30.3a.33.33 0 0 1-.33.33l-5.97-.07a.33.33 0 0 1-.27-.14l-14.08-20.28a.33.33 0 0 0-.6.18l.01 19.96a.33.33 0 0 1-.33.33l-5.24-.01a.33.33 0 0 1-.33-.33V10.34a.33.33 0 0 1 .33-.33l6.01-.01a.33.33 0 0 1 .27.14l14.33 20.74a.33.33 0 0 0 .6-.19l-.23-20.36a.33.33 0 0 1 .33-.33zm46.01 19.5c.02 2.47 1.35 4.52 4.08 4.55q5.51.07 11.6-.06.4-.01.4.4v6.13q0 .41-.41.4-5.92-.18-12.39-.08-9.05.14-9.15-8.83-.13-11.13-.02-21.8.01-.18.18-.18l5.4-.01q.28 0 .28.28-.05 9.78.03 19.2zm87.48 11.34c-7.78.14-8.58-6.23-8.5-12.2q.12-9.13.04-18.22a.4.4 0 0 1 .4-.4H288q.24 0 .24.23l.03 19.7a4.16 4.15-.2 0 0 4.18 4.14l11.58-.07q.27 0 .27.26l-.02 6.42q0 .24-.24.24-6.43-.22-13.26-.1zm38.27-3.68c-4.93 5.01-15.07 7.41-18.88-.28q-1.35-2.75-1.26-8.02.18-9.45.04-18.32-.01-.52.51-.52l4.85-.01q.49 0 .49.5.01 8.01.03 17.2c.03 11.63 10.37 7.22 14.63 2.04a1.51 1.49 64.7 0 0 .33-.94V10.25q0-.22.21-.22l5.25-.02q.49 0 .49.49v29.47q0 .96-.96.95l-4.24-.08q-.79-.01-.77-.8l.07-2.54q.02-1.16-.79-.34zm11.41-26.86a.3.3 0 0 1 .3-.3h14.28a12.63 12.26 90 0 1 12.26 12.63v5.64a12.63 12.26-90 0 1-12.26 12.63h-14.28a.3.3 0 0 1-.3-.3V10.3zm5.84 6.9l-.02 16.54a.51.51 0 0 0 .5.51l7.65.01a7.23 6.94-89.9 0 0 6.96-7.22v-3.1a7.23 6.94-89.9 0 0-6.92-7.24l-7.65-.01a.51.51 0 0 0-.52.51z" fill="#a8b3b2"/><g fill="#ffb611"><path d="M414.59 30.52l4.28-.16q.53-.03.56.5l.09 1.64a.51.51 0 0 1-.52.54l-4.55-.05q-.56 0-.56.56l-.01 6.75a.67.67 0 0 1-.68.67h-.47q-.75 0-.75-.75l-.02-6.62q-.01-.6-.61-.6l-13.84.03a1.52 1.52 0 0 1-1.25-2.38l13.92-20.13q.36-.53 1-.53h1.86q.81 0 .81.8l.04 19.05q0 .71.7.68zm-15.26-.58a.34.34 0 0 0 .28.53h12.02a.34.34 0 0 0 .34-.34l.01-17.46a.34.34 0 0 0-.62-.19l-12.03 17.46z"/><ellipse cx="0" cy="0" transform="matrix(-.064532 .997916 -.997916 -.064532 13.66 13.87)" rx="2.45" ry="2.3"/><ellipse cx="0" cy="0" transform="matrix(-.092371 .995725 -.995725 -.092371 19.56 14.22)" rx="2.02" ry="1.87"/><circle cx="8.79" cy="18.37" r="1.95"/><circle cx="16.72" cy="18.39" r="1.93"/><circle cx="12.89" cy="22.48" r="2.34"/><circle cx="18.28" cy="23.87" r="2.39"/><ellipse cx="0" cy="0" transform="matrix(.309017 .951057 -.951057 .309017 7.33 23.62)" rx="2.15" ry="2.01"/><circle cx="4.36" cy="28.48" r="2.35"/><circle cx="10.97" cy="29.53" r="3.57"/><circle cx="18.04" cy="29.48" r="2.33"/><path d="M22.46 29.66a.54.54 0 0 1 .75.14l.37.56a1.79 1.34 56.2 0 1-.12 2.23l-.21.15a1.79 1.34 56.2 0 1-2.11-.74l-.38-.56a.54.54 0 0 1 .15-.75l1.55-1.03z"/><circle cx="4.99" cy="35.89" r="3.59"/><circle cx="20.38" cy="35.88" r="2.7"/><ellipse cx="0" cy="0" transform="matrix(.036644 .999328 -.999328 .036644 26.11 36.66)" rx="2.17" ry="1.99"/><circle cx="12.93" cy="38.62" r="3.6"/><path d="M0 40.86v-.82q1.48-2.01 3.02-.14.32.38.17.86-.36 1.16-1.61 1.39-.56.11-.89-.35L0 40.86z"/><circle cx="23.18" cy="42.58" r="3.58"/><circle cx="32.46" cy="43.75" r="4.29"/><circle cx="6.14" cy="45.59" r="4.3"/><circle cx="44.67" cy="45.23" r="2.89"/><ellipse cx="0" cy="0" transform="matrix(-.371368 .928486 -.928486 -.371368 39.23 44.02)" rx="1.56" ry="1.44"/><circle cx="50.8" cy="44.61" r="1.54"/><circle cx="16.16" cy="48.14" r="4.33"/><circle cx="26.93" cy="51.32" r="4.31"/><circle cx="38.79" cy="52.37" r="5.38"/><circle cx="51.61" cy="52.35" r="5.39"/><circle cx="2.85" cy="51.19" r="1.53"/><circle cx="60.97" cy="54.01" r="2.87"/><circle cx="9.28" cy="55.46" r="4.28"/></g><path d="M241.21 65.65c-3.55 1.51-12.33 3.33-13.31-2.08-.92-5.07 10.34-5.65 13.1-5.57a1.01 1 82.6 0 0 .99-1.29q-.67-2.28-3.06-2.78-4.92-1.03-8.98.83-.52.24-.71-.3l-.09-.25q-.28-.76.48-1.02c3.98-1.39 13.52-2.43 13.67 3.83q.11 4.37-.02 9.4a.53.53 0 0 1-.88.37q-.35-.32-.47-.78-.14-.6-.72-.36zm-9.49-.17q4.68.96 9.59-1.39.63-.3.63-.99l-.01-3.32q0-.63-.63-.58c-3.63.28-9.27.37-11.82 3.16q-.33.35-.21.82.48 1.9 2.45 2.3zm132.17.23c-3.96 1.67-9.51 2.65-12.55-.54a1.86 1.85 18.2 0 1-.48-.94q-.64-3.61 3.58-4.94 4.53-1.42 8.95-1.26 1.93.06 1.33-1.77-.06-.2-.17-.37-.98-1.59-2.72-1.96-4.69-.99-9.06.78-.68.27-.75-.46l-.03-.31q-.05-.51.43-.7c3.59-1.42 13.87-2.58 13.83 3.97q-.03 4.93-.02 9.02 0 .82-.78.59-.48-.13-.58-.6-.18-.85-.98-.51zm-9.96-.45q4.89 1.43 10.36-1.23.51-.25.5-.82l-.06-3.68a.4.4 0 0 0-.44-.39c-3.49.34-8.67.46-11.36 2.58q-1.52 1.21-.22 2.75a2.5 2.5 0 0 0 1.22.79zM420 57.79v4.16q-4.74 8.14-14.83 3.91c-1.68-.7-3.13-3.03-3.36-4.9-.8-6.2 4.27-9.13 9.68-8.95q6.27.21 8.51 5.78zm-1.29 1.876a7.82 6.28-.1 0 0-7.831-6.266 7.82 6.28-.1 0 0-7.809 6.294 7.82 6.28-.1 0 0 7.831 6.266 7.82 6.28-.1 0 0 7.809-6.294zM274.59 54.11l-.02 12.41a.32.32 0 0 1-.34.32l-.93-.05a.32.32 0 0 1-.3-.32V54.08a.32.32 0 0 0-.33-.32l-5.74.2a.32.32 0 0 1-.33-.28l-.12-.96a.32.32 0 0 1 .32-.36l13.89.01a.32.32 0 0 1 .32.35l-.08.93a.32.32 0 0 1-.32.29l-5.69-.15a.32.32 0 0 0-.33.32zm102.38-.65a1.06 1.06 0 0 1 1.05-1.07l7.53-.02a7.33 7.06-.2 0 1 7.36 7.03v.4a7.33 7.06-.2 0 1-7.3 7.09l-7.53.02a1.06 1.06 0 0 1-1.07-1.05l-.04-12.4zm1.53 1.22l.06 9.9a.89.89 0 0 0 .89.89l6.25-.03a5.5 4.86-.3 0 0 5.48-4.89l-.02-1.96a5.5 4.86-.3 0 0-5.52-4.83l-6.25.03a.89.89 0 0 0-.89.89zm-75.71 10.19c-3.42 2.15-7.77 3.54-11.14 1.14q-1.81-1.3-1.83-3.61-.05-5.01 0-9.37a.57.57 0 0 1 .57-.57l.38-.01q.53 0 .56.53.14 3.6-.01 8.33c-.22 7.12 8.11 4.3 11.38 2.11 1.14-.76.79-1.73.8-2.9q0-3.92.02-7.55.01-.51.52-.5l.46.01q.51.02.51.52l-.02 13.21q0 .53-.52.57l-.34.03q-.61.04-.61-.56l.01-.97q.01-.87-.74-.41zm31.06.37l8.45.1q.62.01.68.62l.04.35a.59.59 0 0 1-.6.65l-8.2-.09a3.89 3.89 0 0 1-3.85-3.89l-.01-9.97q0-.63.63-.56l.41.05q.59.06.59.65v10.21a1.89 1.88-89.8 0 0 1.86 1.88z" fill="#101010"/><g fill="#ffb611"><circle cx="18.2" cy="58.71" r="4.28"/><circle cx="29.41" cy="62.62" r="5.4"/><circle cx="59.98" cy="63.01" r="5.39"/><path d="M45.14 60.73c3.46-3.84 7.87-.36 7.09 4.05-.65 3.7-4.23 6.36-7.04 8.72q-.37.31-.78.03c-3.63-2.58-8.32-6.5-7.08-11.25.89-3.4 4.57-4.29 6.98-1.55q.41.47.83 0z"/><circle cx="7.07" cy="62.57" r="1.66"/><circle cx="13.55" cy="66.88" r="4.3"/><circle cx="22.09" cy="71.45" r="4.3"/><circle cx="64.05" cy="70.45" r="2.71"/><circle cx="33.53" cy="74.15" r="5.36"/><circle cx="56.89" cy="75.29" r="5.39"/><circle cx="15.32" cy="73.47" r="1.75"/><path d="M49.45 81.74q-.69.9-1.25 2.26-.49 1.19-2.88 2h-2.57q-3.85-1.42-4.07-5.01c-.26-4.33 4.36-7.07 8.1-4.98q2.92 1.63 2.67 5.73z"/><circle cx="19.76" cy="77.34" r="1.52"/><circle cx="26.37" cy="79.68" r="2.87"/><path d="M52.87 86h-.82q-2.91-1.27-2.6-4.26 1.1-.32 1.88-1.28.39-.48 1.01-.39c3.67.52 4.12 4.64.53 5.93zm-17.02 0h-.59c-5.9-2.01-.94-7.93 2.18-4.96 1.9 1.8.59 4.2-1.59 4.96z"/></g></svg>