<svg xmlns="http://www.w3.org/2000/svg" viewBox="0 0 850.4 220.7"><g fill="#4F98D2"><path d="M52.7 217.6v-6.7c-7.4 0-11-5.8-11-13.2 0-3.4.6-10.1 2.1-15.3l8.3-27h72l10.7 28.5c2.1 6.1 3.6 11.3 3.6 15.6 0 7.1-3.6 11.3-10.1 11.3v6.7c10.4 0 20.5-1.2 31-1.2 10.4 0 20.5 1.2 30.9 1.2v-6.7c-11-1.2-13.8-11.3-24.5-38.6L98.6 0H95L29.7 164.9c-5.8 14.7-17.5 43.5-29.7 45.9v6.7c8.8 0 17.4-1.2 26.3-1.2 8.9.1 17.5 1.3 26.4 1.3M87.6 60.1l31 80.6H57.9l29.7-80.6zM248.5 220.7c10.4 0 16.3-1.5 21.5-4.6l17.8-15.6c4.9 9.2 13.5 16.8 23.3 20.2 5.8-7.4 17.2-15.6 27.9-22.7l-4.6-4.6c-2.2 1.2-4.3 2.5-8.6 2.5-7.1 0-9.5-6.2-9.5-17.2v-76.3c0-44.1 1.2-78.5 1.2-102.4h-6.1c-7.7 8.6-26.1 17.2-41.1 21.1v6.1c8 1.2 15.6 5.5 15.6 22.7v45.4c-10.5-4.9-20.9-7.7-31.3-7.7-39.2 0-68.1 24.5-68.1 67.1.1 37.1 24.6 66 62 66m5.2-120.8c24.2 0 32.8 12.3 32.8 41.4v50.3c-8 7.7-15.9 10.7-24.8 10.7-26.7 0-42-30-42-55.5 0-20.9 9.8-46.9 34-46.9M409.4 220.7c12.9 0 23-2.4 29.1-4.6l16.6-24.2-3.1-3.7c-9.2 6.7-20.8 9.8-32.2 9.8-31.6 0-53.3-27.6-51.2-57.9h89.2c-.3-32.5-24.8-52.4-56.4-52.4-41.7 0-62.5 37.7-62.5 66.5 0 28.8 20.8 66.5 70.5 66.5M396.2 98.1c19.9 0 28.5 11.6 28.5 29.7h-55.2c-.6-15.7 10.2-29.7 26.7-29.7M533.8 189.4c0 11.9-10.1 19-21.5 19-13.8 0-25.7-10.4-28.8-25.1h-11.3l1.8 28.5c9.2 5.8 24.8 8.9 35.5 8.9 26.4 0 48.7-12 48.7-41 0-42-61-31-61-60.4 0-12.6 8.9-19.3 21.1-19.3 16.5 0 25.1 7.7 28.5 23.3h9.8l1.2-27.6c-12.9-4-25.8-8-38.9-8-25.1 0-48.4 12.3-48.4 40.5.2 43.4 63.3 38.8 63.3 61.2M583.5 45.6c.9 11.7 2.4 34.6 2.4 52.4v99.3c0 6.7-2.4 12.3-12.2 13.8v6.1c8.8 0 17.4-.9 26.3-.9 9.2 0 18.4.9 27.6.9v-6.1c-9.5-1.5-11.9-7-11.9-17.4V74.8c0-28.2.9-58.2 1.2-74.8h-6.1c-8 8.6-32.1 17.2-42.9 18.7v7.1c9.7-.1 15 7.3 15.6 19.8M675.1 220.7c13.5 0 23.3-7.4 33.7-15 3.7 7.7 12.9 13.5 24.5 15l22.9-18.4-4.6-4.6c-2.1.6-4.9 1.2-6.4 1.2-6.8 0-9.2-4-9.2-18.1v-10.7c.3-17.5 1.2-33.4 1.2-44.4 0-30.7-23.3-38-50.6-38-14.4 0-26.7 1.8-39.5 5.5v29.1h7.4c7.7-11.4 15.3-16.3 30.4-16.3 20.8 0 22 18.4 22 35-4.3 0-9.5-.9-14.4-.9-27.9 0-58.8 12.5-58.8 45 0 22.7 20.6 35.6 41.4 35.6m17.1-70.2c5.5 0 11.3.9 14.7 1.5l.9 45c-4.9 3.1-11 5.2-20.5 5.2-12.9 0-23.9-10.7-23.9-24.8 0-19.6 14.8-26.9 28.8-26.9M825.9 189.4c0 11.9-10.1 19-21.5 19-13.8 0-25.7-10.4-28.8-25.1h-11.3l1.9 28.5c9.2 5.8 24.8 8.9 35.5 8.9 26.3 0 48.7-12 48.7-41 0-42-61-31-61-60.4 0-12.6 8.9-19.3 21.2-19.3 16.5 0 25.1 7.7 28.5 23.3h9.8l1.2-27.6c-12.9-4-25.7-8-38.9-8-25.1 0-48.4 12.3-48.4 40.5 0 43.4 63.1 38.8 63.1 61.2"/></g></svg>