<svg xmlns="http://www.w3.org/2000/svg" viewBox="0 20 247 50"><path d="M52 67.9l1.3-7.5H51l.2-1.1h5.7l-.2 1.1h-2.3l-1.3 7.5H52zm3.7 0l1-5.9h1l-.2 1c.2-.3.4-.6.8-.8.3-.2.7-.3 1.1-.3h.4c.1 0 .2.1.3.1l-.5 1c-.1 0-.2-.1-.3-.1H59c-.2 0-.4 0-.6.1-.2.1-.4.2-.5.4-.2.2-.3.3-.4.6-.1.2-.2.5-.2.7l-.5 3.1h-1.1zm7.4-6.1c.7 0 1.3.2 1.7.5.4.4.6.8.6 1.4v.6l-.6 3.5h-1l.1-.8c-.2.3-.4.5-.8.7-.3.2-.7.3-1.1.3-.3 0-.5 0-.8-.1-.2-.1-.4-.2-.6-.4-.2-.2-.3-.3-.4-.6-.1-.2-.2-.5-.2-.7 0-.3.1-.6.2-.9.1-.3.3-.5.6-.7.2-.2.5-.3.9-.4.3-.1.7-.2 1.1-.2.3 0 .6 0 .8.1s.5.2.7.3v-.3-.2c0-.3-.1-.6-.4-.8s-.6-.3-1-.3a1.88 1.88 0 00-1.5.8l-.8-.6c.3-.4.6-.7 1-.9.5-.2 1-.3 1.5-.3zm-1 5.3c.2 0 .5 0 .7-.1.2-.1.4-.2.6-.4.2-.2.3-.3.4-.6.1-.2.2-.4.2-.7-.1-.1-.2-.1-.4-.2-.1 0-.3-.1-.5-.1s-.4-.1-.7-.1c-.2 0-.4 0-.6.1-.2 0-.4.1-.5.2-.1.1-.3.2-.4.4.2.2.1.4.1.6 0 .2 0 .3.1.4.1.1.1.2.2.3.1.1.2.1.3.2h.5zm5.7 1c-.2 0-.4 0-.5-.1-.2-.1-.3-.2-.4-.3-.1-.1-.2-.3-.3-.4-.1-.2-.1-.4-.1-.6v-.3-.4l.5-3.1h-1l.2-1h1l.3-1.8h1.1l-.4 1.9h1.4l-.2 1H68l-.5 2.9v.5c0 .2 0 .3.1.4.1.2.2.2.4.2h.3c.1 0 .1 0 .2-.1l.2 1c-.1.1-.3.1-.4.1-.2 0-.3.1-.5.1zm5.1-6.3c.7 0 1.3.2 1.7.5.4.4.6.8.6 1.4v.6l-.6 3.5h-1l.1-.8c-.2.3-.4.5-.8.7-.3.2-.7.3-1.1.3-.3 0-.5 0-.8-.1s-.4-.2-.6-.4c-.2-.2-.3-.3-.4-.6-.1-.2-.2-.5-.2-.7 0-.3.1-.6.2-.9.1-.3.3-.5.6-.7.2-.2.5-.3.9-.4.3-.1.7-.2 1.1-.2.3 0 .6 0 .8.1.2.1.5.2.7.3v-.3-.2c0-.3-.1-.6-.4-.8-.2-.2-.6-.3-1-.3a1.87 1.87 0 00-1.5.8l-.7-.6c.3-.4.6-.7 1-.9.4-.2.9-.3 1.4-.3zm-1 5.3c.2 0 .5 0 .7-.1.2-.1.4-.2.6-.4.2-.2.3-.3.4-.6.1-.2.2-.4.2-.7-.1-.1-.2-.1-.3-.2-.1 0-.3-.1-.5-.1s-.4-.1-.7-.1c-.2 0-.4 0-.6.1-.2 0-.4.1-.5.2-.1.1-.3.2-.4.4-.1.2-.1.3-.1.5s0 .3.1.4c.1.1.1.2.2.3.1.1.2.1.3.2.3.1.5.1.6.1zm4.5-5.1h1l-.1.8c.2-.3.5-.6.8-.7.3-.2.7-.3 1.1-.3.4 0 .8.1 1.1.3.3.2.5.5.6.8.2-.3.5-.6.9-.8.4-.2.8-.3 1.3-.3.6 0 1 .2 1.3.5.3.3.4.7.4 1.2v.4c0 .1 0 .3-.1.5l-.6 3.4H83l.6-3.5V64v-.3c0-.3-.1-.6-.3-.7-.2-.2-.4-.3-.8-.3-.2 0-.4.1-.6.2s-.4.2-.5.4c-.2.2-.3.4-.4.6-.1.2-.2.4-.2.7l-.6 3.2h-1.1l.6-3.5V64v-.3c0-.3-.1-.6-.3-.7-.2-.2-.4-.3-.8-.3-.2 0-.4.1-.6.2-.2.1-.4.2-.5.4-.2.2-.3.4-.4.6-.1.2-.2.4-.2.7l-.6 3.2h-1.1l1.2-5.8zm9 5.9l1-5.9h1.1l-1 5.9h-1.1zm1.9-7.1c-.2 0-.4-.1-.5-.2-.1-.1-.2-.3-.2-.6 0-.2.1-.4.2-.5.1-.2.3-.2.5-.2s.4.1.5.2c.1.2.2.3.2.5s-.1.4-.2.6c-.1.1-.3.2-.5.2zm6 5.7c-.3.5-.7.9-1.2 1.2-.5.3-1 .4-1.5.4-.4 0-.8-.1-1.1-.2-.3-.1-.6-.3-.8-.6-.2-.2-.4-.5-.5-.8-.1-.3-.2-.7-.2-1 0-.5.1-.9.2-1.3.2-.4.4-.8.7-1.1.3-.3.6-.6 1-.8.4-.2.9-.3 1.4-.3.4 0 .7.1 1 .2.3.1.6.3.8.5s.4.5.5.8c.1.3.2.6.2 1v.5c0 .2 0 .3-.1.4h-4.5v.4c0 .3 0 .5.1.7.1.2.2.4.4.5.1.1.3.2.5.3.2.1.4.1.6.1.4 0 .7-.1 1-.3.3-.2.6-.4.8-.8l.7.2zm-.7-2.3v-.1c0-.2 0-.3-.1-.5s-.1-.3-.3-.4c-.1-.1-.3-.2-.4-.3-.2-.1-.4-.1-.6-.1-.5 0-.9.1-1.2.4-.3.3-.6.6-.7 1h3.3zm3.4-1.4c.2-.3.5-.5.8-.7.3-.2.7-.3 1.1-.3.6 0 1 .2 1.3.5.3.3.5.8.5 1.3v.4c0 .2 0 .3-.1.5l-.6 3.4h-1.1l.6-3.5v-.5c0-.4-.1-.6-.3-.8-.2-.2-.5-.3-.9-.3-.2 0-.5 0-.7.1s-.4.2-.5.4-.3.4-.4.6c-.1.2-.2.5-.2.7l-.6 3.2h-1.1l1-5.9h1l.2.9zm6.4 5.3c-.2 0-.4 0-.5-.1-.2-.1-.3-.2-.4-.3-.1-.1-.2-.3-.3-.4s-.1-.4-.1-.6v-.3-.4l.5-3.1h-1l.2-1h1l.3-1.8h1.1l-.3 1.8h1.4l-.2 1h-1.4l-.5 2.9v.5c0 .2 0 .3.1.4.1.1.2.2.4.2h.3c.1 0 .1 0 .2-.1l.2 1c-.2.1-.3.1-.5.1-.1.1-.3.2-.5.2zm5.4-6.3c.4 0 .8.1 1.1.2.3.1.6.3.8.6.2.3.4.6.5.9.1.3.2.7.2 1.1 0 .5-.1.9-.3 1.4-.2.4-.4.8-.7 1.1-.3.3-.7.6-1.1.7a3.2 3.2 0 01-2.5.1c-.3-.1-.6-.4-.8-.6-.2-.3-.4-.6-.5-.9-.1-.3-.2-.7-.2-1.1 0-.5.1-.9.3-1.4.2-.4.4-.8.7-1.1.3-.3.7-.6 1.1-.7.4-.2.9-.3 1.4-.3zm-.7 5.3c.3 0 .7-.1.9-.2.3-.1.5-.3.7-.5.2-.2.3-.5.4-.8.1-.3.2-.6.2-.9 0-.3 0-.5-.1-.7-.1-.2-.2-.4-.4-.6-.2-.2-.3-.3-.5-.4-.2-.1-.4-.1-.6-.1-.3 0-.7.1-.9.2-.3.1-.5.3-.7.5-.2.2-.3.5-.4.8-.1.3-.2.6-.2.9 0 .3 0 .5.1.7.1.2.2.4.4.6.2.2.3.3.5.4.2 0 .4.1.6.1zm5.8 1c-.3 0-.6 0-.9-.1-.3-.1-.5-.2-.7-.4-.2-.1-.3-.3-.5-.5-.1-.2-.2-.4-.3-.7l1-.4c.1.4.2.6.5.8.3.2.6.3.9.3.4 0 .7-.1.9-.2.2-.2.3-.4.3-.6 0-.2-.1-.4-.2-.5-.1-.1-.4-.2-.7-.3l-.7-.2c-.4-.1-.8-.3-1-.5s-.4-.6-.4-1c0-.3.1-.5.2-.7.1-.2.3-.4.5-.6.2-.2.5-.3.7-.4.3-.1.6-.1.9-.1.5 0 1 .1 1.4.4.4.3.6.6.8 1l-1 .4c-.1-.2-.2-.4-.4-.6-.2-.2-.5-.2-.8-.2-.3 0-.6.1-.8.2-.2.1-.3.3-.3.6 0 .2.1.3.2.4.1.1.3.2.6.3l.7.2c.5.1.8.3 1.1.6s.4.6.4 1c0 .3-.1.6-.2.8-.1.2-.3.4-.5.6-.2.2-.5.3-.8.4-.2-.1-.5 0-.9 0zm9.4-8.8h1.2l1.7 8.6H124l-.4-2.3h-3.5l-1.2 2.3h-1.2l4.6-8.6zm1.1 5.2l-.7-3.9-2 3.9h2.7zm2.4-2.5h1.1l.9 4.6 2.5-4.6h1.2l-3.3 5.9h-1.1l-1.3-5.9zm8.7-.2c.7 0 1.3.2 1.7.5.4.4.6.8.6 1.4v.6l-.6 3.5h-1l.1-.8c-.2.3-.4.5-.8.7-.3.2-.7.3-1.1.3-.3 0-.5 0-.8-.1-.2-.1-.4-.2-.6-.4-.2-.2-.3-.3-.4-.6-.1-.2-.2-.5-.2-.7 0-.3.1-.6.2-.9.1-.3.3-.5.6-.7.2-.2.5-.3.9-.4.3-.1.7-.2 1.1-.2.3 0 .6 0 .8.1s.5.2.7.3v-.3-.2c0-.3-.1-.6-.4-.8s-.6-.3-1-.3a1.87 1.87 0 00-1.5.8l-.8-.6c.3-.4.6-.7 1-.9.5-.2 1-.3 1.5-.3zm-1 5.3c.2 0 .5 0 .7-.1.2-.1.4-.2.6-.4.2-.2.3-.3.5-.6.1-.2.2-.4.2-.7-.1-.1-.2-.1-.3-.2-.1 0-.3-.1-.5-.1s-.4-.1-.7-.1c-.2 0-.4 0-.6.1-.2 0-.4.1-.5.2-.1.1-.3.2-.4.4-.1.2-.1.3-.1.5s0 .3.1.4c.1.1.1.2.2.3.1.1.2.1.3.2.2.1.4.1.5.1zm5.4-4.3c.2-.3.5-.5.8-.7.3-.2.7-.3 1.1-.3.6 0 1 .2 1.3.5.3.3.5.8.5 1.3v.4c0 .2 0 .3-.1.5l-.6 3.4h-.9l.6-3.5v-.5c0-.4-.1-.6-.3-.8s-.5-.3-.9-.3c-.2 0-.5 0-.7.1-.2.1-.4.2-.5.4s-.3.4-.4.6c-.1.2-.2.5-.2.7l-.6 3.2h-1l1-5.9h1l-.1.9zm4.3 4.1l3.9-3.9H144l.2-1h4.5l-.2 1-3.9 3.9h3.3l-.2 1h-4.6l.1-1zm8.8-5.1c.7 0 1.3.2 1.7.5.4.4.6.8.6 1.4v.6l-.6 3.5h-1l.1-.8c-.2.3-.4.5-.8.7-.3.2-.7.3-1.1.3-.3 0-.5 0-.8-.1s-.4-.2-.6-.4c-.2-.2-.3-.3-.4-.6-.1-.2-.2-.5-.2-.7 0-.3.1-.6.2-.9.1-.3.3-.5.6-.7.2-.2.5-.3.9-.4.3-.1.7-.2 1.1-.2.3 0 .6 0 .8.1.2.1.5.2.7.3v-.3-.2c0-.3-.1-.6-.4-.8-.2-.2-.6-.3-1-.3a1.87 1.87 0 00-1.5.8l-.8-.6c.3-.4.6-.7 1-.9.5-.2 1-.3 1.5-.3zm-1 5.3c.2 0 .5 0 .7-.1.2-.1.4-.2.6-.4.2-.2.3-.3.4-.6.1-.2.2-.4.2-.7-.1-.1-.2-.1-.4-.2-.1 0-.3-.1-.5-.1s-.4-.1-.7-.1c-.2 0-.4 0-.6.1-.2 0-.4.1-.5.2-.1.1-.3.2-.4.4-.1.2-.1.3-.1.5s0 .3.1.4c.1.1.1.2.2.3.1.1.2.1.3.2.4.1.6.1.7.1zm6 1c-.3 0-.6-.1-.9-.2-.3-.1-.5-.3-.8-.5-.2-.2-.4-.5-.5-.9-.1-.3-.2-.7-.2-1.1 0-.5.1-.9.3-1.3.2-.4.4-.8.7-1.1.3-.3.6-.6 1-.8.4-.2.8-.3 1.3-.3.4 0 .7.1 1.1.3.3.2.6.4.7.7l.1-.8.5-2.7h1.1l-1.5 8.6h-1l.1-.8c-.2.3-.5.5-.8.7-.3.1-.7.2-1.2.2zm.8-5.3c-.3 0-.6.1-.8.2s-.5.3-.7.5-.3.5-.5.8c-.1.3-.2.6-.2 1 0 .6.1 1 .4 1.3.3.3.7.5 1.2.5.3 0 .6-.1.8-.2s.5-.3.7-.6.3-.5.4-.8c.1-.3.2-.6.2-.9 0-.6-.2-1-.5-1.3-.1-.3-.5-.5-1-.5zm6.9-1c.4 0 .8.1 1.1.2.3.1.6.3.8.6.2.3.4.6.5.9s.2.7.2 1.1c0 .5-.1.9-.3 1.4-.2.4-.4.8-.7 1.1-.3.3-.7.6-1.1.7a3.2 3.2 0 01-2.5.1c-.3-.1-.6-.4-.8-.6-.2-.3-.4-.6-.5-.9-.1-.3-.2-.7-.2-1.1 0-.5.1-.9.3-1.4.2-.4.4-.8.7-1.1.3-.3.7-.6 1.1-.7s.9-.3 1.4-.3zm-.7 5.3c.3 0 .7-.1.9-.2.3-.1.5-.3.7-.5.2-.2.3-.5.4-.8.1-.3.2-.6.2-.9 0-.3 0-.5-.1-.7-.1-.2-.2-.4-.4-.6-.2-.2-.3-.3-.5-.4-.2-.1-.4-.1-.6-.1-.3 0-.7.1-.9.2-.3.1-.5.3-.7.5-.2.2-.3.5-.4.8-.1.3-.2.6-.2.9 0 .3 0 .5.1.7.1.2.2.4.4.6.2.2.3.3.5.4.2 0 .4.1.6.1zm5.8 1c-.3 0-.6 0-.9-.1-.3-.1-.5-.2-.7-.4-.2-.1-.3-.3-.5-.5-.1-.2-.2-.4-.3-.7l1-.4c.1.4.2.6.5.8.3.2.6.3.9.3.4 0 .7-.1.9-.2s.3-.4.3-.6c0-.2-.1-.4-.2-.5-.1-.1-.4-.2-.7-.3l-.7-.2c-.4-.1-.8-.3-1-.5-.3-.2-.4-.6-.4-1 0-.3.1-.5.2-.7.1-.2.3-.4.5-.6.2-.2.5-.3.7-.4.3-.1.6-.1.9-.1.5 0 1 .1 1.4.4.4.3.6.6.8 1l-1 .4c-.1-.2-.2-.4-.4-.6-.2-.2-.5-.2-.8-.2-.3 0-.6.1-.8.2-.2.1-.3.3-.3.6 0 .2.1.3.2.4.1.1.3.2.6.3l.7.2c.5.1.8.3 1.1.6.3.3.4.6.4 1 0 .3-.1.6-.2.8-.1.2-.3.4-.5.6-.2.2-.5.3-.8.4-.2-.1-.5 0-.9 0zm8.2 0c-.3 0-.6-.1-.9-.2-.3-.1-.5-.3-.8-.5-.2-.2-.4-.5-.5-.9-.1-.3-.2-.7-.2-1.1 0-.5.1-.9.3-1.3.2-.4.4-.8.7-1.1.3-.3.6-.6 1-.8.4-.2.8-.3 1.3-.3.4 0 .7.1 1.1.3s.6.4.7.7l.1-.8.5-2.7h1.1l-1.5 8.6h-1l.1-.8c-.2.3-.5.5-.8.7-.3.1-.7.2-1.2.2zm.8-5.3c-.3 0-.6.1-.8.2s-.5.3-.7.5c-.2.2-.3.5-.5.8-.1.3-.2.6-.2 1 0 .6.1 1 .4 1.3.3.3.7.5 1.2.5.3 0 .6-.1.9-.2s.5-.3.7-.6.3-.5.4-.8.2-.6.2-.9c0-.6-.2-1-.5-1.3-.2-.3-.6-.5-1.1-.5zm8.7 3.7c-.3.5-.7.9-1.2 1.2-.5.3-1 .4-1.5.4-.4 0-.8-.1-1.1-.2-.3-.1-.6-.3-.8-.6-.2-.2-.4-.5-.5-.8-.1-.3-.2-.7-.2-1 0-.5.1-.9.2-1.3s.4-.8.7-1.1c.3-.3.6-.6 1-.8.4-.2.9-.3 1.4-.3.4 0 .7.1 1 .2.3.1.6.3.8.5s.4.5.5.8c.1.3.2.6.2 1v.5c0 .2 0 .3-.1.4h-4.5v.4c0 .3 0 .5.1.7.1.2.2.4.4.5.1.1.3.2.5.3s.4.1.6.1c.4 0 .7-.1 1-.3.3-.2.6-.4.8-.8l.7.2zm-.6-2.3v-.1c0-.2 0-.3-.1-.5s-.1-.3-.3-.4c-.1-.1-.3-.2-.4-.3-.2-.1-.4-.1-.6-.1-.5 0-.9.1-1.2.4-.3.3-.6.6-.7 1h3.3zm4 3.7l1.5-8.6h1.1l-1.5 8.6h-1.1zm5.8-6.1c.7 0 1.3.2 1.7.5.4.4.6.8.6 1.4v.6l-.6 3.5h-1l.1-.8c-.2.3-.4.5-.8.7-.3.2-.7.3-1.1.3-.3 0-.5 0-.8-.1-.2-.1-.4-.2-.6-.4-.2-.2-.3-.3-.4-.6-.1-.2-.2-.5-.2-.7 0-.3.1-.6.2-.9.1-.3.3-.5.6-.7.3-.2.5-.3.9-.4.3-.1.7-.2 1.1-.2.3 0 .6 0 .8.1.2.1.5.2.7.3v-.3-.2c0-.3-.1-.6-.4-.8-.2-.2-.6-.3-1-.3a1.87 1.87 0 00-1.5.8l-.8-.6c.3-.4.6-.7 1-.9.5-.2 1-.3 1.5-.3zm-1 5.3c.2 0 .5 0 .7-.1.2-.1.4-.2.6-.4.2-.2.3-.3.4-.6.1-.2.2-.4.2-.7-.1-.1-.2-.1-.3-.2-.1 0-.3-.1-.5-.1s-.4-.1-.7-.1c-.2 0-.4 0-.6.1-.2 0-.4.1-.5.2-.1.1-.3.2-.4.4-.1.2-.1.3-.1.5s0 .3.1.4c.1.1.1.2.2.3.1.1.2.1.3.2.3.1.4.1.6.1zm9.8-7.8h1.2l1.7 8.6h-1.2l-.4-2.3h-3.5l-1.2 2.3h-1.2l4.6-8.6zm1.1 5.2l-.7-3.9-2 3.9h2.7zm4.9 3.6c-.3 0-.6-.1-.9-.2-.3-.1-.5-.3-.8-.5-.2-.2-.4-.5-.5-.9-.1-.3-.2-.7-.2-1.1 0-.5.1-.9.3-1.3.2-.4.4-.8.7-1.1.3-.3.6-.6 1-.8.4-.2.8-.3 1.3-.3.4 0 .7.1 1.1.3.3.2.6.4.7.7l.1-.8.5-2.7h1.1l-1.5 8.6h-1l.1-.8c-.2.3-.5.5-.8.7-.3.1-.7.2-1.2.2zm.9-5.3c-.3 0-.6.1-.8.2-.3.1-.5.3-.7.5s-.3.5-.5.8c-.1.3-.2.6-.2 1 0 .6.1 1 .4 1.3.3.3.7.5 1.2.5.3 0 .6-.1.9-.2.3-.1.5-.3.7-.6.2-.2.3-.5.4-.8.1-.3.2-.6.2-.9a1.73 1.73 0 00-1.6-1.8zm3.4 5.1l1-5.9h1.1l-1 5.9h-1.1zm1.9-7.1c-.2 0-.4-.1-.5-.2-.1-.1-.2-.3-.2-.6 0-.2.1-.4.2-.5.1-.2.3-.2.5-.2s.4.1.5.2.2.3.2.5-.1.4-.2.6c-.1.1-.3.2-.5.2zm3.2 7.3c-.4 0-.7-.1-1-.2-.3-.1-.6-.3-.8-.6-.2-.2-.4-.5-.5-.9a3.2 3.2 0 01.1-2.5c.2-.4.4-.8.7-1.1.3-.3.7-.6 1.1-.7s.9-.3 1.3-.3.7.1.9.1c.3.1.5.2.7.4l.5.5.3.6-1 .4c-.1-.3-.3-.6-.5-.8-.2-.2-.6-.3-1-.3-.3 0-.6.1-.9.2s-.5.3-.7.5-.3.5-.5.8c-.1.3-.2.6-.2 1 0 .2 0 .5.1.7l.3.6c.1.2.3.3.5.4.2.1.4.1.7.1.4 0 .7-.1 1-.3.3-.2.5-.5.7-.8l.9.4c-.2.3-.4.5-.5.8-.2.2-.4.4-.6.5-.2.1-.5.2-.7.3-.3.1-.6.2-.9.2zm6 0c-.4 0-.7-.1-1-.2-.3-.1-.6-.3-.8-.6-.2-.2-.4-.5-.5-.9a3.2 3.2 0 01.1-2.5c.2-.4.4-.8.7-1.1.3-.3.7-.6 1.1-.7s.9-.3 1.3-.3c.3 0 .7.1.9.1.3.1.5.2.7.4l.5.5.3.6-1 .4c-.1-.3-.3-.6-.5-.8-.2-.2-.6-.3-.9-.3-.3 0-.6.1-.9.2-.3.1-.5.3-.7.5-.2.2-.3.5-.5.8-.1.3-.2.6-.2 1 0 .2 0 .5.1.7l.3.6c.1.2.3.3.5.4.2.1.4.1.7.1.4 0 .7-.1 1-.3.3-.2.5-.5.7-.8l.9.4c-.2.3-.4.5-.5.8-.2.2-.4.4-.6.5-.2.1-.5.2-.7.3s-.7.2-1 .2zm3.5-.2l1-5.9h1.1l-1 5.9h-1.1zm1.9-7.1c-.2 0-.4-.1-.5-.2-.1-.1-.2-.3-.2-.6 0-.2.1-.4.2-.5s.3-.2.5-.2.4.1.5.2c.1.2.2.3.2.5s-.1.4-.2.6c-.1.1-.3.2-.5.2zm4.1 1c.4 0 .8.1 1.1.2.3.1.6.3.8.6.2.3.4.6.5.9.1.3.2.7.2 1.1 0 .5-.1.9-.3 1.4-.2.4-.4.8-.7 1.1-.3.3-.7.6-1.1.7a3.2 3.2 0 01-2.5.1c-.3-.1-.6-.4-.8-.6-.2-.3-.4-.6-.5-.9-.1-.3-.2-.7-.2-1.1 0-.5.1-.9.3-1.4.2-.4.4-.8.7-1.1.3-.3.7-.6 1.1-.7.5-.2.9-.3 1.4-.3zm-.6 5.3c.3 0 .7-.1.9-.2.3-.1.5-.3.7-.5.2-.2.3-.5.4-.8.1-.3.2-.6.2-.9 0-.3 0-.5-.1-.7-.1-.2-.2-.4-.4-.6-.2-.2-.3-.3-.5-.4-.2-.1-.4-.1-.6-.1-.3 0-.6.1-.9.2-.3.1-.5.3-.7.5-.2.2-.3.5-.4.8-.1.3-.2.6-.2.9 0 .3 0 .5.1.7.1.2.2.4.4.6.2.2.3.3.5.4.1 0 .3.1.6.1zm.3-6.3l.9-1.5h1.2l-1.1 1.5h-1zm5 2c.2-.3.5-.5.8-.7.3-.2.7-.3 1.1-.3.6 0 1 .2 1.3.5.3.3.5.8.5 1.3v.4c0 .2 0 .3-.1.5l-.6 3.4H243l.6-3.5v-.5c0-.4-.1-.6-.3-.8-.2-.2-.5-.3-.9-.3-.2 0-.5 0-.7.1s-.4.2-.5.4c-.2.2-.3.4-.4.6-.1.2-.2.5-.2.7l-.6 3.2h-1.1l1-5.9h1l.2.9z" fill="#6f6f6e"/><circle cx="8.2" cy="29.2" r="6.6" fill="#e09632"/><path d="M18.7 22.6c-1.6 0-3 .6-4.2 1.5 1.1 1.4 1.8 3.2 1.8 5.1s-.7 3.7-1.8 5.1a6.6 6.6 0 104.2-11.7z" fill="#e09632"/><path d="M29.2 22.6c-1.6 0-3 .6-4.2 1.5 1.1 1.4 1.8 3.2 1.8 5.1s-.7 3.7-1.8 5.1a6.6 6.6 0 104.2-11.7z" fill="#e09632"/><path fill="#6197fa" d="M34 22.6c2 1.5 3.4 3.9 3.4 6.6 0 2.7-1.3 5.1-3.4 6.6h12.8V22.6H34zM51.5 22.8l-.8 3.3H59s.6 0 .4.8l-5.9 23.6h9.3l4.3-17.7s.9-5 2.9-5.9c2-.9 3.8-.8 3.8-.8h3.5l.9-3.3H51.5zm14.8 27.6h5.2l2.8-3.6s2.5-2.8 5-3.1c2.5-.3 7.7-.2 7.7-.2l1.1-3.1h-7.3s-1.3.2-1.3-.6c-.1-.7 3.7-5.6 3.7-5.6l4.4-6.3s.4-.5.9-.5.4 1 .5 1.7c.1.7 1.1 21.2 1.1 21.2h8.7l-1.7-27.6H86.5L66.3 50.4zm57.4 0h5.2l2.8-3.6s2.5-2.8 5-3.1c2.5-.3 7.7-.2 7.7-.2l1.1-3.1h-7.3s-1.3.2-1.3-.6c-.1-.7 3.7-5.6 3.7-5.6l4.4-6.3s.4-.5.9-.5.4 1 .5 1.7c.1.7 1.1 21.2 1.1 21.2h8.7l-1.7-27.6h-10.6l-20.2 27.7zm-17.1 0H117l16.7-27.6h-14.6l-.8 2.9h2.7s2.5.2 3.1 1.3c.5 1.1.9 2.4 0 4.1s-8.4 14.6-8.6 15c-.3.5-.4.6-.9.6-.4 0-.4-.8-.5-1.7-.1-.5-1.9-22.2-1.9-22.2h-8.4l2.8 27.6zm59-27.6l-6.8 27.6h9.5s7-.3 11-2 11.6-4.9 14.3-12c2.7-7-1.3-11.2-4.4-12.7s-12.2-1-12.2-1l-1 3.3s3.3-.3 5.3.9c1.8 1.1 3.4 3.1 3.2 6.3-.1 2.3-.5 6-4.4 9.4-3.9 3.3-5.8 4-8.5 4.2-2.7.3-2.8-.3-2.5-1.6.3-1.3 5.5-22.6 5.5-22.6l-9 .2z"/></svg>