<svg xmlns="http://www.w3.org/2000/svg" viewBox="0 20 196 32"><circle cx="8.2" cy="29.2" r="6.6" fill="#e09632"/><path d="M18.7 22.6c-1.6 0-3 .6-4.2 1.5 1.1 1.4 1.8 3.2 1.8 5.1s-.7 3.7-1.8 5.1a6.6 6.6 0 104.2-11.7z" fill="#e09632"/><path d="M29.2 22.6c-1.6 0-3 .6-4.2 1.5 1.1 1.4 1.8 3.2 1.8 5.1s-.7 3.7-1.8 5.1a6.6 6.6 0 104.2-11.7z" fill="#e09632"/><path fill="#6197fa" d="M34 22.6c2 1.5 3.4 3.9 3.4 6.6 0 2.7-1.3 5.1-3.4 6.6h12.8V22.6H34zM51.5 22.8l-.8 3.3H59s.6 0 .4.8l-5.9 23.6h9.3l4.3-17.7s.9-5 2.9-5.9c2-.9 3.8-.8 3.8-.8h3.5l.9-3.3H51.5zm14.8 27.6h5.2l2.8-3.6s2.5-2.8 5-3.1c2.5-.3 7.7-.2 7.7-.2l1.1-3.1h-7.3s-1.3.2-1.3-.6c-.1-.7 3.7-5.6 3.7-5.6l4.4-6.3s.4-.5.9-.5.4 1 .5 1.7c.1.7 1.1 21.2 1.1 21.2h8.7l-1.7-27.6H86.5L66.3 50.4zm57.4 0h5.2l2.8-3.6s2.5-2.8 5-3.1c2.5-.3 7.7-.2 7.7-.2l1.1-3.1h-7.3s-1.3.2-1.3-.6c-.1-.7 3.7-5.6 3.7-5.6l4.4-6.3s.4-.5.9-.5.4 1 .5 1.7c.1.7 1.1 21.2 1.1 21.2h8.7l-1.7-27.6h-10.6l-20.2 27.7zm-17.1 0H117l16.7-27.6h-14.6l-.8 2.9h2.7s2.5.2 3.1 1.3c.5 1.1.9 2.4 0 4.1s-8.4 14.6-8.6 15c-.3.5-.4.6-.9.6-.4 0-.4-.8-.5-1.7-.1-.5-1.9-22.2-1.9-22.2h-8.4l2.8 27.6zm59-27.6l-6.8 27.6h9.5s7-.3 11-2 11.6-4.9 14.3-12c2.7-7-1.3-11.2-4.4-12.7s-12.2-1-12.2-1l-1 3.3s3.3-.3 5.3.9c1.8 1.1 3.4 3.1 3.2 6.3-.1 2.3-.5 6-4.4 9.4-3.9 3.3-5.8 4-8.5 4.2-2.7.3-2.8-.3-2.5-1.6.3-1.3 5.5-22.6 5.5-22.6l-9 .2z"/></svg>