<svg xmlns="http://www.w3.org/2000/svg" viewBox="0 0 850.4 166.6"><g fill="#00528C"><path d="M99.5 113.2C97.8 130.4 87 132.3 70.4 132c-16 .3-26.5-1.3-27.8-16.5 0-11.8 7.9-17.5 23.2-17.5h33.7v15.2zM72.6 0C29.3 0 7.7 18.3 7.5 54.6h39.3c.2-14.9 9.9-19.3 25.8-19.3 18 0 26.8 6.4 26.8 19.4v12.1h-33C22.2 66.8 0 83.3 0 116.4c0 33.4 21.6 50.3 71 50.3s71-16.9 71-51.2V54.7C142 18.1 118.8 0 72.6 0M252 70.9l-34-13c-12.8-4.8-16.7-7.3-16.7-12.4 0-6.7 6.2-9.6 26.2-9.6 19.1 0 25.1 5.3 25.2 18.7h38.6C291.1 18.3 270.2 0 228.1 0c-48.4 0-68.7 15.3-68.7 46.7 0 24.2 12.1 34.7 37.3 45.2l30.4 12.4c10.8 4.1 17.3 7.3 20 9.2 2.6 1.9 3.9 4.4 3.9 7.3 0 7.3-6.9 9.9-26.5 9.9-23 0-29.5-4-29.8-18.7h-38.6c.3 37.8 20 54.7 68.3 54.7 48.7 0 68.4-14.9 68.4-48 .1-25.2-12.3-37.3-40.8-47.8"/><path d="M307.1 3.8h42.5v159h-42.5zM459.7 70.9l-34-13c-12.8-4.8-16.7-7.3-16.7-12.4 0-6.7 6.2-9.6 26.2-9.6 19.1 0 25.1 5.3 25.2 18.8H499C498.8 18.3 477.9 0 435.8 0 387.4 0 367 15.3 367 46.7c0 24.2 12.1 34.7 37.3 45.2l30.4 12.4c10.8 4.1 17.4 7.3 20 9.2 2.6 1.9 3.9 4.4 3.9 7.3 0 7.3-6.9 9.9-26.5 9.9-23 0-29.5-4-29.7-18.7h-38.6c.4 37.8 20 54.6 68.3 54.6 48.8 0 68.4-14.9 68.4-48 .1-25.1-12.4-37.2-40.8-47.7M614.2 113.2c-1.6 17.2-12.4 19.1-29.1 18.8-16 .3-26.5-1.3-27.8-16.5 0-11.8 7.9-17.5 23.2-17.5h33.7v15.2zM587.4 0c-43.4 0-65 18.3-65.1 54.7h39.3c.2-15 9.9-19.4 25.8-19.4 18 0 26.8 6.4 26.8 19.4v12.1h-33c-44.2 0-66.4 16.5-66.4 49.6 0 33.4 21.6 50.3 71 50.3s71-16.9 71-51.2V54.7c0-36.6-23.3-54.7-69.4-54.7"/><path d="M804.8 54.6c-5.1-29.8-17.9-51-32.8-51h-53.5c17.2 10.6 23.7 38.3 23.7 38.3 1.1 4 1.9 8.2 2.7 12.7h-45.6V112h45.6c-.6 3.9-1.4 7.6-2.3 11.1l-.4 1.6s-1.6 5.6-4.2 12.5c-3.7 8.7-9.9 19.9-19.4 25.7h53.5c5.3 0 10.3-2.7 14.8-7.5 8.2-8.7 14.7-24.3 17.9-43.5h45.6V54.6h-45.6z"/></g></svg>