<svg xmlns="http://www.w3.org/2000/svg" viewBox="0 0 512 512"><path fill="#f9bd00" d="M119.735 41.158C202.701-7.885 309.61-7.647 389.4 46.871c33.07 22.594 61.171 53.168 80.395 88.711q34.15 63.126 30.683 135.864-.151 3.121-3.121 4.093c-2.851.94-5.206-1.264-5.076-3.834.788-15.984.227-32.162-1.987-47.876-11.416-81.281-59.821-150.962-134.276-186.386C281.746 2.116 195.087 6.015 124.077 48.037c-2.311 1.361-4.385.929-5.702-1.48q-1.912-3.467 1.361-5.4z"/><path fill="#0060a1" d="M60.53 45.78c-3.413-.918-7.042-1.555-10.346-2.657-6.696-2.236-3.197-12.096 3.38-10.433 47.596 12.085 93.117 28.598 134.589 53.06 36.353 21.438 78.948 56.3 76.583 102.837q-.551 10.854-4.46 22.896c-7.592 23.436-21.427 44.788-37.984 62.953-25.348 27.821-56.138 50.598-88.517 72.522q-49.842 33.728-103.183 59.476-2.117 1.026-4.298.994c-4.59-.065-8.165-7.333-2.905-9.817q65.156-30.769 128.12-76.583c26.147-19.019 50.814-40.727 71.075-65.221 15.152-18.306 28.123-39.053 30.618-61.744 5.756-52.326-45.209-86.853-85.892-107.384Q115.75 60.652 60.53 45.78z"/><path fill="#f9bd00" d="M.007 259.339c-.551-77.76 33.005-149.763 92.988-199.476a4.309 4.32 45.5 0 1 5.551.043c2.149 1.847 2.344 4.007.14 5.832C43.39 111.271 9.565 178.771 8.193 250.775q-1.274 66.744 31.255 125.55 1.966 3.553-1.642 5.281-.076.032-.151.076-3.337 2.171-5.335-1.426Q6.314 333.384 1.151 280.01.071 268.875.007 259.339z"/><path fill="#0060a1" d="M88.502 256.358c4.504-58.99 29.689-115.398 66.031-162.086 2.192-2.819 5.152-6.242 8.834-2.506 2.3 2.344 2.7 5.551.68 8.1-35.586 44.917-60.793 100.839-64.66 158.328-.356 5.314-7.441 7.29-10.433 2.754-.842-1.285-.562-3.121-.454-4.59z"/><g fill="#f9bd00"><rect x="333.813" y="237.383" width="3.802" height="68.407" rx=".389"/><path d="M312.245 298.446q-.011-1.847-.896-.216c-8.532 15.746-31.806 7.83-27.043-9.979 2.981-11.167 17.356-12.722 27.14-10.649q.648.13.691-.529c.486-7.139-1.555-13.824-9.947-14.504q-6.577-.529-12.15 1.944-.886.389-1.091-.551l-.248-1.145a1.372 1.372 0 0 1 .886-1.588c8.834-3.056 20.92-4.028 25.099 5.972q1.642 3.942 1.436 14.202-.238 12.182-.022 23.825.011.572-.562.562l-2.851-.011q-.4 0-.41-.4zm-23.652-10.606c-3.899 11.113 7.69 20.498 17.474 13.381 5.789-4.201 6.588-12.852 6.08-19.926q-.054-.637-.68-.734c-7.841-1.242-19.915-1.156-22.874 7.279zm-31.266 15.487c10.93-.41 14.051-12.247 4.05-17.15-5.735-2.819-13.079-5.216-14.31-12.301-1.436-8.208 3.758-13.954 11.783-14.483q5.378-.356 10.573 1.782.14.054.151.194.14 1.469-.238 2.894a.227.227 0 0 1-.292.162q-1.858-.605-3.78-1.177c-5.681-1.685-14.958-.065-14.558 7.83q.335 6.502 6.674 9.148c5.659 2.354 13.943 6.059 13.921 13.122-.032 14.224-15.844 15.358-25.963 11.329a1.156 1.166 14.8 0 1-.713-1.242l.248-1.76a.626.626 0 0 1 .875-.486q5.227 2.376 11.578 2.138zm161.05-.086c10.67-.853 12.841-12.118 3.38-17.129-6.836-3.618-15.444-5.897-14.634-15.736.94-11.513 13.835-12.69 22.205-9.374q.702.27.616 1.026l-.248 2.192a.389.389 0 0 1-.551.302c-5.033-2.419-11.275-2.927-15.617.583-3.478 2.808-2.905 9.126-.205 11.977q2.268 2.408 6.124 3.974c6.404 2.57 13.316 6.545 12.139 14.515-1.858 12.56-16.826 12.701-26.32 8.986q-.292-.119-.259-.432l.248-3.046q.022-.27.27-.151 5.962 2.862 12.852 2.311zm-32.973-6.026q-1.015 1.285-2.03 2.689c-4.903 6.815-17.237 9.698-23.339 3.391q-4.18-4.309-4.406-9.979-.432-10.195-.194-32.843 0-.324.324-.324l3.164.011q.346.011.346.356-.043 14.796.022 29.246c.032 6.804 2.354 13.003 10.076 13.468 9.774.583 16.481-7.128 16.47-16.47q0-11.783 0-26.114a.454.454 0 0 1 .443-.454l2.938-.076a.421.41 89.3 0 1 .421.421l.011 44.896q0 .367-.367.367l-2.84-.032q-.356 0-.367-.356l-.108-8.014q-.011-.886-.562-.184zm118.26 5.14l6.016 11.545a.346.346 0 0 1-.41.497l-15.379-4.849a.346.346 0 0 0-.302.054l-11.448 8.338a.346.346 0 0 1-.551-.324l1.307-10.606a.346.346 0 0 0-.151-.335l-14.321-9.493a.346.346 0 0 1 .173-.626l15.736-.875a.346.346 0 0 0 .324-.281l2.192-12.992a.346.346 0 0 1 .616-.151l8.489 11.21a.346.346 0 0 0 .281.14l15.412-.097a.346.346 0 0 1 .238.605l-8.154 7.83a.346.346 0 0 0-.065.41zm-30.866 34.323l2.16-10.67a.367.367 0 0 1 .626-.173l8.316 9.277a.367.367 0 0 0 .27.119l11.783.248a.367.367 0 0 1 .238.637l-7.009 6.318a.367.367 0 0 0-.076.454l5.67 10.184a.367.367 0 0 1-.443.529l-13.597-4.504a.367.367 0 0 0-.324.043l-10.022 6.62a.367.367 0 0 1-.562-.378l1.588-8.078a.367.367 0 0 0-.162-.378l-12.733-8.554a.367.367 0 0 1 .194-.67l13.748-.734a.367.367 0 0 0 .335-.292z"/></g><path d="M143.733 356.82a1.998 1.998 0 0 0-2.884-1.296c-5.335 2.851-12.139 8.057-14.558 13.824a1.966 1.955 23.6 0 0 1.004 2.538c1.188.529 2.398 1.048 3.694 1.253q5.184.81 9.461 2.128c12.593 3.91-1.62 20.477-11.167 14.58-2.311-1.426-3.499-4.255-2.117-6.772q.529-.972 1.49-.41a.67.659 22.8 0 1 .313.745c-.248.907-.626 2.084-.076 2.938q1.458 2.279 4.493 1.944 6.534-.724 9.007-5.638 2.106-4.18-2.894-5.335-5.972-1.372-11.869-2.678c-6.448-1.426-3.607-8.219-.864-11.556q6.124-7.463 13.619-9.893c5.767-1.868 7.895 4.266 5.292 8.219a.724.734 29.8 0 1-.94.259c-1.944-.972-.605-3.208-1.004-4.849zm66.96 22.528q-.022-1.609-.907-.259c-2.344 3.596-10.033 14.58-14.699 10.832q-.605-.475-.551-1.253l.086-1.102q.054-.724-.648-.562c-4.601 1.102-5.422-5.454-5.648-8.651q-.076-1.134-.605-.13c-2.149 4.093-3.326 8.91-7.722 11.016a2.354 2.354 0 0 1-3.164-1.156q-.929-2.052-.648-4.32.994-7.852 3.618-15.12a.95.961 7.1 0 1 .788-.626q.994-.108 1.501.918a1.264 1.231 42.8 0 1 .054 1.004q-2.56 6.75-3.769 13.586-.259 1.501.097 3.1a.875.875 0 0 0 1.512.378q7.106-8.154 8.899-18.587.27-1.555 1.728-.961l.4.162q.713.292.551 1.048c-.886 4.007-1.804 12.344.41 15.962a1.339 1.339 0 0 0 1.89.41c1.922-1.307 2.095-2.7 2.992-4.622 2.3-4.914 6.124-11.34 11.524-13.241q.626-.216 1.242 0l1.458.529q.659.238.788-.454l2.246-12.42q.227-1.231 1.469-1.318.529-.032.929.302a1.188 1.188 0 0 1 .378 1.242q-3.499 12.161-3.964 24.106-.14 3.618.594 7.236.27 1.307 1.534.896l.907-.302q.659-.205.745.475.173 1.253-1.652 1.933a2.009 2.009 0 0 1-2.225-.583c-2.214-2.624-2.084-6.232-2.138-9.472zm-2.398-9.958c-4.763 1.922-10.865 13.273-12.02 18.047a.799.799 0 0 0 .745.983c2.603.119 7.657-5.778 9.612-8.122 2.711-3.24 4.514-5.346 4.32-9.212a1.933 1.933 0 0 0-2.657-1.696zm-39.539 16.093q-.259-1.523-.983-.151c-1.307 2.495-4.428 2.83-5.702.216q-.94-1.944-.875-4.05.076-2.138-1.156-.389c-2.246 3.197-6.134 7.906-9.839 9.212a2.354 2.365 77.3 0 1-3.132-1.976c-.648-6.253 9.277-21.492 15.52-22.918a2.236 2.225 75.8 0 1 2.646 1.577q.637 2.322-.605 4.18-.313.475-.032.972c.248.443.356 1.123.227 1.609q-1.447 5.594-1.08 10.649a1.069 1.069 0 0 0 1.372.961q.648-.184.896-.832.259-.68.983-.799l.605-.108q.594-.097.551-.68-.842-13.608 1.523-27.335a3.24 3.262 67.9 0 1 .594-1.393q.464-.626 1.242-.022a1.534 1.555 23.6 0 1 .562 1.469q-2.257 12.668-1.739 26.33c.086 2.214.734 8.489 4.45 6.48q.378-.205.529.205l.216.616a.68.691 61.4 0 1-.227.767c-3.337 2.506-6.07-1.825-6.545-4.59zm-6.188-13.176q.421-1.76.475-3.424.097-2.441-1.663-.745-8.024 7.744-12.442 18.133-.626 1.458.886 2.074a1.285 1.285 0 0 0 1.35-.248q5.94-5.508 9.871-11.977 1.004-1.652 1.523-3.812zm110.084-9.99q1.123.043 1.318 1.166.086.551-.173 1.112-2.7 5.702-2.981 13.468c-.097 2.7-.4 6.124 2.646 7.376a.875.886 45.3 0 1-.011 1.631c-3.37 1.372-4.806-5.994-4.795-7.744q.076-8.294 3.013-16.308.464-1.264-.518-.346l-5.346 5.033q-.745.702-1.566.097-.443-.335-.356-1.447a1.49 1.512 68.5 0 1 .389-.886c5.519-6.026 13.165-11.048 21.319-10.12 4.244.475 6.178 4.061 4.363 7.96q-1.48 3.164-4.028 5.227-2.149 1.728.572 1.274c3.802-.626 9.947.853 9.407 5.864-.378 3.532-2.916 6.091-5.454 8.456q-7.895 7.376-18.954 7.441c-4.558.022-7.085-3.596-3.791-7.29q.475-.518 1.08-.162.324.184.421.551.119.432-.108.821-.41.691-.68 1.415a1.49 1.501 11.7 0 0 1.328 2.03q12.668.54 21.913-9.536 1.804-1.966 2.279-3.996a1.447 1.447 0 0 0-.162-1.058c-2.948-4.892-13.856-.497-18.176 1.89a2.03 1.987 25.7 0 1-.67.227q-2.29.335-1.642-1.296a1.123 1.166 84.3 0 1 .486-.572c5.54-3.272 12.172-7.571 14.234-13.219.832-2.29-1.382-3.866-3.37-3.985q-5.918-.367-12.182 4.298-.799.594.194.626z" fill="#0060a1"/><path fill="#f9bd00" d="M456.295 368.289l1.458-9.731a.367.367 0 0 1 .659-.162l6.124 8.424a.367.367 0 0 0 .292.151l11.459-.097a.367.367 0 0 1 .248.648l-6.232 5.378a.367.367 0 0 0-.076.454l5.27 9.137a.367.367 0 0 1-.432.529l-12.571-3.877a.367.367 0 0 0-.335.065l-8.37 6.62a.367.367 0 0 1-.594-.335l.929-7.679a.367.367 0 0 0-.162-.356l-10.897-7.15a.367.367 0 0 1 .173-.67l12.722-1.037a.367.367 0 0 0 .335-.313z"/><g fill="#0060a1"><circle cx="301.499" cy="360.448" r="1.544"/><path d="M382.834 370.503q1.037-.367 2.095-.13 2.83.626 2.819 2.268-.011 2.106-1.426.529-.259-.281-.486-.583-.356-.475-.95-.421-1.361.13-2.776.853-.518.27-.562.853c-.281 3.812-.724 14.18 2.992 14.267q.918.022 1.393-.767.464-.767 1.264-.896a.659.659 0 0 1 .691.95q-.799 1.566-2.365 2.246c-3.607 1.588-5.767-3.337-6.134-6.102q-.572-4.396-.151-8.726.119-1.199-.842-.464l-2.473 1.89q-.821.637-1.318-.27-.173-.313-.13-.691.119-1.091 1.058-1.652l3.175-1.879q.648-.378.734-1.134l.875-7.56a1.048 1.058 79.4 0 1 .562-.81q.94-.486 1.717.043a1.004 1.004 0 0 1 .421.983l-1.037 6.491q-.173 1.08.853.713zm-144.169 34.549l-4.352-.184c-3.197-2.052-6.599-5.195-6.642-9.299q0-.788.788-.745.432.022.691.346.184.238.238.529c1.145 6.545 8.694 9.806 13.144 3.942 5.594-7.398 5.659-18.436 3.661-27.248q-.302-1.339-.702-.022c-1.544 5.162-4.298 12.917-9.202 15.271q-.518.259-1.048 0-2.246-1.069-2.128-3.694.432-9.288 4.201-17.939.464-1.08 1.631-.961.184.011.335.086 1.231.551.616 1.75-4.277 8.24-4.536 16.308-.14 4.18 2.246.745 4.309-6.188 6.728-13.543c.551-1.663.432-3.262.475-5.022q.011-.562.486-.864.54-.346 1.177-.14.464.14.67.583c1.166 2.592.81 5.767 1.555 8.532 2.43 9.018.961 27.756-10.033 31.568zm163.134-24.516c-2.819 3.607-6.167 7.992-10.433 9.806a2.117 2.128 75.3 0 1-2.938-1.717q-.4-3.715 1.382-7.247c3.056-6.08 7.247-12.474 13.154-15.779a2.3 2.311 60.5 0 1 3.132.864q1.35 2.398-.324 4.622-.335.443-.086.94l.151.313q.259.529.173 1.112c-.572 3.596-1.879 7.83-.864 11.34a.918.907 80.4 0 0 .918.659q.907-.032 1.134-.896a1.037 1.037 0 0 1 .637-.724l.54-.216q.572-.227.605-.842.313-7.376-.27-14.353a1.372 1.372 0 0 1 .335-1.004q.81-.907 1.501-.594 1.037.475.961 1.609-.13 1.836-.194 3.737-.011.335.173.583.443.594.605-.119c.659-2.873 3.553-9.083 7.484-7.312a2.668 2.635 89.1 0 1 1.318 1.296q.745 1.588-.259 2.16a.842.842 0 0 1-1.264-.745q.032-.983-.896-.95-.518.022-.875.389c-3.92 4.115-6.502 9.666-6.307 15.379q.086 2.581.108 5.141.011.443-.27.799-.637.821-1.674.572a.929.95 89.6 0 1-.702-.68q-.216-.842.011-1.696.432-1.62-.724-.41-.864.896-2.279.756c-2.938-.302-3.553-4.05-3.316-6.534q.119-1.253-.648-.259zm-11.664 6.836a1.058 1.058 0 0 0 1.652.886c3.078-2.084 5.216-4.979 7.56-7.927q2.376-3.002 3.272-4.936 1.307-2.862 1.62-7.322.054-.875-.691-.432c-4.558 2.668-13.349 15.325-13.414 19.732zm-79.607-8.38q-1.415-.497-1.652.983l-.788 5.152a1.836 1.847 13.4 0 0 1.242 2.02c4.849 1.598 10.206-5.411 12.064-9.31a.54.529 17.5 0 1 .583-.302l.41.065a.454.454 0 0 1 .356.572q-2.203 7.916-9.169 10.93-2.171.94-4.223.227c-4.385-1.512-3.737-7.441-2.344-10.886 1.868-4.633 4.763-9.731 8.975-12.496 2.419-1.598 4.558.637 4.255 3.046-.529 4.093-4.288 11.902-9.709 10.001zm2.776-2.333c2.084-1.048 4.828-5.065 4.936-7.97q.076-2.128-1.458-.648-2.808 2.7-5.249 6.642-2.57 4.169 1.771 1.976zm29.591 10.433q-.335-.616-.702-.022-1.598 2.56-3.715.734-2.009-1.728-2.452-5.108-.691-5.206-1.22-10.735-.184-1.901-1.339-.389-5.713 7.484-8.64 16.891a1.091 1.102 6.9 0 1-.961.767q-.529.032-1.004-.227a.497.497 0 0 1-.248-.497l2.203-17.323q.119-1.015 1.004-1.512.335-.194.626-.097 1.069.356.983 1.469-.27 3.91-1.501 7.754-.011.054.043.076l.292.108q.281.108.421-.162c1.663-3.391 3.931-7.528 6.988-9.958q.475-.378 1.037-.162 2.43.929 2.624 3.791.454 6.653 1.49 12.83.27 1.652 1.814.983l.432-.184q1.145-.497 1.015-1.739c-.518-5.27 5.702-17.388 11.178-18.878a2.225 2.214 73.9 0 1 2.711 1.501c1.231 4.115-3.802 14.364-9.115 11.988q-1.566-.702-1.847.994l-.842 5.054a1.89 1.89 0 0 0 1.382 2.138c4.838 1.274 10.066-5.389 11.686-8.932q.162-.356.443-.572.205-.162.486-.097.626.151.745-.486.076-.4-.054-.788a1.08 1.102 47.5 0 1 .043-.81c1.512-3.262 9.763-14.666 14.04-8.089a1.048 1.048 0 0 1-1.318 1.523l-1.771-.81q-.54-.248-1.069.011-4.817 2.333-7.214 6.89a1.404 1.404 0 0 0 1.037 2.041c2.668.4 6.124-.162 8.338 1.512 5.897 4.471-4.277 13.133-9.234 10.692-2.074-1.015-2.808-3.596-1.048-5.26q.324-.302.745-.281a.583.594 9.8 0 1 .529.756l-.389 1.307a1.145 1.145 0 0 0 1.21 1.469q4.072-.389 7.247-3.251a2.419 2.419 0 0 0 .108-3.499c-1.566-1.588-6.296-1.199-8.456-1.307a1.717 1.75 70.4 0 1-1.145-.529q-.389-.4-.918-.583a.594.583 16.5 0 0-.745.4q-1.339 4.687-5.53 8.402c-2.808 2.495-8.165 4.525-10.422.205zm10.303-20.034l-6.988 9.558a.13.13 0 0 0 .032.184l.022.011a3.035 4.612 36.2 0 0 5.173-1.922l1.696-2.322a3.035 4.612 36.2 0 0 .27-5.508l-.022-.022a.13.13 0 0 0-.184.022zm-50.608 21.071q1.145.335 1.771-.572.562-.81.745.151l.119.572q.097.54-.259.94c-2.484 2.754-5.076-.864-5.724-2.938q-2.257-7.322.788-16.675.292-.886 1.21-.929.216-.011.421.076 1.231.518.767 1.782-3.11 8.435-.81 16.621a1.415 1.415 0 0 0 .972.972z"/></g><path d="M452.883 402.741l4.19 8.618a.335.335 0 0 1-.41.464l-10.746-3.586a.335.335 0 0 0-.281.032l-7.83 5.044a.335.335 0 0 1-.518-.335l1.026-6.89a.335.335 0 0 0-.14-.324l-9.364-6.21a.335.335 0 0 1 .151-.605l11.081-1.231a.335.335 0 0 0 .302-.302l.842-7.916a.335.335 0 0 1 .594-.173l6.113 7.528a.335.335 0 0 0 .248.119l10.433.313a.335.335 0 0 1 .194.605l-5.789 4.439a.335.335 0 0 0-.097.41zm-218.571 2.128l4.352.184q67.144 2.398 100.872 2.138 20.272-.151 39.42-.972 10.897-.464 21.341-2.322.346-.065.443.281l.724 2.538a.335.346 77.4 0 1-.27.421q-12.949 2.041-26.816 2.581c-30.834 1.199-62.629.583-92.783-.184q-77.047-1.976-156.719-6.426-.464-.022-.41-.475l.227-2.128q.054-.605.67-.583zm-17.593 98.885c-65.923-9.05-124.956-43.61-165.801-95.709q-1.447-1.858.065-4.838.238-.486.648-.832 3.035-2.581 5.573.616c15.628 19.753 33.804 37.098 54.302 51.214q64.552 44.42 145.411 43.978 4.342-.022 3.985 4.255 0 .086-.022.184-.788 4.255-4.601 4.234-17.723-.097-39.56-3.1zm215.039-73.397l3.877 6.869q.464.832-.443.54l-10.152-3.24a1.922 1.901 35.4 0 0-1.706.281q-3.229 2.387-6.134 4.903-2.117 1.814-1.318-.853.788-2.646.832-5.249.011-.572-.464-.896l-8.834-5.897q-1.102-.724.205-.875l9.709-1.112q.637-.065.788-.702.94-3.964 1.22-7.484.065-.896.702-.27l6.664 6.631a1.642 1.631 68.5 0 0 1.058.464l8.467.302a.356.356 0 0 1 .248.594l-4.612 5.033q-.4.443-.108.961zm-25.456 20.228l3.359 6.955q.41.853-.486.562l-9.698-3.143a.842.853 35 0 0-.81.151l-5.53 4.644q-1.361 1.145-1.058-.605l.886-5.022a.821.81 22.7 0 0-.346-.821l-8.467-5.8q-.842-.583.184-.594l8.975-.13q.67-.011.788-.659l1.415-7.517q.14-.745.605-.14l4.633 6.145q.335.443.886.464l7.83.238q1.339.043.4.994l-3.424 3.445q-.367.367-.14.832zm-37.508 14.785l.972-6.415a.346.346 0 0 1 .583-.194l5.314 5.314a.346.346 0 0 0 .238.097l7.279.205a.346.346 0 0 1 .227.605l-4.482 3.974a.346.346 0 0 0-.054.454l3.337 4.979a.346.346 0 0 1-.4.518l-7.873-2.635a.346.346 0 0 0-.302.043l-7.074 4.849a.346.346 0 0 1-.529-.378l1.577-5.195a.346.346 0 0 0-.14-.389l-8.176-5.335a.346.346 0 0 1 .205-.637l8.942.443a.346.346 0 0 0 .356-.302zm-16.459 16.697l3.078 4.709q.734 1.123-.551.713l-7.333-2.322q-.734-.227-1.339.248-1.739 1.35-3.186 2.7-2.797 2.603-1.555-1.015.475-1.361.486-2.765 0-.529-.432-.832-2.786-1.966-5.843-3.737-1.523-.875.227-1.048l6.793-.67q.637-.065.745-.702.302-1.933.335-3.726.065-2.894 1.814-.583l2.732 3.618q.346.454.918.432l7.052-.194q.788-.022.216.529l-4.061 3.845q-.378.356-.097.799zm-24.354 9.31l2.873 4.504a.378.378 0 0 1-.432.562l-6.534-2.171a.378.378 0 0 0-.356.065l-4.439 3.499a.378.378 0 0 1-.616-.302l.065-4.147a.378.378 0 0 0-.162-.324l-5.778-4.028a.378.378 0 0 1 .205-.68l6.664-.227a.378.378 0 0 0 .356-.324l.767-5.378a.378.378 0 0 1 .68-.162l3.337 4.644a.378.378 0 0 0 .292.162l7.312.216a.378.378 0 0 1 .205.691l-4.32 2.884a.378.378 0 0 0-.119.518zm-30.197 1.361l.356-4.374q.076-.929.637-.194l2.981 3.856q.4.518 1.058.529l4.072.032q2.084.022.54 1.415l-2.149 1.955q-.518.475-.086 1.026l2.009 2.603q1.728 2.214-.864 1.145-2.117-.886-4.439-1.62-1.21-.378-2.063.551-1.166 1.253-2.743 2.225-.637.4-.508-.346l.54-2.959q.151-.875-.637-1.274-2.884-1.48-4.914-3.294-.54-.475.184-.486l5.26-.076q.702 0 .767-.713zm-21.74 3.996l.346-4.115q.086-1.004.616-.151l1.804 2.894q.324.529.94.583l4.514.41q.896.086.292.756l-2.138 2.344q-.389.432-.022.875l2.084 2.549q1.177 1.436-.594.886l-5.022-1.566q-.454-.151-.886.076-1.253.67-2.344 1.836-.346.378-.832.443-.67.086-.454-.551l.702-2.02a.767.767 0 0 0-.281-.886l-4.212-2.981q-.81-.572.173-.616l4.741-.216q.529-.022.572-.551z" fill="#f9bd00"/></svg>