<svg xmlns="http://www.w3.org/2000/svg" viewBox="0 20 512 75"><circle cx="17.518" cy="37.991" r="17.519" fill="#e09632"/><path fill="#e09632" d="M45.389 20.472c-4.247 0-7.963 1.593-11.149 3.982 2.92 3.716 4.778 8.493 4.778 13.537 0 5.043-1.858 9.82-4.778 13.537A17.519 17.519 0 1 0 45.39 20.472Z"/><path fill="#e09632" d="M73.26 20.472c-4.248 0-7.964 1.593-11.149 3.982 2.92 3.716 4.778 8.493 4.778 13.537 0 5.043-1.858 9.82-4.778 13.537a17.519 17.519 0 1 0 11.148-31.056Z"/><path fill="#6197fa" d="M86 20.472c5.309 3.982 9.025 10.352 9.025 17.519 0 7.166-3.45 13.537-9.025 17.518h33.976V20.472Zm46.45.53-2.123 8.76h22.031s1.593 0 1.062 2.124l-15.66 62.642h24.685l11.414-46.982s2.388-13.271 7.697-15.66c5.309-2.39 10.087-2.124 10.087-2.124h9.29l2.389-8.76zm39.285 73.26h13.803l7.432-9.555s6.636-7.432 13.271-8.228c6.636-.797 20.439-.531 20.439-.531l2.92-8.229h-19.377s-3.45.531-3.45-1.592c-.266-1.858 9.82-14.865 9.82-14.865l11.68-16.722s1.061-1.327 2.388-1.327c1.328 0 1.062 2.654 1.328 4.512.265 1.858 2.92 56.272 2.92 56.272H258l-4.512-73.26h-28.136zm152.359 0h13.803l7.432-9.555s6.636-7.432 13.271-8.228c6.636-.797 20.439-.531 20.439-.531l2.92-8.229h-19.377s-3.45.531-3.45-1.592c-.266-1.858 9.82-14.865 9.82-14.865l11.68-16.722s1.061-1.327 2.388-1.327 1.062 2.654 1.327 4.512c.266 1.858 2.92 56.272 2.92 56.272h23.093l-4.512-73.26h-28.136zm-45.39 0h27.606l44.327-73.26h-38.753l-2.123 7.698h7.166s6.636.531 8.229 3.451c1.327 2.92 2.389 6.37 0 10.883-2.39 4.512-22.297 38.753-22.828 39.815-.796 1.327-1.061 1.593-2.388 1.593-1.062 0-1.062-2.124-1.328-4.513-.265-1.327-5.043-58.926-5.043-58.926h-22.296Zm156.607-73.26-18.05 73.26h25.216s18.58-.796 29.198-5.308c10.618-4.512 30.79-13.006 37.957-31.852 7.167-18.58-3.45-29.729-11.679-33.71-8.228-3.982-32.383-2.655-32.383-2.655l-2.654 8.76s8.76-.797 14.068 2.389c4.778 2.92 9.025 8.228 8.494 16.722-.266 6.105-1.327 15.926-11.68 24.95-10.351 8.76-15.395 10.618-22.561 11.149-7.167.796-7.432-.796-6.636-4.247.796-3.45 14.599-59.988 14.599-59.988Z"/></svg>