<svg xmlns="http://www.w3.org/2000/svg" viewBox="0 0 850.4 363"><path fill="#94BB1E" d="M293.7 94.7c26.6-1.2 54-1.9 82.2-2.1 0 0 1.4.4 1.4 1.6v108.4H292V96.4c-.1-1.4 1.7-1.7 1.7-1.7M1.4 136.1c25.5-6.8 52.6-12.8 81.2-18.1.4-.1 1.3.3 1.3 1.3v37.3h23.6c37 0 59.9-15.8 61.9-50.2 0-1.1 1.4-1.7 1.4-1.7 26.1-3.1 53.2-5.6 81.2-7.5 0 0 1.4.3 1.4 1.5.1 1.5.1 2.9.1 4.4 0 29.8-9.8 58.7-27.5 72.7-23.9 19.1-46.3 26.9-108.9 26.9H0v-64.6c0-1.2.9-1.9 1.4-2M615 106.6c31.7 4.2 61.8 9.2 90.2 15 0 0 1.4.6 2 2l3.2 8.3 2.8-7.1c.4-1.2 1.9-1.2 1.9-1.2 24.8 5.3 48.2 11.3 70.3 17.8 0 0 1.1.8.7 1.8l-26.2 59.3H655.4L613.6 108c-.4-1 1.4-1.4 1.4-1.4m-230.1-14c33.4 0 65.7.8 96.9 2.3 0 0 .6.8.2 1.3l87.6 106.4H462.4l-80-108.4c1-1.3 2.5-1.6 2.5-1.6"/><path fill="#004941" d="M0 138.1V0h102.5c59.8 0 98.5 5.3 126.3 33.4 13.9 14.2 23.7 36.9 24.6 65.2-29 2-57.1 4.6-84 7.8.1-1.6.2-3.3.2-5.1 0-37.9-23.3-55.3-62-55.3H84v73.3c-29.7 5.5-57.7 11.7-84 18.8m382.4-43.9l73-94.2h105.2L482 96.2c-31.8-1.3-65.1-2-99.6-2M292 96.4V0h85.3v94.2c-29.3.2-57.8.9-85.3 2.2m421.2 28.5L762.4 0h87l-63.3 143.3c-22.8-6.8-47.1-12.9-72.9-18.4M613.6 108L565.9 0h94l47.3 123.6c-29.3-6.1-60.6-11.3-93.6-15.6"/><path fill="#94BB1E" d="M43.9 264.7c.9-1.7 1.3-3.4.7-3.9-4.4-3.7-12.5-5.7-19-5.7-12.5 0-23.1 8.2-23.1 22.3 0 23.9 35.4 19.6 35.4 39 0 8.3-7.2 12.8-16.3 12.8-4.8 0-11.6-2-16.6-5.5-.7-.4-2 .3-3.1 2.1l-.8 1.4c-1.3 2.4-1.4 3.9-.7 4.6 4.9 3.8 13.2 6.4 22.4 6.4 16.8 0 25.5-9.4 25.5-23.1 0-25.3-35.5-22.7-35.5-39.1 0-5.9 4.1-11.9 13.5-11.9 5.7 0 10.3 1.6 13.9 3.9.7.4 1.9 0 3.1-2.2l.6-1.1zm58.7 13c-3.3 0-3.9 0-4 1.3l-.6 4.7c-3.1-4-8.3-7.2-15-7.2-14.6 0-25.5 12.6-25.5 31.8 0 16.2 7.5 29.7 23.7 29.7 7.2 0 13.5-3.3 17.1-7.6l.7 5.2c.1 1 .8 1.3 4.2 1.3h.4c3.4 0 4-.4 4-1.3-.3-6.2-.8-13.5-.8-23.8v-15.7c0-7.2.2-14.4.2-17.1 0-.9-.1-1.3-4.3-1.3h-.1zM97 309.3c0 9.8-.4 12.9-2.8 15.5-3 3.3-7.4 4.4-11.1 4.4-11.4 0-15.1-10.8-15.1-21.3 0-13.5 6-22.1 16.2-22.1 5.2 0 10.2 3.6 12.8 7.6v15.9zm30.5-57.6c-3.8 0-4.9.3-4.8 1.5.5 4.4.7 18.9.7 30.7v37.5c0 5.9.4 9.6 1.9 11.8 2 3 5.1 3.8 8.2 3.8 1.7 0 3.7-.3 5.2-.9.7-.2.7-.7.7-3.6v-.3c0-2.6-.1-3-.7-3h-1.1c-3.7 0-4.2-1.5-4.2-5.6v-37.2c0-16.6-.1-30-.7-33.2-.2-1.1-1-1.5-4.5-1.5h-.7zm28.4 26c-4.2 0-4.4.6-4.4 1.3v34c0 9.1 1.6 14.9 5.4 19.1 3.7 3.9 8.8 5.9 14.7 5.9 8.2 0 14.3-2.7 18.4-7.3h.1l.2 4.8c0 .9.7 1.3 4.5 1.3h.4c4.2 0 4.5-.4 4.5-1.3 0-2.8-.2-10.7-.2-18.3v-38.3c0-.9-.8-1.3-4.5-1.3h-1c-3.8 0-4.4.6-4.4 1.3v27.7c0 12.3-1.2 15.7-3.5 18-2.7 2.6-7.8 4.1-12.1 4.1-4.5 0-7.9-1.4-9.9-3.8-2.4-3-2.8-7.6-2.8-16.5V279c0-.9-.4-1.3-4.6-1.3h-.8zm101.6-26c-3.8 0-4.8.3-4.8 1.5v27.2c-2.8-1.9-8-3.7-12.5-3.7-18.3 0-26.9 15.1-26.9 32 0 18.4 9.1 29.5 23.7 29.5 8 0 14.2-3.6 17-7.4h.1c1.3 4.4 4.3 6.5 7.6 6.5 1.9 0 3.3-.1 4.9-.7.7-.2 1-1 1-3.7v-.8c0-2.4-.3-3-1-3-3 0-3.9-.4-3.9-6.1v-69.8c0-1.1-1-1.5-4.5-1.5h-.7zm-4.8 57.9c0 9.4-.7 13.1-3.2 15.7-2.5 2.6-6.8 3.8-10.5 3.8-8.7 0-15.3-7.1-15.3-20.9 0-13.6 6.7-22.5 17.1-22.5 4.4 0 9.2 1.8 12 4.2v19.7zm60.5-30.6c-.3-.9-1.7-1.2-5.6-1.2-4.4 0-5.8.2-5.2 1.6l22.1 58.3c-4.7 12.7-9 16.7-16.3 16.7-2.2 0-4-.4-6-1-1.2-.3-1.6.1-2.4 2.8l-.4 1.3c-.7 2-.9 2.9.3 3.6 2.3 1.2 6 2 8.9 2 6.4 0 12-1.9 16.5-6.8 3.4-3.7 6.5-9.7 9.4-17.9l21-59c.4-1.2-.8-1.6-5.1-1.6-3.4 0-4.7.2-5 1.2l-9.9 28.7c-2.2 6.6-4.4 13.2-5.6 18.4-1.6-6.2-3.1-11.1-6.1-19.2L313.2 279zm89.2 34.6c0-6.5.1-12 .3-15.2.4-4.8 1.7-6.7 3-8.1 2.5-2.6 6.9-4.2 11-4.2 9.4 0 14.2 7 14.2 20.4s-6.2 22.8-18.9 22.8c-3.2 0-6.9-.8-9.7-1.9v-13.8zm-5.2-61.9c-4.4 0-4.8.4-4.8 1.3v80c0 .4.1 1 .3 1.1 5.1 2.4 11.6 3.9 20.2 3.9 18.8 0 28.4-12.4 28.4-32.3 0-6.4-1.2-12.2-3.3-16.8-3.5-7.6-10.2-12.3-19.1-12.3-6.5 0-13.3 2.8-16.5 6.6V253c0-.8-.1-1.3-4.5-1.3h-.7zm62.2 26c-4.4 0-4.8.5-4.8 1.3v56.6c0 .9.3 1.3 4.8 1.3h.7c4.4 0 4.5-.6 4.5-1.3V279c0-.8-.1-1.3-4.5-1.3h-.7zm-6.7-18.1c0 3.9 3.1 7.1 7 7.1s7-3.1 7-7.1c0-3.9-3.1-7.1-7-7.1s-7 3.1-7 7.1m74.7 51.4c.9 0 1.1-.7 1.1-4 0-6.6-1.1-12.8-3.7-18-3.7-7.4-10.4-12.3-20.3-12.3-16.4 0-26.6 13.2-26.6 32.1 0 18.1 9.2 29.4 27.2 29.4 7.4 0 14.4-1.8 20.1-5.2.9-.6 1-1.2-.2-4.2l-.5-1.4c-1.1-2.8-1.8-2.6-2.8-2.1-5.3 2.5-10 3.6-14.6 3.6-5.8 0-10.1-1.3-13.1-4-3.4-2.9-5.2-7.8-5.5-13.9h38.9zm-38.7-8.3c1.6-11.6 7.9-16.9 16-16.9 9.3 0 13.5 8.4 13.7 16.9h-29.7zm57.6-25c-4.2 0-4.5.5-4.5 1.3 0 2.8.2 10.7.2 18.3v38.3c0 .9.3 1.3 4.8 1.3h.7c4.4 0 4.5-.6 4.5-1.3v-22.1c0-6.5.1-12.2.3-15.4.4-4.8 1.7-6.7 3-8 2.7-2.6 7.7-4 11.8-4 4.9 0 8.4 1.1 10.5 3.7 2.7 3.1 3 7.4 3 16.5v29.3c0 .9.3 1.3 4.8 1.3h.7c4.4 0 4.5-.6 4.5-1.3v-34c0-9.1-1.7-14.9-5.6-19.1-3.7-3.8-9.1-5.9-15.2-5.9-6.9 0-14.2 2.9-18.1 7.5h-.1l-.1-5c0-1-.6-1.3-4.5-1.3h-.7zM652.6 311c.9 0 1.1-.7 1.1-4 0-6.6-1.1-12.8-3.7-18-3.7-7.4-10.4-12.3-20.3-12.3-16.4 0-26.6 13.2-26.6 32.1 0 18.1 9.2 29.4 27.2 29.4 7.4 0 14.4-1.8 20.1-5.2.9-.6 1-1.2-.2-4.2l-.5-1.4c-1.1-2.8-1.8-2.6-2.8-2.1-5.3 2.5-10 3.6-14.6 3.6-5.8 0-10.1-1.3-13.1-4-3.4-2.9-5.2-7.8-5.5-13.9h38.9zm-38.7-8.3c1.6-11.6 7.9-16.9 16-16.9 9.3 0 13.5 8.4 13.6 16.9h-29.6zm88.3-15.9c1.5-2.2 1.3-3.2.4-4-4.1-3.7-10.5-6.2-17.5-6.2-11.1 0-20.5 6.7-20.5 17.7 0 4.4 1.7 8.3 4.4 10.9 3 2.8 7.3 4.4 13.2 5.7 5.7 1.2 12.8 3.3 12.8 9.3 0 6.5-7.1 9.1-12.2 9.1-4.9 0-10.2-2-14.4-4.5-1.4-.9-1.9-.8-3.3 2.4l-.5 1.2c-1.2 2.6-1.6 3.2-.4 4 4.2 3 11.1 5.6 18.2 5.6 12.2 0 22.2-6.5 22.2-18.5 0-11.7-9.6-15-18.7-17.4-5.3-1.3-11.5-2.9-11.5-9 0-6.2 6.5-8 11.1-8 4.9 0 8.8 2 12.9 4.9.8.7 1.3.7 3.3-2.2l.5-1zm22.6-25.7c-4.4 0-4.8.4-4.8 1.3v15.3h-7c-.8 0-1 .6-1 3.5v.9c0 3 .2 3.6 1 3.6h7v33.9c0 7.5 1 11.8 4.2 14.8 2.4 2.4 6.1 3.7 11.1 3.7 4.1 0 8.9-1 11.6-2.8.9-.6.9-1.2.3-3.6l-.3-1.4c-.5-2.1-.9-2.6-2-2.2-2.2.7-5 1.5-7.5 1.5s-4.4-.7-5.7-2c-1.4-1.6-1.8-4.4-1.8-8.6v-33.1h14c.8 0 1-.6 1-3.6v-.9c0-2.9-.2-3.5-1-3.5h-14v-15.3c0-.8-.1-1.3-4.5-1.3h-.6zm74.9 16.6c-3.3 0-3.9 0-4 1.3l-.5 4.7c-3.1-4-8.3-7.2-15-7.2-14.6 0-25.5 12.6-25.5 31.8 0 16.2 7.5 29.7 23.7 29.7 7.2 0 13.5-3.3 17.1-7.6l.7 5.2c.1 1 .8 1.3 4.2 1.3h.4c3.4 0 4-.4 4-1.3-.3-6.2-.8-13.5-.8-23.8v-15.7c0-7.2.2-14.4.2-17.1 0-.9-.1-1.3-4.3-1.3h-.2zm-5.6 31.6c0 9.8-.4 12.9-2.8 15.5-3 3.3-7.4 4.4-11.1 4.4-11.4 0-15.1-10.8-15.1-21.3 0-13.5 6-22.1 16.2-22.1 5.2 0 10.2 3.6 12.8 7.6v15.9zm31.4-31.6c-4.2 0-4.5.5-4.5 1.3 0 2.8.2 10.7.2 18.3v38.3c0 .9.3 1.3 4.8 1.3h.7c4.4 0 4.5-.6 4.5-1.3v-12.9c0-6.5.1-13.5.3-16.6.2-3.9 1.1-7.1 2.7-9.7 3.2-5.3 7.2-10.2 15.1-10.2 1.1 0 1.2-.9 1.2-4.1v-1.7c0-2.6-.1-2.9-1.1-3.1-.6-.1-1.3-.2-2.3-.2-5.9 0-12 4.1-16.2 13.6l-.2-11.6c0-1-.5-1.3-4.5-1.3h-.7z"/></svg>