<svg xmlns="http://www.w3.org/2000/svg" viewBox="0 0 850.4 331.4"><path fill="#444242" fill-rule="evenodd" d="M331.6 259.1c-16.4 0-20.9 11.8-20.9 26.5s4.5 26.5 20.9 26.5c5.5 0 10.6-1.8 15.9-5.2l1.5 4.2h4v-76.5h-7.1v28.7c-4.4-2.9-9.6-4.2-14.3-4.2m0 6.3c6.6 0 10.3 1.1 14.3 3.3v33.9c-4 2.1-7.6 3.3-14.3 3.3-12.2 0-13.8-10.1-13.8-20.2 0-10.2 1.5-20.3 13.8-20.3M365.2 285.6c0 14.7 4.2 26.5 21.4 26.5 5 0 11.1-.5 16.8-3.1v-6c-5 2.1-9.5 2.9-16.8 2.9-11.5 0-13.9-8.1-14.3-16.9H406v-3.3c0-14.7-2-26.5-19.4-26.5-17.2-.1-21.4 11.7-21.4 26.4m21.4-20.2c11.7 0 12.2 8.6 12.2 17.6h-26.5c.4-9.1 2.5-17.6 14.3-17.6" clip-rule="evenodd"/><path fill="#444242" fill-rule="evenodd" d="M483.3 234.6l-21.7 65.9-21.7-65.9H432l27.1 77.5h5.1l27-77.5zM531 276.1v2.9l-13.5.8c-13.4.8-18.2 7.2-18.2 15.9 0 8.6 4.5 16.4 17.9 16.4 5.1 0 10.8-1.7 15.4-5.1l1.5 4.1h4v-34.9c0-10.2-4-17.1-19.3-17.1-4.9 0-10.8.8-15.3 2.7v6.1c4-1.3 8.5-2.6 15.3-2.6 9.5.1 12.2 3.4 12.2 10.8m0 7.9v17.7c-4.4 2.6-8.1 4.1-13.6 4.1-9.7 0-10.8-5.5-10.8-10.1 0-5.9 3.2-9.7 10.4-10.4l14-1.3zM564.2 312.1v-5.8c-3.2 0-4.3-1-4.3-4.6v-67.1H553v66.3c0 8.2 3.9 11.2 11.2 11.2M574.8 285.6c0 14.7 4.2 26.5 21.4 26.5 5 0 11.1-.5 16.8-3.1v-6c-5 2.1-9.5 2.9-16.8 2.9-11.5 0-13.9-8.1-14.3-16.9h33.7v-3.3c0-14.7-2-26.5-19.4-26.5-17.2-.1-21.4 11.7-21.4 26.4m21.4-20.2c11.7 0 12.2 8.6 12.2 17.6H582c.3-9.1 2.4-17.6 14.2-17.6" clip-rule="evenodd"/><path fill="#444242" fill-rule="evenodd" d="M659 311.1h7.1v-36.7c0-9.8-5.2-15.3-17.3-15.3-5.4 0-10.6 1.7-15.4 5.3l-1.5-4.3h-4v51h7.1v-42.4c3.8-2.1 7.1-3.3 13.8-3.3 6.3 0 10.2 2 10.2 8.7v37zM677.8 285.6c0 14.7 4.3 26.5 21.5 26.5 5 0 10.7-.6 15.2-2.6v-6.1c-4 1.3-8.1 2.3-15.3 2.3-12.9 0-14.3-10.1-14.3-20.2s1.4-20.2 14.3-20.2c7.2 0 11.3 1 15.3 2.3v-6.1c-4.5-1.9-10.2-2.5-15.2-2.5-17.2.1-21.5 11.9-21.5 26.6M738.6 312.1v-5.8c-3.2 0-4.3-1-4.3-4.6v-41.6h-6.9v40.8c0 8.2 3.9 11.2 11.2 11.2m-12.8-67.3c0 2.9 2.2 5.1 5.1 5.1 2.9 0 5.1-2.2 5.1-5.1 0-2.9-2.2-5.1-5.1-5.1-2.9 0-5.1 2.3-5.1 5.1" clip-rule="evenodd"/><path fill="#444242" fill-rule="evenodd" d="M780.3 276.1v2.9l-13.5.8c-13.4.8-18.2 7.2-18.2 15.9 0 8.6 4.5 16.4 17.9 16.4 5.1 0 10.8-1.7 15.4-5.1l1.5 4.1h4v-34.9c0-10.2-4-17.1-19.3-17.1-4.9 0-10.8.8-15.3 2.7v6.1c4-1.3 8.5-2.6 15.3-2.6 9.6.1 12.2 3.4 12.2 10.8m0 7.9v17.7c-4.4 2.6-8.1 4.1-13.6 4.1-9.7 0-10.8-5.5-10.8-10.1 0-5.9 3.2-9.7 10.4-10.4l14-1.3zM314.8 131.5h7.1V208h-7.1zM368.7 207.9h7.1v-36.7c0-9.8-5.2-15.3-17.3-15.3-5.4 0-10.6 1.7-15.4 5.3l-1.5-4.3h-4v51h7.1v-42.4c3.8-2.1 7.1-3.3 13.8-3.3 6.3 0 10.2 2 10.2 8.7v37zM414.5 202.8c-1.3.1-2.7.2-4 .2-6.4 0-9.8-2.6-9.8-8.8v-31.7h15.8V157h-15.8v-16.3l-7.1 2v13.8l-10.2 3v3.2h10.2v32.5c0 10 7.9 13.9 16.3 13.9 1.3 0 3.4-.1 4.6-.4v-5.9zM424.6 182.5c0 14.7 4.2 26.5 21.4 26.5 5 0 11.1-.5 16.8-3.1v-6.1c-5 2.1-9.5 2.9-16.8 2.9-11.5 0-13.9-8.1-14.3-16.9h33.7v-3.3c0-14.7-2-26.5-19.4-26.5-17.2-.1-21.4 11.8-21.4 26.5m21.4-20.2c11.7 0 12.2 8.6 12.2 17.6h-26.5c.3-9.2 2.5-17.6 14.3-17.6" clip-rule="evenodd"/><path fill="#444242" fill-rule="evenodd" d="M505.1 156.4c-1.9-.3-3.8-.5-6.1-.5-5.7 0-11.6 1.7-16.4 5.3L481 157h-4v51h7.1v-42.4c3.8-2.1 7.9-3.3 14.8-3.3 2.5 0 4.6.3 6.1.8v-6.7zM544.5 207.9h7.1v-36.7c0-9.8-5.2-15.3-17.3-15.3-5.4 0-10.6 1.7-15.4 5.3l-1.5-4.3h-4v51h7.1v-42.4c3.8-2.1 7.1-3.3 13.8-3.3 6.3 0 10.2 2 10.2 8.7v37zM593.9 173v2.9l-13.5.8c-13.4.8-18.2 7.2-18.2 15.9 0 8.6 4.5 16.4 17.9 16.4 5.1 0 10.8-1.7 15.4-5.1l1.5 4.1h4v-34.9c0-10.2-4-17.1-19.3-17.1-4.9 0-10.8.8-15.3 2.8v6.1c4-1.3 8.5-2.6 15.3-2.6 9.5 0 12.2 3.2 12.2 10.7m0 7.8v17.7c-4.4 2.6-8.1 4.1-13.6 4.1-9.7 0-10.8-5.5-10.8-10.1 0-5.9 3.2-9.7 10.4-10.4l14-1.3zM612.7 182.4c0 14.7 4.3 26.5 21.5 26.5 5 0 10.7-.6 15.2-2.5v-6.1c-4 1.3-8.1 2.3-15.3 2.3-12.8 0-14.3-10.1-14.3-20.2s1.4-20.2 14.3-20.2c7.2 0 11.3 1 15.3 2.3v-6.1c-4.5-1.9-10.2-2.5-15.2-2.5-17.3 0-21.5 11.9-21.5 26.5M672.8 209v-5.8c-3.2 0-4.3-1-4.3-4.6V157h-6.9v40.8c0 8.1 3.9 11.2 11.2 11.2M660 141.7c0 2.9 2.2 5.1 5.1 5.1 2.9 0 5.1-2.2 5.1-5.1 0-2.9-2.2-5.1-5.1-5.1-2.9 0-5.1 2.2-5.1 5.1M725.7 182.4c0-15.6-3.9-26.5-21.4-26.5-17.4 0-21.4 10.9-21.4 26.5s4 26.5 21.4 26.5c17.5.1 21.4-10.8 21.4-26.5m-7.2 0c0 11.5-1 20.2-14.3 20.2-13.5 0-14.3-8.7-14.3-20.2s.8-20.2 14.3-20.2c13.3.1 14.3 8.7 14.3 20.2" clip-rule="evenodd"/><path fill="#444242" fill-rule="evenodd" d="M768.4 207.9h7.1v-36.7c0-9.8-5.2-15.3-17.3-15.3-5.4 0-10.6 1.7-15.4 5.3l-1.5-4.3h-4v51h7.1v-42.4c3.8-2.1 7.1-3.3 13.8-3.3 6.3 0 10.2 2 10.2 8.7v37zM817.8 173v2.9l-13.5.8c-13.4.8-18.2 7.2-18.2 15.9 0 8.6 4.5 16.4 17.8 16.4 5.1 0 10.8-1.7 15.4-5.1l1.5 4.1h4v-34.9c0-10.2-4-17.1-19.3-17.1-4.9 0-10.8.8-15.3 2.8v6.1c4-1.3 8.5-2.6 15.3-2.6 9.6 0 12.3 3.2 12.3 10.7m0 7.8v17.7c-4.4 2.6-8.1 4.1-13.6 4.1-9.7 0-10.8-5.5-10.8-10.1 0-5.9 3.2-9.7 10.4-10.4l14-1.3zM850.4 209v-5.8c-3.2 0-4.3-1-4.3-4.6v-67.1h-6.9v66.3c0 8.1 3.9 11.2 11.2 11.2M337.7 106.2c11.6 0 28.5-4.6 28.5-25.6V28.3h-16.3v51.5c0 9.9-6.4 11.6-12.1 11.6s-12.1-1.7-12.1-11.6V28.3h-16.3v52.3c-.2 21 16.7 25.6 28.3 25.6" clip-rule="evenodd"/><path fill="#444242" fill-rule="evenodd" d="M376.8 53.8v51h16.3V68.3c1.5-1 5.1-2.7 9.1-2.7 4.4 0 5.7 2.5 5.7 6.3v32.8h16.3V69.5c0-9.8-4-17.1-17.8-17.1-5.6 0-12 1.6-17.7 5.1l-2-3.7h-9.9zM455.6 92c-3.3 0-4.2-1.1-4.2-3.1V53.8h-16.2v37.4c0 9.9 6.9 14.4 15.7 14.4 2.6 0 4.7-.4 4.7-.4V92zm-21.9-53c0 5.5 4.2 9.7 9.7 9.7 5.4 0 9.7-4.2 9.7-9.7 0-5.4-4.3-9.7-9.7-9.7-5.5 0-9.7 4.3-9.7 9.7" clip-rule="evenodd"/><path fill="#444242" fill-rule="evenodd" d="M493.5 105.6l19-51.8h-17l-9 31.6-9-31.6h-17l19 51.8zM563.3 84.7c1.3-16-.2-32.3-22-32.3-15.8 0-23.9 8.6-23.9 26.9 0 18.4 8.2 26.9 25 26.9 6.1 0 13.3-1.1 19.2-3.6V89.9c-3.7 1.8-9.4 3.4-17 3.4-8 0-11.4-1.9-11-8.6h29.7zm-21.8-20.1c6.2 0 7.4 4.5 6.5 10.1h-14.5c0-6.4 2.5-10.1 8-10.1" clip-rule="evenodd"/><path fill="#444242" fill-rule="evenodd" d="M605.3 53.1c-.7-.3-2.6-.7-4.6-.7-7.6 0-13.2 2.7-15.7 5.1l-2-3.7h-9.8v51h16.3v-36c1.3-1.2 5.8-3 10.8-3 2.1 0 4.2.2 5 .4V53.1zM650.9 55c-3.4-1.4-7.8-2.6-17-2.6-15.7 0-22.4 6.9-22.4 17.3 0 10.6 4.5 14.9 20.6 16.3 3.4.3 5.1.9 5.1 3.6 0 2.6-2.3 3.6-7.5 3.6-6.4 0-13.4-1.8-18.2-3.9V103c3.8 1.5 9.2 3.3 18.6 3.3 17.2 0 23.1-7.5 23.1-17.3 0-10.6-4.5-14.9-20.6-16.3-3.4-.3-5.1-.9-5.1-3.6 0-2.5 2.6-3.6 7.1-3.6 5.9 0 11.7 1.3 16.4 3.3V55zM683.4 92c-3.3 0-4.2-1.1-4.2-3.1V53.8H663v37.4c0 9.9 6.9 14.4 15.7 14.4 2.6 0 4.7-.4 4.7-.4V92zm-21.9-53c0 5.5 4.2 9.7 9.7 9.7 5.4 0 9.7-4.2 9.7-9.7 0-5.4-4.3-9.7-9.7-9.7-5.5 0-9.7 4.3-9.7 9.7" clip-rule="evenodd"/><path fill="#444242" fill-rule="evenodd" d="M739.2 104.8V28.3h-16.3v27.3c-3.1-1.8-7.1-3.3-12.7-3.3-13.3 0-19.8 8.2-19.8 26.9 0 18.8 6.5 26.9 19.8 26.9 8.2 0 13-2.4 16.5-5.5l2.8 4.1h9.7zm-16.3-14s-3.2 2.1-7.2 2.1c-7.5 0-9.2-4.9-9.2-13.7 0-8.7 1.6-13.7 9.2-13.7 4.1 0 7.2 2.1 7.2 2.1v23.2zM776.6 72.3l-9.3.9c-9.2.9-19.3 3-19.3 16.7 0 7.6 4.4 16.2 17.3 16.2 6.1 0 11.3-2 15-5.3l2.2 3.9h9.8V71.6c0-11.4-3.5-19.3-21.8-19.3-7.2 0-14.9 1.8-18.4 3.4v13.7c4.5-1.9 11.9-3.9 18.4-3.9 4.4 0 6 1.2 6 3.6v3.2zm0 8.9v11.3c-1.6 1.6-4.4 2.4-7.3 2.4-3.5 0-5.9-2.2-5.9-6 0-4 1.8-6.2 6.4-6.8l6.8-.9zM849.7 104.8V28.3h-16.3v27.3c-3.1-1.8-7.1-3.3-12.7-3.3-13.3 0-19.8 8.2-19.8 26.9 0 18.8 6.5 26.9 19.8 26.9 8.2 0 13-2.4 16.5-5.5l2.8 4.1h9.7zm-16.3-14s-3.2 2.1-7.2 2.1c-7.5 0-9.2-4.9-9.2-13.7 0-8.7 1.6-13.7 9.2-13.7 4.1 0 7.2 2.1 7.2 2.1v23.2z" clip-rule="evenodd"/><path fill="#444242" d="M249.9 0h2.8v331.4h-2.8z"/><path fill="#CC6502" fill-rule="evenodd" d="M49.3 105.9l28.3-77.3H52.2L38.8 75.7 25.4 28.6H0l28.3 77.3zM193.3 104.7V28.6H169V83c-2.3 1.5-7.6 4-13.6 4-6.5 0-8.5-3.8-8.5-9.4v-49h-24.4v52.7c0 14.6 5.9 25.6 26.6 25.6 8.4 0 18-2.4 26.5-7.6l3 5.5h14.7zM115.2 85.6c-4.9 0-6.2-1.7-6.2-4.6V28.6H84.8v55.9c0 14.8 10.3 21.5 23.4 21.5 3.8 0 7-.6 7-.6V85.6zM84.8 0H109v19.3H84.8z" clip-rule="evenodd"/></svg>