<svg xmlns="http://www.w3.org/2000/svg" viewBox="0 0 850.4 225.4"><path fill="#767579" d="M616 225.4V0h234.4v225.4"/><path fill="#931D2F" d="M0 225.4V0h616v225.4"/><path fill="#fff" d="M460.7 121.8V98.7h-6.8v22.9c0 4.1-2.4 6.5-6.1 6.5-3.7 0-6.1-2.4-6.1-6.5V98.7h-6.9v23.1c0 7.5 5.7 12.4 13 12.4 7.2 0 12.9-4.9 12.9-12.4m34.6 12.4l-7.9-15.3c3.5-1.3 6.5-4.3 6.5-9.3 0-5.9-4.3-10.9-11.5-10.9h-13.9v35.5h6.9V120h5l6.9 14.2h8zm-8.4-24.6c0 2.7-2 4.7-5 4.7h-6.5v-9.4h6.5c3 0 5 1.9 5 4.7m38.7 13.6h-6.9c-.7 2.8-2.5 5-5.9 5-1.9 0-3.4-.7-4.4-1.8-1.3-1.5-1.7-3.1-1.7-9.9 0-6.7.4-8.4 1.7-9.9 1-1.1 2.5-1.8 4.4-1.8 3.4 0 5.2 2.2 5.9 5h6.9c-1.2-7.3-6.3-11-12.9-11-3.8 0-7 1.4-9.4 3.8-3.5 3.5-3.4 7.9-3.4 13.9s-.1 10.4 3.4 13.9c2.4 2.5 5.6 3.8 9.4 3.8 6.6 0 11.7-3.7 12.9-11m13.5-24.5h-6.9v35.5h6.9V98.7zm36.3 35.5l-13-35.5H557l-13 35.5h7.2l2.1-6.3h12.6l2.1 6.3h7.4zm-11.2-12.1h-8.8l4.5-12.9 4.3 12.9zm-137.5 12.1V98.7h-6.8l-9.2 19.2-9.3-19.2h-6.8v35.5h6.9v-20.7l6.8 13.5h4.7l6.8-13.5v20.7h6.9zM553.7 52.7v28h21.7v-3.3h-17.9V64.7h15.3v-3.3h-15.3v-8.7h-3.8zm-33 0v28h12c3.7 0 6.7-1.1 8.8-3.2 3.6-3.6 3.4-9.8 3.4-14.6 0-3.4.1-7-1.1-10.1h-4.1c1.6 2.6 1.5 6.4 1.5 10.1 0 4.3.1 9.5-2.3 12-1.8 1.9-4.2 2.5-6.9 2.5h-7.6V52.7h-3.7zm-45.2 0v28h12c3.6 0 6.7-1.1 8.8-3.2 3.6-3.6 3.4-9.8 3.4-14.6 0-3.4.1-7-1.1-10.1h-4.1c1.6 2.6 1.5 6.4 1.5 10.1 0 4.3.1 9.5-2.3 12-1.8 1.9-4.2 2.5-6.9 2.5h-7.6V52.7h-3.7zm-24.2 0l-10.3 28h4l2.8-7.9h15.3l2.8 7.9h4l-10.3-28h-3.5l5.9 16.8h-13l6-16.8h-3.7zm-38.3 0v28h12c3.6 0 6.7-1.1 8.8-3.2 3.6-3.6 3.4-9.8 3.4-14.6 0-3.4.1-7-1.1-10.1H432c1.6 2.6 1.5 6.4 1.5 10.1 0 4.3.1 9.5-2.3 12-1.8 1.9-4.2 2.5-6.9 2.5h-7.6V52.7H413zm-13.9 27.9h3.7v-28h-3.7v28zm-30.6-27.9c-.2.8-.3 1.7-.3 2.6 0 2.8.9 5 2.6 6.5 1.5 1.3 3.7 2.2 6.4 2.7l4.1.6c2.5.4 3.4.7 4.6 1.7 1.1 1 1.7 2.5 1.7 4.4 0 4.1-3.1 6.5-8.3 6.5-3.9 0-6.6-.9-9.5-3.8l-2.6 2.5c3.3 3.3 6.7 4.6 12 4.6 7.3 0 12.1-3.8 12.1-9.9 0-2.9-1-5.3-2.9-6.9-1.5-1.3-3.1-2-6.4-2.5l-3.8-.6c-1.8-.3-3.6-1-4.7-1.9-1.1-.9-1.6-2.3-1.6-4 0-.9.1-1.7.4-2.5h-3.8zm-30.4 0v28h3.7V65.1h8.4l8 15.5h4.4l-8.3-15.8c4.5-.9 7.6-4.3 7.6-9.4 0-1-.1-1.9-.3-2.7h-3.9c.3.8.5 1.7.5 2.8 0 4.3-2.9 6.4-7 6.4h-9.3v-9.2h-3.8zm-29.4 0v28h21.7v-3.3h-17.9V64.7h15.3v-3.3h-15.3v-8.7h-3.8zm-29.2 0l9.2 28h3l9.2-28H297L290.3 74l-6.8-21.3h-4zm-11.4 27.9h3.7v-28h-3.7v28zm-32.2-27.9l18.5 28h3.5v-28h-3.7v21l-13.9-21h-4.4zm-3.7 27.9h3.7v-28h-3.7v28zm-34-27.9v16.4c0 7 5.1 11.8 12.2 11.8s12.2-4.9 12.2-11.8V52.7h-3.7v16.2c0 5.3-3.4 8.8-8.5 8.8s-8.4-3.5-8.4-8.8V52.7h-3.8zM557.4 52.7V49h17.9v-3.3h-21.7v7h3.8zm-33 0V49h7.6c2.7 0 5.1.7 6.9 2.6.3.3.6.7.8 1.1h4.1c-.5-1.4-1.3-2.6-2.4-3.7-2.1-2.1-5.2-3.2-8.8-3.2h-12v7h3.8zm-45.2 0V49h7.6c2.7 0 5.1.7 6.9 2.6.3.3.6.7.8 1.1h4.1c-.5-1.4-1.2-2.6-2.3-3.7-2.1-2.1-5.2-3.2-8.8-3.2h-12v7h3.7zm-24.3 0l.6-1.6.6 1.6h3.5l-2.5-7H454l-2.6 7h3.5zm-38.2 0V49h7.6c2.7 0 5.1.7 6.9 2.6.3.3.6.7.8 1.1h4.1c-.5-1.4-1.3-2.6-2.4-3.7-2.1-2.1-5.2-3.2-8.8-3.2h-12v7h3.8zm-13.8-7h-3.7v7h3.7v-7zm-30.6 7c.9-2.5 3.4-4 7-4 3.7 0 6 1 8.1 3l2.4-2.4c-3-2.7-5.9-3.8-10.4-3.8-5.8 0-9.8 2.8-10.9 7.2h3.8zm-30.4 0V49h9.3c3 0 5.4 1.2 6.4 3.6h3.9c-1.1-4.4-4.9-7-10-7h-13.4v7h3.8zm-29.5 0V49h17.9v-3.3h-21.7v7h3.8zm-11.4 0l2.3-7h-3.9l-2.2 7h3.8zm-17.6 0l-2.2-7h-3.9l2.3 7h3.8zm-11.6-7h-3.7v7h3.7v-7zm-13.8 0h-3.7v7h3.7v-7zm-22.1 7h4.4l-4.6-7h-3.5v7h3.7zm-13.3-7h-3.7v7h3.7v-7zm-20.7 0h-3.7v7h3.7v-7zM741.8 115.7c0 .1.1.2.1.4 0 .4-.2.6-.2 1 0 .3-.1.7.1.8.6-.8.8-1.2 1.5-1.7v.4l-2.1 2.5c0-1.2.1-2.1.4-3l.2-.4z"/><path fill="none" stroke="#fff" stroke-width=".099" stroke-miterlimit="3.864" d="M741.8 115.7c0 .1.1.2.1.4 0 .4-.2.6-.2 1 0 .3-.1.7.1.8.6-.8.8-1.2 1.5-1.7v.4l-2.1 2.5c0-1.2.1-2.1.4-3l.2-.4z" stroke-linecap="round" stroke-linejoin="round"/><path fill="#fff" d="M744.8 116.3h.3c0 .4-.2.4-.3.6-.6.9-.8 1.9-1.6 2.6 0 0-.1-.1-.1-.2 0-.2.4-.4.5-.6.6-1.2.6-1.4 1.2-2.4"/><path fill="none" stroke="#fff" stroke-width=".099" stroke-miterlimit="3.864" d="M744.8 116.3h.3c0 .4-.2.4-.3.6-.6.9-.8 1.9-1.6 2.6 0 0-.1-.1-.1-.2 0-.2.4-.4.5-.6.6-1.2.6-1.4 1.2-2.4z" stroke-linecap="round" stroke-linejoin="round"/><path fill="#fff" d="M746.1 117l.2.4c-.5 1.4-1.3 2-1.5 2.9h-.2c-.1 0-.2-.2-.3-.3.8-.5.9-1.8 1.6-2.8l.2-.2z"/><path fill="none" stroke="#fff" stroke-width=".099" stroke-miterlimit="3.864" d="M746.1 117l.2.4c-.5 1.4-1.3 2-1.5 2.9h-.2c-.1 0-.2-.2-.3-.3.8-.5.9-1.8 1.6-2.8l.2-.2z" stroke-linecap="round" stroke-linejoin="round"/><path fill="#fff" d="M741.2 122.7h.3v-.5c-.2.1-.3.2-.3.5zm-1.3 1l2.3-2.7.1.2-.8 3.1c-.1-.2-.2-.3-.2-.5l.1-.5-.2-.3h-.4c-.4.2-.5.8-.9.7"/><path fill="none" stroke="#fff" stroke-width=".099" stroke-miterlimit="3.864" d="M741.2 122.7h.3v-.5c-.2.1-.3.2-.3.5zm-1.3 1l2.3-2.7.1.2-.8 3.1c-.1-.2-.2-.3-.2-.5l.1-.5-.2-.3h-.4c-.4.2-.5.8-.9.7z" stroke-linecap="round" stroke-linejoin="round"/><path fill="#fff" d="M739.2 122.1c-.1 0 0-.2 0-.4.1-.2.8-.8.8-.8h.3v.6c-.4.8-.4.6-1.1.6m-1.2 1.3l.4-.7c.3-.7 1-2.2 1.7-2.2.4 0 .7.5.7.9s-.5.7-.9 1c-.2.1-.5-.1-.5-.1-.8.3-.9.6-1.2 1.2l-.2-.1z"/><path fill="none" stroke="#fff" stroke-width=".099" stroke-miterlimit="3.864" d="M739.2 122.1c-.1 0 0-.2 0-.4.1-.2.8-.8.8-.8h.3v.6c-.4.8-.4.6-1.1.6zm-1.2 1.3l.4-.7c.3-.7 1-2.2 1.7-2.2.4 0 .7.5.7.9s-.5.7-.9 1c-.2.1-.5-.1-.5-.1-.8.3-.9.6-1.2 1.2l-.2-.1z" stroke-linecap="round" stroke-linejoin="round"/><path fill="#fff" d="M743.7 122.3c-.3.4-.4.5-.6 1 0 0 .1.1.2.1.8-.2.5-.4.5-1.1h-.1zm-.2-.7l-1.6 3.2c.4-.3.4-1 .8-1h.3v.6l-.3.9c0 .1 0 .2 0 .4l.1.2c.1-1 .7-1.2.7-1.8.3 0 .5-.4.7-.9.4-1-.3-1.4-.7-1.6"/><path fill="none" stroke="#fff" stroke-width=".099" stroke-miterlimit="3.864" d="M743.7 122.3c-.3.4-.4.5-.6 1 0 0 .1.1.2.1.8-.2.5-.4.5-1.1h-.1zm-.2-.7l-1.6 3.2c.4-.3.4-1 .8-1h.3v.6l-.3.9c0 .1 0 .2 0 .4l.1.2c.1-1 .7-1.2.7-1.8.3 0 .5-.4.7-.9.4-1-.3-1.4-.7-1.6z" stroke-linecap="round" stroke-linejoin="round"/><path fill="#fff" d="M749.8 119.6c-.3-.1-.5-.2-.6-.4.9.1 1.7.5 1.8 1.3-.4-.1-.5-.5-.8-.5-.1 0-.2.4-.3.5-.6.7-.8 1.6-1.4 2.1v-.4l1.3-2.5v-.1z"/><path fill="none" stroke="#fff" stroke-width=".099" stroke-miterlimit="3.864" d="M749.8 119.6c-.3-.1-.5-.2-.6-.4.9.1 1.7.5 1.8 1.3-.4-.1-.5-.5-.8-.5-.1 0-.2.4-.3.5-.6.7-.8 1.6-1.4 2.1v-.4l1.3-2.5v-.1z" stroke-linecap="round" stroke-linejoin="round"/><path fill="#fff" d="M752 120.9c.1 0 .2.3.2.4 0 .2 0 .4-.1.5-.8.9-1.2 2.5-1.5 2.4l1.4-3.3z"/><path fill="none" stroke="#fff" stroke-width=".099" stroke-miterlimit="3.864" d="M752 120.9c.1 0 .2.3.2.4 0 .2 0 .4-.1.5-.8.9-1.2 2.5-1.5 2.4l1.4-3.3z" stroke-linecap="round" stroke-linejoin="round"/><path fill="#fff" d="M747.5 124.3c0-.1-.2-.2-.3-.2-.1 0-.3.2-.3.3-.3.6-.9 1.3-.9 1.9v.3h.4c.9 0 1.2-1.1 1.2-2.1l-.1-.2zm-.7-1c-.5 1.5-1.2 2.7-1.8 3.4.1 0 .5-.1.6-.1.4 0 .5.5.9.4.7-.1 1.5-1.4 1.5-2.5.1-.6-.8-1.1-1.2-1.2"/><path fill="none" stroke="#fff" stroke-width=".099" stroke-miterlimit="3.864" d="M747.5 124.3c0-.1-.2-.2-.3-.2-.1 0-.3.2-.3.3-.3.6-.9 1.3-.9 1.9v.3h.4c.9 0 1.2-1.1 1.2-2.1l-.1-.2zm-.7-1c-.5 1.5-1.2 2.7-1.8 3.4.1 0 .5-.1.6-.1.4 0 .5.5.9.4.7-.1 1.5-1.4 1.5-2.5.1-.6-.8-1.1-1.2-1.2z" stroke-linecap="round" stroke-linejoin="round"/><path fill="#fff" d="M749 125.9h-.2v.5h.2v-.5zm-1.9 1.7c.9-.9 1.5-1.7 2.3-2.8.1 0 .1.2.2.3l-1 3.7-.2-.5.2-.9c-.1-.4-.2-.6-.5-.6l-.8.9-.2-.1z"/><path fill="none" stroke="#fff" stroke-width=".099" stroke-miterlimit="3.864" d="M749 125.9h-.2v.5h.2v-.5zm-1.9 1.7c.9-.9 1.5-1.7 2.3-2.8.1 0 .1.2.2.3l-1 3.7-.2-.5.2-.9c-.1-.4-.2-.6-.5-.6l-.8.9-.2-.1z" stroke-linecap="round" stroke-linejoin="round"/><path fill="#fff" d="M751.3 126.6c0-.1.2-.1.2-.2 0-.2-.3-.7-.5-.7-.7.1-.9.7-.9 1.3 0 .5.3.9.3 1.4 0 .5-.3 1.1-.6 1.1-.5 0-.4-.7-.4-1.2-.3.1-.4.4-.4.6 0 .7.4.9 1 .8.5-.1.7-1.1.7-1.4l-.1-1.7c0-.3.1-.5.4-.5.2-.2.3.4.3.5"/><path fill="none" stroke="#fff" stroke-width=".099" stroke-miterlimit="3.864" d="M751.3 126.6c0-.1.2-.1.2-.2 0-.2-.3-.7-.5-.7-.7.1-.9.7-.9 1.3 0 .5.3.9.3 1.4 0 .5-.3 1.1-.6 1.1-.5 0-.4-.7-.4-1.2-.3.1-.4.4-.4.6 0 .7.4.9 1 .8.5-.1.7-1.1.7-1.4l-.1-1.7c0-.3.1-.5.4-.5.2-.2.3.4.3.5z" stroke-linecap="round" stroke-linejoin="round"/><path fill="#fff" d="M755.6 136.9c0-.1.1-.2.2-.2s.2.1.2.2-.1.2-.2.2-.2-.1-.2-.2"/><path fill="none" stroke="#fff" stroke-width=".099" stroke-miterlimit="3.864" d="M755.6 136.9c0-.1.1-.2.2-.2s.2.1.2.2-.1.2-.2.2-.2-.1-.2-.2z" stroke-linecap="round" stroke-linejoin="round"/><path fill="#fff" d="M757.7 133.9l.4-.2c.5.3 1 .6 1.4.8l.5-.1c0-.1.1-.2.1-.4s-.1-.3-.2-.5c-.2.1-.3.6-.5.6-.4 0-.6-.5-.7-.7-.5-.7-1.2-.8-2-.8-.5 0-.8.4-.9.9 1.5.5 2.1 1.6 3.4 2.1-.5-.7-1-.9-1.5-1.5-1-1-1.4-.3-1.6-1l.7-.2c.2 0 .9.2.9 1"/><path fill="none" stroke="#fff" stroke-width=".099" stroke-miterlimit="3.864" d="M757.7 133.9l.4-.2c.5.3 1 .6 1.4.8l.5-.1c0-.1.1-.2.1-.4s-.1-.3-.2-.5c-.2.1-.3.6-.5.6-.4 0-.6-.5-.7-.7-.5-.7-1.2-.8-2-.8-.5 0-.8.4-.9.9 1.5.5 2.1 1.6 3.4 2.1-.5-.7-1-.9-1.5-1.5-1-1-1.4-.3-1.6-1l.7-.2c.2 0 .9.2.9 1z" stroke-linecap="round" stroke-linejoin="round"/><path fill="#fff" d="M760.6 131v-.2l.3-.2c.1.4.5.8.9 1.3.1.1-.8.8-.9 1.1-.6-.6-1.6-1.7-2.5-2.1-.4-.2-.6-.3-.8-.6h.3c2 .4 1.9 1.5 2.9 2.2.2-.2.4-.2.4-.4l-.5-.9-.1-.2z"/><path fill="none" stroke="#fff" stroke-width=".099" stroke-miterlimit="3.864" d="M760.6 131v-.2l.3-.2c.1.4.5.8.9 1.3.1.1-.8.8-.9 1.1-.6-.6-1.6-1.7-2.5-2.1-.4-.2-.6-.3-.8-.6h.3c2 .4 1.9 1.5 2.9 2.2.2-.2.4-.2.4-.4l-.5-.9-.1-.2z" stroke-linecap="round" stroke-linejoin="round"/><path fill="#fff" d="M760.6 128.1c.2-.6.7-1 1.2-1.1.5-.1.8 1.1 1 1.2.2.1.5 0 .5.2 0 .3-.4.4-.7.4-.1 0-.2-.2-.2-.4-.1-.8-.4-1.1-.9-1.1-.3 0-.3.4-.3.6 0 .5.6.8.8 1 .5.5.8 1.4 1 2.2-.7-1.1-1.1-2.1-2.2-2.9l-.2-.1z"/><path fill="none" stroke="#fff" stroke-width=".099" stroke-miterlimit="3.864" d="M760.6 128.1c.2-.6.7-1 1.2-1.1.5-.1.8 1.1 1 1.2.2.1.5 0 .5.2 0 .3-.4.4-.7.4-.1 0-.2-.2-.2-.4-.1-.8-.4-1.1-.9-1.1-.3 0-.3.4-.3.6 0 .5.6.8.8 1 .5.5.8 1.4 1 2.2-.7-1.1-1.1-2.1-2.2-2.9l-.2-.1z" stroke-linecap="round" stroke-linejoin="round"/><path fill="#fff" d="M767.9 125.6c0-.1 0-.3.1-.4l.5.2 1-.4c.4.5.7.9.7 1.6l-.2 1.2c0 .4.4 1 .4 1.2l-.4.1c-.5-.3-.5-.7-.5-1.3l.2-1.1.1-.9-.5-.6c-.7.2-.8.4-.8.9l.3 1.7-.3 1c-.5-.2-.1-.8-.3-1.4l-.3-1.8z"/><path fill="none" stroke="#fff" stroke-width=".099" stroke-miterlimit="3.864" d="M767.9 125.6c0-.1 0-.3.1-.4l.5.2 1-.4c.4.5.7.9.7 1.6l-.2 1.2c0 .4.4 1 .4 1.2l-.4.1c-.5-.3-.5-.7-.5-1.3l.2-1.1.1-.9-.5-.6c-.7.2-.8.4-.8.9l.3 1.7-.3 1c-.5-.2-.1-.8-.3-1.4l-.3-1.8z" stroke-linecap="round" stroke-linejoin="round"/><path fill="#fff" d="M773.3 126.2h.4v-.4c-.1-.4-.4-.9-.7-.8-.6.2-.9 1-.9 1.6 0 .5 1 .4.8 1.2-.1.4-.3 1-.5 1-.3 0-.2-.5-.3-.7-.1 0-.3.3-.3.4 0 .4.3.7.4.7.5 0 1.2-1.4 1.2-1.9 0-.6-1-.6-.9-1.3 0-.2.2-.6.4-.6.3 0 .4.4.4.7v.1z"/><path fill="none" stroke="#fff" stroke-width=".099" stroke-miterlimit="3.864" d="M773.3 126.2h.4v-.4c-.1-.4-.4-.9-.7-.8-.6.2-.9 1-.9 1.6 0 .5 1 .4.8 1.2-.1.4-.3 1-.5 1-.3 0-.2-.5-.3-.7-.1 0-.3.3-.3.4 0 .4.3.7.4.7.5 0 1.2-1.4 1.2-1.9 0-.6-1-.6-.9-1.3 0-.2.2-.6.4-.6.3 0 .4.4.4.7v.1z" stroke-linecap="round" stroke-linejoin="round"/><path fill="#fff" d="M765.1 125.8c-.6.2-.7.9-.7 1.5 0 .8 1 2.3 1.5 2.3.1 0 .1-.1.1-.2 0-.3-.4-.4-.5-.7-.4-.7-.6-1.2-.6-2.1v-.6l.2-.2z"/><path fill="none" stroke="#fff" stroke-width=".099" stroke-miterlimit="3.864" d="M765.1 125.8c-.6.2-.7.9-.7 1.5 0 .8 1 2.3 1.5 2.3.1 0 .1-.1.1-.2 0-.3-.4-.4-.5-.7-.4-.7-.6-1.2-.6-2.1v-.6l.2-.2z" stroke-linecap="round" stroke-linejoin="round"/><path fill="#fff" d="M765.6 125.6c1 .5 1.3 1.4 1.4 2.6.1.7-.1.9-.4 1.2-.2-.4 0-.8-.1-1.6-.1-.9-.5-1.4-.9-2.2"/><path fill="none" stroke="#fff" stroke-width=".099" stroke-miterlimit="3.864" d="M765.6 125.6c1 .5 1.3 1.4 1.4 2.6.1.7-.1.9-.4 1.2-.2-.4 0-.8-.1-1.6-.1-.9-.5-1.4-.9-2.2z" stroke-linecap="round" stroke-linejoin="round"/><path fill="#fff" d="M775.5 127c-.6.6-1.1 2.2-.8 2.6 0 0 .2.3.2.3.2-.2.1-.9.2-1.1.3-.7.3-1.2 1-1.8.3-.2.6-.4.7-.6 0 0-.4-.3-1.3.6"/><path fill="none" stroke="#fff" stroke-width=".099" stroke-miterlimit="3.864" d="M775.5 127c-.6.6-1.1 2.2-.8 2.6 0 0 .2.3.2.3.2-.2.1-.9.2-1.1.3-.7.3-1.2 1-1.8.3-.2.6-.4.7-.6 0 0-.4-.3-1.3.6z" stroke-linecap="round" stroke-linejoin="round"/><path fill="#fff" d="M777.5 126.8c.3 1.1-.4 2.2-1.1 3-.9 1.1-.5.2-.9.3.2-.4 1-.6 1.2-1.4.4-1 .5-2.2.8-1.9"/><path fill="none" stroke="#fff" stroke-width=".099" stroke-miterlimit="3.864" d="M777.5 126.8c.3 1.1-.4 2.2-1.1 3-.9 1.1-.5.2-.9.3.2-.4 1-.6 1.2-1.4.4-1 .5-2.2.8-1.9z" stroke-linecap="round" stroke-linejoin="round"/><path fill="#fff" d="M778.5 130.4c0-.1.1-.2.2-.2s.2.1.2.2-.1.2-.2.2-.2-.1-.2-.2"/><path fill="none" stroke="#fff" stroke-width=".099" stroke-miterlimit="3.864" d="M778.5 130.4c0-.1.1-.2.2-.2s.2.1.2.2-.1.2-.2.2-.2-.1-.2-.2z" stroke-linecap="round" stroke-linejoin="round"/><path fill="#fff" d="M753.8 139l.5-.2 2.4.3.7-.3.2.4c-.3.3-.7.6-1.2.5-.7-.1-1.1-.4-1.9-.4-.3 0-.5.1-.7.2v-.5z"/><path fill="none" stroke="#fff" stroke-width=".099" stroke-miterlimit="3.864" d="M753.8 139l.5-.2 2.4.3.7-.3.2.4c-.3.3-.7.6-1.2.5-.7-.1-1.1-.4-1.9-.4-.3 0-.5.1-.7.2v-.5z" stroke-linecap="round" stroke-linejoin="round"/><path fill="#fff" d="M754 140.3h1.7c.6.1 1.9.2 1.5.7l-1.9-.2-1.3.2c0-.4-.1-.4 0-.7"/><path fill="none" stroke="#fff" stroke-width=".099" stroke-miterlimit="3.864" d="M754 140.3h1.7c.6.1 1.9.2 1.5.7l-1.9-.2-1.3.2c0-.4-.1-.4 0-.7z" stroke-linecap="round" stroke-linejoin="round"/><path fill="#fff" d="M754.2 142.3c.3-.1.4-.1.7-.1h1c.5.2.8.4 1.3.4v.5h-.2c-.8-.3-1.4-.5-2.4-.3-.2 0-.3-.2-.3-.4v-.1z"/><path fill="none" stroke="#fff" stroke-width=".099" stroke-miterlimit="3.864" d="M754.2 142.3c.3-.1.4-.1.7-.1h1c.5.2.8.4 1.3.4v.5h-.2c-.8-.3-1.4-.5-2.4-.3-.2 0-.3-.2-.3-.4v-.1z" stroke-linecap="round" stroke-linejoin="round"/><path fill="#fff" d="M754.6 143.9h1.5l1.4-.7c.4.5-1.1 1.2-1.7 1.3h-1.2c-.1-.3-.1-.3 0-.6"/><path fill="none" stroke="#fff" stroke-width=".099" stroke-miterlimit="3.864" d="M754.6 143.9h1.5l1.4-.7c.4.5-1.1 1.2-1.7 1.3h-1.2c-.1-.3-.1-.3 0-.6z" stroke-linecap="round" stroke-linejoin="round"/><path fill="#fff" d="M757.2 145.8h-.4c-.9 0-1.9.2-1.9 1.1v.3h.9c.9-.1 1.7-.5 1.6-1.3l-.2-.1zm-2.5.1c1-.5 1.5-.6 2.5-.6.6 0 1.2.8 1.2 1.1 0 .2-.5.6-1 1-.6.4-1.8.4-2.2.7-.3.2-.5-1.4-.5-1.9 0-.2-.1-.3 0-.3"/><path fill="none" stroke="#fff" stroke-width=".099" stroke-miterlimit="3.864" d="M757.2 145.8h-.4c-.9 0-1.9.2-1.9 1.1v.3h.9c.9-.1 1.7-.5 1.6-1.3l-.2-.1zm-2.5.1c1-.5 1.5-.6 2.5-.6.6 0 1.2.8 1.2 1.1 0 .2-.5.6-1 1-.6.4-1.8.4-2.2.7-.3.2-.5-1.4-.5-1.9 0-.2-.1-.3 0-.3z" stroke-linecap="round" stroke-linejoin="round"/><path fill="#fff" d="M780.1 133c0-.1-.1-.4-.3-.4-.3 0-.4.5-.4.8 0 .3.5.7.9.6.7-.1 1.2-.6 1.2-1.3l-.2-.7c.1-.5 1.2-.9 1.2-.7 0 .2-.3.7 0 .7s.5-.3.5-.6c0-.2-.3-.6-.4-.6-.6.1-1.9.7-1.9 1.4l.2.7c-.2.4-.3.6-.6.7h-.5v-.3c.1-.2.2-.4.3-.5v.2z"/><path fill="none" stroke="#fff" stroke-width=".099" stroke-miterlimit="3.864" d="M780.1 133c0-.1-.1-.4-.3-.4-.3 0-.4.5-.4.8 0 .3.5.7.9.6.7-.1 1.2-.6 1.2-1.3l-.2-.7c.1-.5 1.2-.9 1.2-.7 0 .2-.3.7 0 .7s.5-.3.5-.6c0-.2-.3-.6-.4-.6-.6.1-1.9.7-1.9 1.4l.2.7c-.2.4-.3.6-.6.7h-.5v-.3c.1-.2.2-.4.3-.5v.2z" stroke-linecap="round" stroke-linejoin="round"/><path fill="#fff" d="M781.2 136.5c.9-.4 2.6-.7 2.8-1.7l-.2-.4c.1 0 .2-.1.4-.1.4 0 .1.9.9.7 0 .2.4.3 0 .6H784c-.5.4-1.9 1.2-2.8.9"/><path fill="none" stroke="#fff" stroke-width=".099" stroke-miterlimit="3.864" d="M781.2 136.5c.9-.4 2.6-.7 2.8-1.7l-.2-.4c.1 0 .2-.1.4-.1.4 0 .1.9.9.7 0 .2.4.3 0 .6H784c-.5.4-1.9 1.2-2.8.9z" stroke-linecap="round" stroke-linejoin="round"/><path fill="#fff" d="M784.1 139.6c-.4.2-.6.5-1 .5-.1 0-.6-.3-.6-.4 0-.8 2-1 2.7-1 .3 0 .6.4.7.5l-.1.4c.3.2.3-.4.4-.7-.6-.3-.8-.6-1.4-.6-.8 0-2.7.5-2.7 1.2 0 .5.9.7 1.6.7.4 0 .8-.1.9-.1-.1-.2-.2-.3-.5-.5z"/><path fill="none" stroke="#fff" stroke-width=".099" stroke-miterlimit="3.864" d="M784.1 139.6c-.4.2-.6.5-1 .5-.1 0-.6-.3-.6-.4 0-.8 2-1 2.7-1 .3 0 .6.4.7.5l-.1.4c.3.2.3-.4.4-.7-.6-.3-.8-.6-1.4-.6-.8 0-2.7.5-2.7 1.2 0 .5.9.7 1.6.7.4 0 .8-.1.9-.1-.1-.2-.2-.3-.5-.5z" stroke-linecap="round" stroke-linejoin="round"/><path fill="#fff" d="M782.4 142.6c.5 0 .9.3 1.2.3.9.2 1.8 0 2.6 0 0 .9-.4 1.4 0 1.9-.4.1-.8.5-1.1.4-.7-.2-1.2-.7-2.1-.8-.4 0-1.1.1-1.1.1h-.1c-.2 0 0-.3 0-.5l.8-.2c.9 0 1.6 1 2.6 1 .3 0 .5-.3.6-.6l-.1-.7c-1.2 0-2.4-.6-3.1-.9h-.2z"/><path fill="none" stroke="#fff" stroke-width=".099" stroke-miterlimit="3.864" d="M782.4 142.6c.5 0 .9.3 1.2.3.9.2 1.8 0 2.6 0 0 .9-.4 1.4 0 1.9-.4.1-.8.5-1.1.4-.7-.2-1.2-.7-2.1-.8-.4 0-1.1.1-1.1.1h-.1c-.2 0 0-.3 0-.5l.8-.2c.9 0 1.6 1 2.6 1 .3 0 .5-.3.6-.6l-.1-.7c-1.2 0-2.4-.6-3.1-.9h-.2z" stroke-linecap="round" stroke-linejoin="round"/><path fill="#fff" d="M781.4 146.3s1.5-.4 2.2.1c.5.5 1.3.7 1.5 1.9-.9-.3-.6-1.1-1.8-1.5-.7-.3-1.2-.2-1.8-.2l-.1-.3z"/><path fill="none" stroke="#fff" stroke-width=".099" stroke-miterlimit="3.864" d="M781.4 146.3s1.5-.4 2.2.1c.5.5 1.3.7 1.5 1.9-.9-.3-.6-1.1-1.8-1.5-.7-.3-1.2-.2-1.8-.2l-.1-.3z" stroke-linecap="round" stroke-linejoin="round"/><path fill="#fff" d="M781.4 147.3c-.1 0-.3-.1-.4-.1.6 1 1.8 2 3 2 .2 0 .4 0 .6-.3-.4-.2-.8-.1-1.2-.3-1-.4-1.1-.5-1.8-1l-.2-.3z"/><path fill="none" stroke="#fff" stroke-width=".099" stroke-miterlimit="3.864" d="M781.4 147.3c-.1 0-.3-.1-.4-.1.6 1 1.8 2 3 2 .2 0 .4 0 .6-.3-.4-.2-.8-.1-1.2-.3-1-.4-1.1-.5-1.8-1l-.2-.3z" stroke-linecap="round" stroke-linejoin="round"/><path fill="#fff" d="M780.7 150.4c0-.1.1-.2.2-.2s.2.1.2.2-.1.2-.2.2-.2-.1-.2-.2"/><path fill="none" stroke="#fff" stroke-width=".099" stroke-miterlimit="3.864" d="M780.7 150.4c0-.1.1-.2.2-.2s.2.1.2.2-.1.2-.2.2-.2-.1-.2-.2z" stroke-linecap="round" stroke-linejoin="round"/><path fill="#fff" d="M780.3 153.3c.1 0 .4-.9.7-.7.2.1.3.5.3.5-.2.5-.6.5-1 .5-.6 0-.2.8-.7.8.2-.9-.7-2.6-2-2.8l-.2.3c.1.5.3 1.1.5 1.4.3.5.6.4.9.7.1.1.2.4 0 .4-.9 0-1.7-1.8-1.8-2.7-.1-.4.3-.7.7-.7.7 0 1.4.8 1.8 1.2.3.3.3 1.1.8 1.1"/><path fill="none" stroke="#fff" stroke-width=".099" stroke-miterlimit="3.864" d="M780.3 153.3c.1 0 .4-.9.7-.7.2.1.3.5.3.5-.2.5-.6.5-1 .5-.6 0-.2.8-.7.8.2-.9-.7-2.6-2-2.8l-.2.3c.1.5.3 1.1.5 1.4.3.5.6.4.9.7.1.1.2.4 0 .4-.9 0-1.7-1.8-1.8-2.7-.1-.4.3-.7.7-.7.7 0 1.4.8 1.8 1.2.3.3.3 1.1.8 1.1z" stroke-linecap="round" stroke-linejoin="round"/><path fill="#fff" d="M773.6 153.5l1-.3c-.2.3-.5.6-.9.6-.1 0-.1-.2-.1-.2v-.1z"/><path fill="none" stroke="#fff" stroke-width=".099" stroke-miterlimit="3.864" d="M773.6 153.5l1-.3c-.2.3-.5.6-.9.6-.1 0-.1-.2-.1-.2v-.1z" stroke-linecap="round" stroke-linejoin="round"/><path fill="#fff" d="M775.1 154.9c-.1 0-.2.1-.2.2s.2.2.3.2l.7-.3c-.3-.2-.6-.1-.8-.1"/><path fill="none" stroke="#fff" stroke-width=".099" stroke-miterlimit="3.864" d="M775.1 154.9c-.1 0-.2.1-.2.2s.2.2.3.2l.7-.3c-.3-.2-.6-.1-.8-.1z" stroke-linecap="round" stroke-linejoin="round"/><path fill="#fff" d="M775.2 157.4v-.5c.5 0 .5.1 1 .1.2 0 .4-.3.4-.7 0-1.1-.4-1.7-.7-2.3-.3-.5-.8-.6-.8-1.1 0-.1.3-.1.4 0 .5.5.8.8 1.1 1.5.2.4.4 1.2.4 1.7-.1.9-.9 1.1-1.8 1.3"/><path fill="none" stroke="#fff" stroke-width=".099" stroke-miterlimit="3.864" d="M775.2 157.4v-.5c.5 0 .5.1 1 .1.2 0 .4-.3.4-.7 0-1.1-.4-1.7-.7-2.3-.3-.5-.8-.6-.8-1.1 0-.1.3-.1.4 0 .5.5.8.8 1.1 1.5.2.4.4 1.2.4 1.7-.1.9-.9 1.1-1.8 1.3z" stroke-linecap="round" stroke-linejoin="round"/><path fill="#fff" d="M770.5 155.4c.1-.2.2-.3.2-.5l-.1-.7c.1-.6.9-.3 1.5-.5v1.4c.2 1.1.5 1.9.8 2.8h-.2c-.4 0-.4-.4-.5-.5-.3-1.2-.5-2.1-.6-3.3h-.2c-.6.3.1 1.2-.6 1.4l-.3-.1z"/><path fill="none" stroke="#fff" stroke-width=".099" stroke-miterlimit="3.864" d="M770.5 155.4c.1-.2.2-.3.2-.5l-.1-.7c.1-.6.9-.3 1.5-.5v1.4c.2 1.1.5 1.9.8 2.8h-.2c-.4 0-.4-.4-.5-.5-.3-1.2-.5-2.1-.6-3.3h-.2c-.6.3.1 1.2-.6 1.4l-.3-.1z" stroke-linecap="round" stroke-linejoin="round"/><path fill="#fff" d="M768.1 155.9c0-.1.1-.2.3-.2.2 0 .3.1.3.2s-.1.2-.3.2c-.2 0-.3-.1-.3-.2"/><path fill="none" stroke="#fff" stroke-width=".099" stroke-miterlimit="3.864" d="M768.1 155.9c0-.1.1-.2.3-.2.2 0 .3.1.3.2s-.1.2-.3.2c-.2 0-.3-.1-.3-.2z" stroke-linecap="round" stroke-linejoin="round"/><path fill="#fff" d="M767.1 153.6c-.7 1-1.3 1.9-1.3 3.3l.2.8c.4-.4.4-1.3.7-2.2.1-.8.6-1.4.4-1.9"/><path fill="none" stroke="#fff" stroke-width=".099" stroke-miterlimit="3.864" d="M767.1 153.6c-.7 1-1.3 1.9-1.3 3.3l.2.8c.4-.4.4-1.3.7-2.2.1-.8.6-1.4.4-1.9z" stroke-linecap="round" stroke-linejoin="round"/><path fill="#fff" d="M765.7 153.2c-.1-.2-.3-.3-.4-.3 0 .6-.2 1.5-.2 1.6 0 .1.3-.1.3-.3.1-.3.3-.4.3-.9v-.1z"/><path fill="none" stroke="#fff" stroke-width=".099" stroke-miterlimit="3.864" d="M765.7 153.2c-.1-.2-.3-.3-.4-.3 0 .6-.2 1.5-.2 1.6 0 .1.3-.1.3-.3.1-.3.3-.4.3-.9v-.1z" stroke-linecap="round" stroke-linejoin="round"/><path fill="#fff" d="M765.3 154.7c-.6.4-1.2 1.1-1.2 2 0 .4.7.7 1 .7 0 0-.5-.7-.5-1.2.1-.6.6-1.1.7-1.5"/><path fill="none" stroke="#fff" stroke-width=".099" stroke-miterlimit="3.864" d="M765.3 154.7c-.6.4-1.2 1.1-1.2 2 0 .4.7.7 1 .7 0 0-.5-.7-.5-1.2.1-.6.6-1.1.7-1.5z" stroke-linecap="round" stroke-linejoin="round"/><path fill="#fff" d="M761.8 155.4l-.5.1c-.3-.2-.3-.6-.4-.9-.2 0-.6-.2-.5 0 .5 1 .9 1.1 1.7 1.1.3 0 .4-.2.5-.3.6-.8 1.7-1.7 1.7-2.9 0-.3-.2-.6-.7-.7-.4 0-1.1-.8-1.1-.6.2.4.4.6.7.7.2.1.6.1.6.3 0 .5-.4 1.7-.8 1.8-.1-.1-.6-1.3-1-.8-.2.4.7.7.9.8-.3.5-.5.9-.9 1.1l-.2.3z"/><path fill="none" stroke="#fff" stroke-width=".099" stroke-miterlimit="3.864" d="M761.8 155.4l-.5.1c-.3-.2-.3-.6-.4-.9-.2 0-.6-.2-.5 0 .5 1 .9 1.1 1.7 1.1.3 0 .4-.2.5-.3.6-.8 1.7-1.7 1.7-2.9 0-.3-.2-.6-.7-.7-.4 0-1.1-.8-1.1-.6.2.4.4.6.7.7.2.1.6.1.6.3 0 .5-.4 1.7-.8 1.8-.1-.1-.6-1.3-1-.8-.2.4.7.7.9.8-.3.5-.5.9-.9 1.1l-.2.3z" stroke-linecap="round" stroke-linejoin="round"/><path fill="#fff" d="M756.7 151.8h.5c.7 0 1.4-.4 1.9-.7l.1.5c-.1.5-.8.5-.6 1.2 0 .1.2.3.3.3.1-.8.5-.7.7-1.7l-.2-.5c.3-.5.7-.7 1.2-.7.4 0 .5.4.6.8l.3-.5c-.3-.4-.5-.6-1-.6-.7 0-1.4.8-1.8 1.1-.6.4-2 .2-2 .8"/><path fill="none" stroke="#fff" stroke-width=".099" stroke-miterlimit="3.864" d="M756.7 151.8h.5c.7 0 1.4-.4 1.9-.7l.1.5c-.1.5-.8.5-.6 1.2 0 .1.2.3.3.3.1-.8.5-.7.7-1.7l-.2-.5c.3-.5.7-.7 1.2-.7.4 0 .5.4.6.8l.3-.5c-.3-.4-.5-.6-1-.6-.7 0-1.4.8-1.8 1.1-.6.4-2 .2-2 .8z" stroke-linecap="round" stroke-linejoin="round"/><path fill="#fff" d="M734.3 89.6s-.1-.1-.2-.1c-.2 0-.3.2-.3.4h.3l.2-.3zm-.9-.1c-.1-.2-.1-.4-.3-.4-.1 0-.2.2-.2.3 0 .1.2.1.5.1zm1.4-.1c0-.9-.8-1-1.5-1-.4 0-.9.2-.9.6 0 .7 1.1 1.1 1.6 1.1.3 0 .7-.5.7-.5l.1-.2z"/><path fill="none" stroke="#fff" stroke-width=".099" stroke-miterlimit="3.864" d="M734.3 89.6s-.1-.1-.2-.1c-.2 0-.3.2-.3.4h.3l.2-.3zm-.9-.1c-.1-.2-.1-.4-.3-.4-.1 0-.2.2-.2.3 0 .1.2.1.5.1zm1.4-.1c0-.9-.8-1-1.5-1-.4 0-.9.2-.9.6 0 .7 1.1 1.1 1.6 1.1.3 0 .7-.5.7-.5l.1-.2z" stroke-linecap="round" stroke-linejoin="round"/><path fill="#fff" d="M738.2 90.1c-.1-.1-.2-.2-.3-.2-.1 0-.2.3-.1.3.1.1.3 0 .4-.1m-.9-.1c0-.2-.1-.4-.3-.4-.1 0-.2.2-.3.3.2.1.4.1.6.1m-2.5 2.5c.1-.4.7-.4.8-.6.1-.3.1-.6.1-.9.2-1.5.3-2.3 1.8-2.3.6 0 1.2.4 1.2 1 0 .7-.6.8-1.1.8l-1-.4c-.5.7-.1 2.8-1.1 2.7l-.5-.1-.2-.2z"/><path fill="none" stroke="#fff" stroke-width=".099" stroke-miterlimit="3.864" d="M738.2 90.1c-.1-.1-.2-.2-.3-.2-.1 0-.2.3-.1.3.1.1.3 0 .4-.1zm-.9-.1c0-.2-.1-.4-.3-.4-.1 0-.2.2-.3.3.2.1.4.1.6.1zm-2.5 2.5c.1-.4.7-.4.8-.6.1-.3.1-.6.1-.9.2-1.5.3-2.3 1.8-2.3.6 0 1.2.4 1.2 1 0 .7-.6.8-1.1.8l-1-.4c-.5.7-.1 2.8-1.1 2.7l-.5-.1-.2-.2z" stroke-linecap="round" stroke-linejoin="round"/><path fill="#fff" d="M734 93.9c.7.2 1.4-.2 1.7.4l-.1.4c-.5-.1-1.4-.2-1.5-.5l-.1-.3z"/><path fill="none" stroke="#fff" stroke-width=".099" stroke-miterlimit="3.864" d="M734 93.9c.7.2 1.4-.2 1.7.4l-.1.4c-.5-.1-1.4-.2-1.5-.5l-.1-.3z" stroke-linecap="round" stroke-linejoin="round"/><path fill="#fff" d="M734.7 95h-.4v.3c.1 0 .2.1.3.1 0 0 0-.1 0-.2l.1-.2z"/><path fill="none" stroke="#fff" stroke-width=".099" stroke-miterlimit="3.864" d="M734.7 95h-.4v.3c.1 0 .2.1.3.1 0 0 0-.1 0-.2l.1-.2z" stroke-linecap="round" stroke-linejoin="round"/><path fill="none" stroke="#fff" stroke-width=".689" stroke-miterlimit="3.864" d="M679 141.5c0-9.7 7.8-17.6 17.3-17.6 9.6 0 17.3 7.9 17.4 17.6 0 9.7-7.8 17.6-17.3 17.6-9.7.1-17.4-7.8-17.4-17.6zm12.1 19.7c5.1 0 8 .2 13.1 0 1.3 0 6.4 0 9.5 0v-3.7m-4-2v5.4m5.5-3c.2 1.5-.5 3.3 1 3.3.6 0 1.8.2 2.4.2 0-1.8-.1-2.8 0-4.4m.3-20.4s-.2 4.4.2 7.2c.3 2.1.8 3.5 1 5.3.5 4.2.5 7.6.5 11.9m-6.2-8.1v-1.4l.5-4.2v-4.9c.3-1.9.5-3.6.5-6.3l-.2-5.3c.7 1.5 1 5.4 1.4 7.7v15.2m2.3-22.9c-.4-.7-.7-1.7-1.6-1.6-3.3.7-2.2 7.2-3.4 13.5-.8 4.2-1.8 11.2-3.5 14.7.3-.5.8-.9 1.7-.9 1.2 0 2 1.2 3.4 1.2.8 0 1.6-1.4 2.6-1.4 1.6 0 1.6 1.4 2.8 1.4 1.1 0 1.6-.9 2.8-1m24.1 2.6c.6.9-.5 1.8.7 1.9h2.8c-.1-1-.1-1.4 0-2.1m.1-28.1l.7 6.3.4 5.6 1.5 9.8m-3.1-21.4v12.6c1.4 2.8.4 7.8 1.7 10.5m-2.2-22.7l-.5 9.8v11.9m-2.3-.4c.1 1.8-.2 3.9 0 6.1.6-.6 1.1-1.6 2.2-1.6 1.3 0 0 1 1.4 1 2 0 2.8-2 4.8-2.3-.1-1.9-3.3-24.2-3.6-25.7m-3.6 4.9c.1.8 0 1.3 0 2.1 0 2.6-.4 7.6-.9 10.5v1.4m-2 13.2c.9-1.1.2-3.5.5-5.4m-5.2-.3c.4.3.8.7 1.4.7 1.3 0 1.9-1.1 3.4-1.1 1.2 0 1.5 1.6 1.7 2.5m-10.6-4.2c-.4 1 .3 1-.8 2.2-.3.3.4.8.4 1.2 3.2.6 2.4 3.5 5.9 4.6l3.3-.1c-2.9-5.5-5.7-5-5.4-8l.4-2m-15.3 1c0 .5 0 .9 0 1.4 0 .2-2 2.5-2 2.5-1.1 1.1-1.3 1.6-1.2 3.3-1.2-1-2.1 1.2-3 1.8.3.4-.5 1 1 .7 1.3-.3.9.1 1.8-.4 1.4 1.3 3.5-1.9 4.5-3.1 1.1-1.3 3.1-1.8 3.1-4.2 0 0-1.4-1.1-1.6-2.3-.1-.3 0-.4 0-.7m-2.5.5c.5 0 .9 0 1.4 0 .9 0 1.2-.5 2.1-.5 1 0 1.2 1.1 2.1 1.6 1.1.6 2.2 1.1 4.1 1.1 1.1 0 3.9-1.1 4.5-2.3m-16.8-24.4c-3.4 0-4.6 2.1-4.6 5.4 0 3.6 2.1 4.2 4 6.1 3.2 3.3 7.7 6.1 8.8 11-1.3-.7-2.3-1.7-4.6-1.7-2.4 0-3.3 1.1-3.8 2.8 0 0 0 1.4.6 1.9.7.5 2.1 0 2.1 0v-1c-.4-.8-.9-1.4-1.5-1.9m22.8-21.2c1.2.6 1.7 1.6 2.1 3.1l-.7 4.9c-2.9 6.1-3.9 6.5-6.7 10.3 2.1 0 6.4-.9 6.9 3.1.1.8-1.7 1.9-2.8 1.9-1.9 0-2.3-1.1-3.4-1.9m1.5-21.4c-3.4 1.7-3.8 4.6-4.8 8.4-.8 2.6-2.6 6.4-4.1 8.6m-2.3-4.2c.5 0 .9 0 1.4 0 .9 0 1.9-1.8 2-2.1 2.4-5.6 3.4-6.7 5.9-10m-10.5 8.4h1.4c2.2-.4 2.8-2.6 3.8-3.8 1.3-1.6 2.2-2.5 3.8-3.7m-11.7 1.9c1 1.7 2.5 4.9 2.9 6.8 1.2 4.9 4 12.6 10 12.1.3 0 .4-.5.5-.7m-14.6-20.5c1.2 1.6 1.6 4.7 4.3 4.7 2.9 0 3.3-2.1 5.3-3.2m-24-18.2v7c.4 0 .7 0 1 0 2.5 0 4 3.7 5 5.1 1.5 2.1 2.7 1.7 5.3 2.4 1.2.4 1.6 1.1 2.6 1.7 2.3 1.4 5.4 1.9 8.9 1.9 4.3 0 7.1-4 9.6-2.6m6.9-3c.5.3 1.2.8.9 1.6-.6 1.5-.8 2.1-1.8 1.9m-14.7-5.4c1.9.3 3.9 2.4 5.3 3.1 2.1 1 3.5.8 5.7 1.9m10.1-20.2v17.2m-4.6-17v6.6m-.8 0l.5-1.4m-.2-.4c-.2-.7-.3-1-.7-1.3-.8 1-1 2.5-1.4 3.8v.7h.4c.9-.4.8-.8 1.4-2.7m-.5-1.9c-.2-.5-.5-1.1-1-1.1-.4 0-.5.7-.5 1-.4 1.7-1 2.6-1 4.6 0 .3.2.6.4.6.3 0 .4-.1.5-.4m.3-5.8c-.3-.1-.5-.5-.8-.5-.4 0-.6.7-.8 1-.5 1.1-1.2 3.3-1.2 4.6 0 .4.3.8.8.8h.3m.2-6.1c-.1 0-.2-.3-.4-.3-1.3 0-1.9 2.3-1.9 3.7 0 .9.3 1.3.6 1.7m5.4-.7l2.8 3-5.2 12c-.8-.2-1.4-.6-2.2-1.2-.6-.4-.8-1.3-2.4-2.1-.8-.4-2-.4-2.9-.3-.6.1-.4-.6-.7-1.1-.4-.5-2.7-1.5-3.5-1.7-1.5-.2-1.8 0-2.8-.7 1.1-2.3 6.8-12.8 6.9-12.7.9.9 2.7.8 4.1 1.5m-9.3-14.2c1 .5 1.8.4 2.6.9.9.5 1 1.7 2.7 2.6.5.3 1.2 2.4 1.4 2.8 1.1 2.2 1.9 4.9 2.2 7.8m-10.4-15.2c2-.7 2.2 3.8 2.9 8.4.1.6.3 1.7.3 2.3.3 3 0 4.3 1.1 6.6m-4.4-17.9l.4 3.5.2 2.7s.9 8.7 1 14.1c0 .9.4 2.3.4 2.3m-5.9-4.3c-.3-.4-.4-.8-.4-1.2 0-1.3 1.2-1.7 1.7-1.7.9 0 1.6.5 1.6 1.2 0 1.1-.4 1.5-.9 2.1.3-.6.7-.5 1.2-.5 1.1 0 1.5.6 1.5 1.6s-.6 1.4-1.3 1.5c-.7.1-1.1.1-1.4-.4.2.4.4.7.4 1.1 0 1.3-.1 2-1.6 1.8-1.1-.1-1.4-.7-1.4-1.7 0-.7.2-1.1.6-1.3-.3.3-.6.6-1 .4-1.5-.4-1.5-.9-1.5-2 0-1 1-1.1 1.5-1.4l1 .5zm4.4-11.3c0 .9-.2 1.6-.4 2.1-.6 1.5-1.5 4.6-2.6 5.9m-2.3-7.2c.5 2.9 1.3 4.7 2.1 7.1m-2.9-7.6c.7.2 1.8.6 3 .5 1.2-.1 2.3-.5 2.9-.8m-5.7-3.1c.7.5 1.3.6 2.1.9h1.7c.7-.2 1.3-.4 1.7-.7m-12.4 22.1c.4.3.9.4 1.4.4 2.1 0 3.3-5.9 3.9-8.9.7-3.7 2.1-14.6 1.7-16.6m-7.1 24.6c2-1.3 3.7-14.5 5-23.6m-9.2 13.2c1 .2 1.9 1.3 2.3 1.9 1.3 1.8 1.9 3.8 3.4 4.6m-7.3-6.5c.5.2 1.5.1 1.7-.1 2.3-1.6 2-5.2 3.4-7.4 1.2-1.8 4.1-5.5 5.2-5.7 1.2-.4 1.2-1.4 2.5-1.5m-16.6 14.1c.3-.4.7-.7 1.3-.7 2.1 0 3.3 2.5 4 4.7.4 1.4.6 2.4 1.1 3.5m-12.9-12.9c0 1.3-.6.7-.3 1.7.5 1.4.9.7 1.6 1.1m2.8-2.7c.7-1.8 2.3-3 4.3-3 .6 0 .8.7.8 1.2 0 .8-.5 1-1.2 1-.3 0-.2-.4-.3-.7-.6.3-1 .8-1 1.5l.6 1.4c-.3.7-1 1-1.2 1.6 0 1.2.4 1.3.3 2.2l1 3.5c-1.6-.4-2.5-2-3.5-2.9-1.6-1.6-3.6-4.5-4.1-6.7l.7.3m4.6 2.3l.7-.3c.2.4.2.7 0 1m-2.1-1.4c.3-.6.3-.4.9-1l.6.1c0 .3.1.5.1.8 0 .7-.5 1.7-.7 2.5m-2.3-1.7c0-1.1 0-2.2.9-2.2.5 0 .4.4.4.9 0 1.1-.4 1.6-.6 2.5m.4-3.5c.1-.4.1-1-.1-1.4-1.1-2.2-2.4-.9-2.6-1.5-.2-.6-.3-1.5-.3-1.5 0 .3.4.3.4.5m-2.2-1.4c.3-.8.9-1.1 1.7-1.1 1.8 0 3.1 1.7 3.5 3.2m.3.7c.6-1.8 2.2-3.9 4.8-3.9 1.6 0 2.5.8 2.3 2.3-.2 1.3-.7 1.7-1.8 1.7-.6 0-1.1-.4-1.1-1s.2-.8.4-1m-4.4-2.3l-.4 7.8m-5.4-10.3h13.6s.9.1.9 1.3c0 .5-.7 1.1-.7 1.1h-14s-.6-.7-.7-1.2c-.1-1 .9-1.2.9-1.2zm-27.9-.7c3.1-14.3 9.6-25.5 17.2-33.4 0 0 11.4 8 16.4 33m-32.2.7c2.9-11.9 8.3-23.6 15.8-31.5 0 0 8.7 4.2 15 31.3m1.2-.8c6.7-34.6 21.5-43.9 23.2-46 0 0 16.9 14.1 21.6 46.5m-43.1.5c6.2-36.5 21-41.8 21.5-44.9 0 0 14.8 13.1 20.1 45m4.3 44.7c0-5.7 4.6-10.3 10.4-10.3 5.8 0 10.4 4.6 10.4 10.3 0 5.7-4.6 10.3-10.4 10.3-5.7 0-10.4-4.6-10.4-10.3z" stroke-linecap="round" stroke-linejoin="round"/><path fill="none" stroke="#fff" stroke-width=".707" stroke-miterlimit="3.864" d="M712.3 151.6c-3.2 5.6-8.9 8.9-15.7 8.9-10.3 0-18.7-8.5-18.7-18.9 0-10.5 8.4-18.9 18.7-18.9 9.1 0 16.3 6.1 18 14.8" stroke-linecap="round" stroke-linejoin="round"/><path fill="none" stroke="#fff" stroke-width=".689" stroke-miterlimit="3.864" d="M806.9 138.6c.4.4.7.9.7 1.7 0 1.8-.3 3.8-.8 4.5-1.5 2.7-1.8 3.9-3 5.8 0-.1.3-1 .1-1.7-.5-1.7-.4-2.9.7-3.4-.9-.2-2.4-1-2.4-2.4 0-1 .4-1.4.6-2.2 0 1.7.3 2.5 1.8 2.5 1.3-.1 1.8-1 1.8-2.5 0-1.4-.9-2.5-2.2-2.5-3.6 0-4.9 4-4.9 7.6 0 1.1.2 2.2.4 3 .5-1 1.5-1.7 2.6-2.3-.3.6-.9 1.6-1.2 2.2-.6.9-1 4.4-.6 5.7.8-.1 1-.4 1.9-.4-3.1 2.4-3.2 8.6-8.5 8.6-2.3 0-3.9-1.8-4.1-4.4-.3-2.8.9-5.5 3.5-5.5 1.5 0 2.4.8 2.8 2.2.3 1.4-.5 3-2.1 3-1.5 0-1.6-.8-1.6-2.4.3.7.9.9 1.6.9.9 0 .9-.7.9-1.4s-.5-.9-1.2-.9c-1.2 0-2.3 1.1-2.6 2.3v1.7c.4 1.5 1.2 3 3 3 .6 0 .9 0 1.4-.2.4-.1 1-1 1.3-1.3 1.1-1.5 1.9-3.4 1.9-5.8 0-2.3-1.4-5.5-2.4-6.6 1.2 0 1.9.3 2.3 1.1l-.2-1.8c-.6-4.1 1.9-8.8 5.1-9.4-.6-.8-1.4-1.2-1.4-2.5 0-1.7 1.1-3.1 2.5-3.3-.5.7-1.1 1.6-1 2.9.1 1.1 1.1 2.5 2.5 2.5.6 0 2-1.1 2-1.9 0-3.1-2.5-4-2.1-7 .2-1.1.8-2.5 2.2-2.5.5 0 .7.1 1 .3-1 .5-2.6 1.2-2.2 2.7.5 2.4 2.4 3.4 2.4 5.9 0 2.1-1 3.4-2.6 3.8m-71.7-34.8c0-.1 0-.2.1-.2 0 0 .1.1.1.2s0 .2-.1.2-.1-.1-.1-.2zm-1.8.4c0-.1.1-.2.1-.2.1 0 .1.1.1.2s-.1.2-.1.2c-.1 0-.1-.1-.1-.2zm-2-.1c0-.1.1-.2.2-.2s.2.1.2.2-.1.1-.2.1c-.1.1-.2 0-.2-.1zm11.6 24.2l5.4-9.5m-46.5-75.9c0-1.1.8-1.9 1.9-1.9 1.1 0 1.9.9 1.9 1.9 0 1.1-.8 1.9-1.9 1.9-1 .1-1.9-.8-1.9-1.9zm-13.4 9.9l.9-.7-2.2-1.7 1.3 2.4zm.6 1.3l1.4-1.2.5.3 1.8 1.5.2.6 1.5-1.3c-.9-.5-1.5-.7-2.3-1.3-2.5-1.9-3.9-2.6-6.2-4.5h-.6l-.2.3 3.5 10.1 1.8-1.3c-.3-.2-.5-.3-.8-.6-.6-.9-.8-1.6-.6-2.6zm6.2-12.7l1.2 1.8-1-.3c-.5-.1-.9.1-1.3.5s-.5.9-.4 1.5c.2.9 1.1 1.5 2.1 1.3 1.3.2 3.1.6 3.6 1.5.4.7.6 1.3.4 2.1-.2.9-.5 1.5-1.3 2l-1.8.8-.9.5-1.4-2.4 1.2.6 1.7-.2c.6-.5.8-1.2.6-1.9-.3-.8-.9-1.3-1.8-1.3l-2.8-.5c-1-.4-1.5-1.2-1.6-2.3-.1-1 .2-1.8 1-2.4l2.5-1.3zm-18.4 13.7l4.8-4.3 1.4 1.5-.9.2-1 .4-.3.3 5.4 6.3.8.4-2 1.7-.4-1-5.2-6.2-.6.5-.5.9-.3 1-1.2-1.7zm-2.9 3l1.4-1.4.1.4 6.4 6.3.9.3-1.5 1.7c-1.4-1.7-2.3-2.6-3.9-4.1-1.3-1.3-2-2-3.4-3.2zm-2.3 2.5l1.8 1.1-1 .2-1.2 1c-.1.6 0 1 .4 1.5.6.7 1.6.9 2.4.4.8-.4 1.4-.6 2.2-.5.7 0 1.1.1 1.6.4.7.5 1 .9 1.2 1.7.2.9.1 1.6-.4 2.4l-1.4 1.5-.6.9-2.2-1.7h1.4l1.5-.9c.4-.7.3-1.4-.3-2-.6-.6-1.4-.8-2.2-.4l-2.8.7c-1.1 0-1.9-.5-2.4-1.4-.5-.9-.5-1.7-.1-2.6l2.1-2.3zm-5.8 10.3l1.3 1.1 1.7.7c.4-.2.9-.7.8-1.1-.3-.9-.6-1-1.3-1.4-.6-.4-1.3-.8-1.9-.4-.4.4-.6.7-.6 1.1zm-2.3 1.4l1.5-2.8c.6-.6 1.1-.9 2-1 .9-.1 1.5.1 2.2.6.7.4 1.1.8 1.5 1.6v.7c.4-.1.7-.1 1.1 0 .7.1.9.5 1.6.7.9.3 1.4.4 2.3.4-.6.7-1.2 1.1-2.2 1-.8-.2-1.2-.8-2.1-.8-.5 0-.8.1-1.2.3l-.4.6 1.5 1.2 2.1.9-1 1.5c-1.5-1.2-2.5-1.8-4.1-2.8-1.4-.8-2.2-1.2-3.7-1.9l-1.1-.2zm-4.2 8l2.7-5.5 1.4.5-.7.4-1.4 2.5.2.5c.4.3.7.5 1.2.7.7.3 1.2.4 2 .5l.8-1.3.9.5-.7 1.4s.9.6 1.5 1c.6.3 1.7.7 1.7.7l1.1-1.9.1-1.4 1.5.9-2.8 5-.4-.5s-2.5-1.5-4.2-2.4c-1.5-.7-4-1.7-4-1.7l-.9.1zm-3.4 8.5l10.9.2-7.7-6-.7-1-.7 1.8 1 .2 5 3.9c-1.9.1-2.9.1-4.8-.2-.6-.1-.9-.1-1.5-.3l-.9-.3-.6 1.7zm-1.1 4.3l.5-2.4c2 .6 3.1 1 5.2 1.5 1.9.5 2.9.7 4.8 1l-.5 1.8-.9-.4c-1.3-.6-6.4-1.7-7.4-1.9-.6 0-1 .3-1.7.4zm-2.1 9.5l.9-.3s3 .4 4.8.8c1.7.4 4.4 1.1 4.4 1.1l.4.3.5-2.6-.8.4c-1.1 0-1.7-.1-2.8-.3-1.4-.2-2.2-.4-3.5-.9l7.8-2.8.3-.9-5.9-1.2-4.1-1-.5 1.8c.8-.1 1.3-.1 2.1 0 1.2.1 1.8.3 2.9.7l2.5.4-8.3 2.6-.7 1.9zm-.4 9.2l.3-.4 10.2-2.6.1-.4-9.8-4.1-.5-.4.1 2.4.8-.5 6.1 2.6-5.9 1.3-1.5.1.1 2zm123.5 58l1.6-1.3c1.1 1.7 1.7 2.6 2.9 4.2s2 2.4 3.4 3.9l-1.4 1.5c-1-1.7-1.6-2.6-2.9-4.1-1.2-1.8-2-2.7-3.6-4.2zm-4.3 2.8l1.7-1.1c.9 1.8 1.4 2.8 2.5 4.5 1.1 1.7 1.8 2.6 3 4.2l-1.5 1.3c-.8-1.8-1.4-2.7-2.4-4.4-1.1-1.9-1.8-2.9-3.3-4.5zm-7 4l1.6-1 3 2.3c.2-.8.2-1.3.1-2.1-.1-.4-.1-.7-.3-1.1l-.4-.6 1.7-.6.3 5.3 4.9 3.8-1.6 1-3-2.1c-.3.9-.3 1.5-.1 2.4.1.5.2.8.4 1.3l-1.5.9-.2-5.5-4.9-4zm-8 3.5l1.7-.8 2.7 2.7c.3-.8.4-1.3.4-2.1 0-.4 0-.7-.1-1.1l-.4-.7 1.7-.3-.4 5.2 4.3 4.5-1.7.8-2.7-2.5c-.4.9-.5 1.4-.4 2.4 0 .5.1.8.3 1.3l-1.6.7.5-5.5-4.3-4.6zm-6.6 1.9l2.1-.5 1.8 8.5.5.5c.8-.2 1.3-.4 1.9-1 .5-.5.8-.8 1-1.5l.4 2.3s-.9.8-2.6 1.2c-1.1.3-2.8.9-2.8.9-.1-1.2-.1-1.8-.3-3-.3-2.6-.6-4.1-1.5-6.6l-.5-.8zm-2.5.6c-1-.2-1.6-.1-2.5.2-.8.3-1.4.6-1.8 1.4-.5 1.2-.8 1.7-.6 2.9l.5 3.4c.2 1 .5 1.6 1.2 2.3.7.7 1.3 1 2.2 1 .9 0 1.5-.1 2.3-.7l-.3-2.6c-.7.7-.5 1.3-1.2 1.6-1 .4-2.2-.3-2.4-1.4l-.5-3.9c-.1-1 .1-2.1 1.1-2.5.9-.4 2 0 2.4.9l-.4-2.6zm-7.9 1.1c-.9-.3-1.6-.3-2.5 0-.8.3-1.5.4-1.9 1.2-.6 1.1-1 1.7-.9 2.8l.3 3.4c.1 1 .4 1.6 1 2.4.6.7 1.2 1.1 2.1 1.2.9.1 1.5 0 2.3-.5l-.2-2.6c-.1.8-.5 1.3-1.3 1.5-1.1.3-2.2-.5-2.3-1.6l-.2-3.9c0-1 .3-2.1 1.3-2.4 1-.3 2 .2 2.3 1.1v-2.6zm-16.4 10.4c.4-1.1.6-1.7.9-2.8.6-2.2.9-3.5 1-5.8l-.1-.8-.5-1.2h1.6l2.4 4.3 2.3-4 1 .2-.4 9.4.1.5.4.9-1.9-.2.7-8-2.2 3.1-2-3.1-.6 4.7-.2 2.1v1l-2.5-.3zm-7-6.4c0-1.1.9-2 2-2s2 .9 2 2-.9 2-2 2-2-.9-2-2zm-8.7-4.7c.7-2.1 2.6-3.3 4.2-2.7 1.6.6 2.4 2.7 1.7 4.8l-1 3c-.7 2.1-2.6 3.3-4.2 2.7-1.6-.6-2.4-2.7-1.7-4.8l1-3zm1.8.2c.4-1 1.2-1.7 2-1.4.8.3 1.1 1.3.7 2.4l-1.2 3.6c-.4 1-1.2 1.7-2 1.4-.7-.3-1.1-1.3-.7-2.3l1.2-3.7zm-14 1.7l1.4-1.3 3.2-7V175l1.7 1 .5 8.4 2.7-6v-1l1.6 1.1-4.6 9.3-.7-.4-.5-8.5-2.6 4.7-.4 2-2.3-1.1zm-9.7-6.5l1.5-1.1 4.1-6.5v-1.1l1.7 1.1-.7 8.4 3.5-5.5.1-1 1.5 1.3-5.9 8.6-.6-.5.7-8.5-3.2 4.3-.7 1.9-2-1.4zm-1.7-7.4l.9 1 1.1-2.4-2 1.4zm-5.7 1.7l9.4-5.5.3.2-3.9 9.1-.2 1.1-1.5-1.1c.4-.5.6-.8 1-1.3.4-.6.5-1 .8-1.7l-1.2-1.4-1.1.4-1.7 1.6-.1.5-1.8-1.9zm-19.3-35.1c-.4.4-.7.9-.7 1.7 0 1.8.3 3.8.8 4.5 1.5 2.7 1.8 3.9 3 5.8 0-.1-.3-1-.1-1.7.5-1.7.4-2.9-.7-3.4.9-.2 2.4-1 2.4-2.4 0-1-.3-1.3-.6-2.2 0 1.7-.3 2.6-1.8 2.5-1.3-.1-1.8-1-1.8-2.5 0-1.4.9-2.4 2.2-2.4 3.6 0 4.9 4 4.9 7.6 0 1.1-.2 2.2-.4 3-.5-1.1-1.5-1.7-2.6-2.3.3.6.9 1.7 1.2 2.2.6.9 1 4.4.6 5.7-.9-.1-1-.4-1.9-.4 3.1 2.4 3.2 8.6 8.5 8.6 2.3 0 3.9-1.8 4.1-4.4.3-2.8-.9-5.5-3.5-5.5-1.5 0-2.4.8-2.8 2.2-.3 1.4.5 3 2.1 3 1.5 0 1.6-.7 1.6-2.4-.3.7-.9.9-1.5.9-.9 0-.9-.7-.9-1.4s.5-.9 1.2-.9c1.2 0 2.3 1 2.6 2.3v1.7c-.4 1.5-1.2 3-3 3-.6 0-.9 0-1.4-.2-.4-.1-1-1-1.3-1.3-1.1-1.5-1.9-3.4-1.9-5.8 0-2.3 1.4-5.5 2.4-6.6-1.2 0-1.9.3-2.3 1.1l.2-1.8c.6-4.1-1.9-8.8-5.1-9.3.6-.8 1.4-1.2 1.4-2.5 0-1.7-1.1-3.1-2.5-3.3.5.7 1.1 1.6 1 2.9-.1 1.1-1.1 2.5-2.5 2.5-.6 0-2-1.1-2-1.9 0-3.1 2.5-4 2.1-7-.2-1.1-.8-2.5-2.2-2.5-.5 0-.7.1-1 .3 1 .5 2.6 1.2 2.2 2.7-.5 2.4-2.4 3.4-2.4 5.9 0 2.1 1 3.4 2.6 3.8m149.8-28.6l.2 1.3 2.7-.8-2.9-.5zm-4.9-2.9l.1 2.3 1-.3 2 .3.5.7.1 1.6-1.9.8-1.5.2.1 1.9c.4-.3.6-.5 1.1-.8.7-.4 8.8-3.2 9.1-3.3l-.2-.7-10.4-2.7zm-1.4-8.6l2.2.1 7.3-1.6.6-.6.3 2-6.6 5.7c.8 0 5.3-1 6.4-1.4.5-.2.6-.6 1-1l.2 2.1-10 1.9-.2-1 6.5-5.5s-4.7.7-5.9 1.1c-.5.2-.8.4-1.2.7l-.6-2.5zm3.1-7l.4 1.5 2.5-1.7-2.9.2zm-5.4-1.4l10.7-.1.2.5-7.2 5.2-1.5 1.6-.5-2c.7 0 1.1-.2 1.7-.5.6-.3.9-.6 1.2-1.1 0 0 0-.5-.1-.9-.1-.5-.7-1.1-.7-1.1-.8-.2-1-.2-1.8 0-.6.1-.9.3-1.4.6l-.6-2.2zm-1.3-3.4c1.6-.4 2.5-.7 4-1.3 1.6-.6 2.5-1 4-1.8l1.2-1.1.7 2.1c-1.7.6-2.7.9-4.3 1.7-1.9.8-3 1.4-4.8 2.5l-.8-2.1zm0-1.6l1.9-1.1-1.4-.5c-.4-.2-.5-.4-.7-.8-.3-.8.2-1.8 1-2l3.5-2c.8-.2 1.4-.1 2 .5.6.7.7 1.7.2 2.4l2-1s-.2-2-1-2.8c-.9-.8-3-.9-3-.9s-2 .6-3.1 1.2c-1 .6-2.5 1.7-2.5 1.7-.9.9-1.2 2.1-.8 3.3.3 1.1 1 1.7 1.9 2zm-.7-11.6l3.4-1.8.5.7c-.1.8-.5 1.3-1.2 1.7-.7.4-1.4.7-2.1.3-.3-.3-.4-.5-.6-.9zm-5.2 1.3l1.4-.6 6.1-4 1-.9 1.5 2.5c.3.5.4.8.3 1.4 0 1.1-.7 1.6-1.6 2.3-.7.5-1.2.7-2.1.8l-.9-.3c-.4.6-.6 1-1.1 1.6-.7.9-1.2 1.4-2 2.2 0 0-.4-1.4 0-2.1.3-.4 1.8-1.8 1.8-1.8.3-.2.4-.6.3-.9-.1-.3-.4-.4-.8-.4l-2.4 1.3-.6.5-.9-1.6zm2.7-12.9l1 1.2-4.1 5.7.1.4 5.6-1.9.7-1 1 1.3-10.3 3.2 3.5-5.3 2.5-3.6zm-14.8-.8l1.7-.6 3.1-2.2 2.7-2.3.7-1.1-.1-.6 1.3 1.3-1.1 4.6 4.2-1.1.6.8-5.8 5.8-.7 1-.3 1-1.1-1.4 5.6-5.5-3.8.7.7-3.3-2.2 1.6-3.4 3.3-2.1-2zm-1.5-6.9c0-1.1.9-1.9 2-1.9s2 .9 2 1.9c0 1.1-.9 1.9-2 1.9-1.1.1-2-.8-2-1.9zm-6.3-11.5l-.1 1.5c-1.3 1.8-2.1 2.8-3.6 4.5-.9 1-1.3 1.5-2.2 2.4l.8.8 1 .6 4.4-6.2.2 1.6-.1 1.8 3.5-1.3-4.1 6.1.6.9.9.2.2-1.3 4.7-7.3-.7-.7-3.9 2.2-.3-2.3.3-2.2-1.6-1.3zm-9-4.1l1.5.7-1.1 6.9 4.5-4.5.1-.9 1.8 1-8 7.4-.4-.1 1.5-7.2.1-3.3zm-5.6-.8l-.9 3.3c.1.4.4.7.8.8.3.1 1.3-.8 1.5-1.7.2-.6.2-1.1 0-1.7l-.9-.8-.5.1zm-1.8-1.8l.3.6-1.5 5.1-1.5 3.8 1.5.6 1-3.3c.2-.2.4-.3.6-.4.7-.1 1.3.8 1 1.4-.3.9-.4 1.5-.1 2.4.2.7.4 1.1.9 1.6-.1-1.2 0-1.9.5-3.7.1-.5-.2-.8-.4-1.2 1-.4 1.5-.9 2-1.9.5-1.2.4-2.1-.2-3.2l-1-.8-3.1-1zm-5 0l.2.1c.7.4 1 1.7.6 3l-.8 2.6c-.3 1.1-1 2-1.8 1.6l-.2-.1c-.7-.4-.9-2-.6-3.1l.6-2.2c.3-1.1 1.3-2.2 2-1.9zm.2-1.5l.4.1c1.6.4 2.4 2.2 1.9 4.1l-1.1 3.8c-.4 1.6-1.8 2.9-3.4 2.5l-.4-.1c-1.6-.4-2.3-2.7-2-4.3l.8-3.2c.4-1.6 2.2-3.3 3.8-2.9zm-7.5-.9l2.1.3-.4.5-1.4 9.1.3.6-2.2-.3c.7-2.1 1-3.3 1.3-5.4.2-1.8.3-2.9.3-4.8zm-6.3.5l-1 8.3c.6.2 1.1.2 1.7.1 1.6-.2 2.2-8.2.2-8.1-.4 0-.6-.3-.9-.3zm-2-1.4l.3.4-1 9.2-.4 1 .7.3c2.1.2 2.5.5 3.3.2 2.6-1.1 3-5.5 2.8-7.7-.2-1.8-1.5-2.7-3.2-3.2-1-.4-1.6-.4-2.5-.2zm-9.7.4l2-.1 2.4 6.8 1.5-5.2.1-1.2-.4-.4 2.1-.3-3.3 10.8-3.5-9.5-.9-.9zm-9 1.5l6.8-1.3.3 2.4-1.2-.7-1.3.1 1.6 8 .4 1-2.5.4.2-1.2-1.5-7.9-1.4.6-.8 1-.6-2.4zm-4.7 10.4c.7.6 1.7.3 2.3-.4.4-.5.4-1 .3-1.6-.2-.7-.6-1-1.4-1.4l-1.3-.6c-.4-.2-.9-.5-1.2-.7-.5-.4-.8-.7-1-1.3-.2-.7.1-1.4.4-2 .3-.6.9-1 1.6-1.1.3-.1.8-.3 1.3-.2.5.1 1.2-.7 1.2-.7l.8 2.4s-.9-.3-1.4-.6c-.6-.3-1.3 0-1.7.6-.5.8.2 2.1.7 2.3l1.4.6c.9.4 1.5.7 1.9 1.1.4.4.7.8.8 1.4.2.8.1 1.5-.4 2.1-.4.6-1.1 1-1.9 1.2-.4.1-1.8.2-1.9.3 0 .1-.7.1-.7.2l-.3.1-.6-2.6c.1-.1.7.5 1.1.9zm-15.6 122.9l72 .3m-43-5.5h13.8m12.9-2.8l.3 3c1.5.1 2.6-.1 4.1.2l18.9.2m-23.6-96.3c.2 0 .4 0 .5 0 .6.1.6.6.8.7.6.5 1.2.8 2 .9.8.1 1.3-.3 1.7-.4.2-.1 1.1.6 1.6.6 1.5.1 2.5-.6 3.2-1.3m-4.1-8.9c-.1 1-.8.9-1.6 1.2-.9.4-1.4 1.1-1.6 2.2-.1.6-1 1.2-1.3 1.4-.4.2-.6.8-.7 1.2-.3 1 .4 2-.7 2.5m6-8.7c-.2 1.2 1 1.2 1.7 1.6.9.5 1.2 1.3 1.2 2.5 0 .6.7 1.2 1.1 1.4.4.3.5.9.5 1.4.1 1.1-.8 2.1.2 2.7m-4.7-9.6c-.2 1.2 1 1.2 1.7 1.6.9.5 1.2 1.3 1.2 2.5 0 .6.7 1.2 1.1 1.4.4.3.5.9.5 1.4.1 1.1-.8 2.1.2 2.7m-6.9-4.6c-.1-.3-.2-.6-.2-.9.1-1.1 1.1-1.9 2.2-1.8 1.1.1 2 1.1 1.9 2.1 0 .2-.1.5-.2.7.3 0 .5.3.8.5.8.7 1.1 1.8.4 2.7-.7.9-2 1.2-2.8.5-.2-.2-.4-.3-.4-.5-.2.2-.4.3-.6.4-.9.5-2.3.3-2.9-.7-.5-1-.2-2.3.7-2.8.3-.2.6-.2.9-.2m-50.4 4h.5c.5 0 .6.5.9.6.6.4 1.2.8 2.1.8.8 0 1.3-.4 1.6-.6.2-.1 1.2.5 1.6.5 1.5 0 2.4-.8 3.1-1.5m-4.8-8.7c0 1-.8 1-1.4 1.3-.9.4-1.3 1.2-1.4 2.4-.1.6-.9 1.3-1.2 1.5-.4.2-.5.9-.6 1.3-.2 1 .6 1.9-.5 2.5m5.1-9.1c-.1 1.3 1.1 1.1 1.8 1.4.9.4 1.3 1.2 1.4 2.4.1.6.9 1.1 1.2 1.3.4.2.6.9.6 1.3.2 1-.6 2.1.5 2.7m-5.5-9.1c-.1 1.3 1.1 1.1 1.8 1.4.9.4 1.3 1.2 1.4 2.4.1.6.9 1.1 1.2 1.3.4.2.6.9.6 1.3.2 1-.6 2.1.5 2.7m-7.2-4c-.2-.3-.2-.6-.2-.9 0-1.1.9-2 2.1-2 1.2 0 2.1.9 2.1 2 0 .3 0 .5-.1.7.3 0 .6.3.8.4.9.6 1.2 1.7.6 2.7-.6 1-1.9 1.3-2.8.7-.2-.1-.4-.3-.5-.5-.1.2-.4.3-.6.4-.9.6-2.3.5-2.9-.4-.6-1-.4-2.2.5-2.8.3-.2.6-.3.9-.3m-44.4 50.9c0-37.9 30.9-68.6 69-68.5s69 30.8 69.1 68.6c0 37.9-30.9 68.6-69 68.6-38.1-.1-69-30.8-69.1-68.7zm2.1 0c0-36.8 30-66.6 67-66.5 37 0 67 29.9 67.1 66.6 0 36.8-30 66.6-67 66.6-37.1-.1-67.1-29.9-67.1-66.7zm-17-.2c0-46.3 37.4-83.7 83.7-83.7 46.3 0 83.8 37.6 83.9 83.8 0 46.3-37.4 83.7-83.7 83.7-46.3 0-83.9-37.5-83.9-83.8zm-2.1 0c-.1-47.5 38.4-85.9 85.9-85.8 47.5 0 86 38.5 86 86s-38.4 85.9-85.9 85.8-86-38.5-86-86zm-1.8 0c0-48.4 39.2-87.6 87.6-87.6 48.4 0 87.7 39.3 87.8 87.7 0 48.4-39.2 87.6-87.6 87.6-48.5 0-87.7-39.3-87.8-87.7zm22.5.2c0-35.9 29.2-64.9 65.3-64.9 36.1 0 65.4 29.1 65.4 65s-29.2 64.9-65.3 64.9c-36.1 0-65.4-29.1-65.4-65zm90.3 28.7c0-6.3 5.4-11.6 11.6-11.6 6.2 0 11.4 5.3 11.4 11.6s-5.2 11.4-11.4 11.4-11.6-5.1-11.6-11.4zm2-.8c0-1.4 1.2-2.5 2.6-2.5 1.4 0 2.6 1.1 2.6 2.5s-1.2 2.5-2.6 2.5c-1.5 0-2.6-1.1-2.6-2.5zm13.7 1.5c0-1.4 1.2-2.6 2.6-2.6 1.4 0 2.6 1.2 2.6 2.6 0 1.4-1.2 2.6-2.6 2.6-1.4 0-2.6-1.2-2.6-2.6zm-7.7 6c0-1.4 1.2-2.6 2.6-2.6 1.4 0 2.6 1.2 2.6 2.6 0 1.4-1.2 2.6-2.6 2.6-1.5 0-2.6-1.2-2.6-2.6zm1.7-13.4c0-1.4 1.2-2.6 2.6-2.6 1.4 0 2.6 1.2 2.6 2.6 0 1.4-1.2 2.6-2.6 2.6-1.5-.1-2.6-1.2-2.6-2.6zm7.2 0c.1.3.3.4.6.5l1-.3c.3.4 0 .7 0 1.1h1.1v.2l-.2 1.2v.4m-14.5-1.7c.3-.1.4-.3.5-.5l-.1-.7v-.5h1.1v-.9h.3l1 .3.3-.1m-4.2 11c.2.1.4.3.4.5l-.5 1s-.1.2 0 .3c.5.2 1.1-.2 1.1 0 .1.4-.4.9 0 1.3s.9-.3 1.4-.3c.2 0 .3.3.3.4m8.7 1.2v-.5h.5c.4 0 .5.7.9.7.5 0 .5-1 .5-1.3l.7.2c.2-.1.3-.3.3-.4l-.2-.9c0-.2.1-.4.3-.4m-4.4-5l4.1 5.3m-6.4-4l4.2 5.7m-10.3-12.8l4.6 5.2m-3.7-6.6l10.9 13.6m-3.5-6.4l5.4-4.2m-12.7 9.9l5.1-4.2m-6.9 2.2l5.3-4.2m-5.1 5.6l13.7-10.6m-6.4 3.6l5.1-4.2m-9.7-1.4l4.6 5.5m-14.8 13.6c3.3 4.4 8.5 7.2 14.4 7.2 10.9 0 18.5-8.6 18.5-18.8 0-10.2-8.3-18.8-18.3-18.8-7.6 0-14.4 4.6-17.1 11.2m.2 2.5c2.1-7.3 8.8-12.6 16.6-12.6 9.6 0 17.4 7.9 17.4 17.6 0 9.7-7.8 17.6-17.4 17.6-6.2 0-11.6-3.3-14.7-8.2m34.9-40.7H788c-.8-.1-1.7-.3-1.7-1.2 0-.7.6-1.2 1.2-1.4l2.4.1c-.1-2-1.2-3.7-3.2-3.7h-.9c0 .4 0 1.1 0 1.1 0 .4.4.9.9.9.3 0 .5-.3.6-.5 0 .6.1 1.1 0 1.7m-1.6-5.2c.5.3.6.7.6 1.2 0 .2-.3.3-.3.5-.4 0-.8.1-.9.1-1.1 0-1.4-1-1.4-1.8 0-1.3.7-1.9 1.8-1.9 3 0 4.2 3.7 4.4 6.6m-2.8 3.5v24.2m5.5 5.5l-.1-55.1m-2.3-4l.1 63.5m-.1-46.9h-6s-1 .1-1 1.3c0 .5.7 1.1.7 1.1h6.3m-28.5-3.1c-1.8-1.7-1.9-4.7-1.4-6.2.5-1.4 3.1-3.7 5.7-3.4-1.8-1.6-2.9-3.7-1.9-5.9 1.1-2.5 3.5-4 6.5-4.5-.2 0-.3 0-.5-.1-3-.8 1.5-7.9 1.5-7.9l1.9-2.8c.7 1.2 4.2 6 4.3 9.4 0 .7-.7 1.1-1.3 1.7 2.6.5 5 2.7 5.9 5.2.7 1.9-.2 3.8-1.7 5.4 2.6 0 5.4 2.2 5.4 3.8 0 2.6.1 4.7-1.9 6.2m-27.8-1.1c3.1-14.1 9.6-25.2 17.1-33 0 0 11.3 7.9 16.2 32.6m-31.9.7c2.9-11.7 8.2-23.3 15.7-31.1 0 0 8.7 4.1 14.9 30.9m-73.8 17.5l5.7 6.7 6.9 8.8m-12.7-17.5l13.4 17m-53.2 11l.3-55.9m2.2-4.2l-.1 64.6m2.8-35.5v24m-2-26c.3-.1.4-.2.7-.2 1.3 0 2.5 0 2.5 1.2 0 .8-1.3.8-2.2.8-.6 0-1.2-.3-1.4-.8v-.7m3.4-1.6c-.2.1-.4.3-.4.5v.4m-2.9-.1c.9-1.2 2.3-2.4 3.9-2.9 0 0 1.5-.3 1.2 1.1-.1.7-.4 1.1-1 1.1-.4 0-.6-.1-.6-.3v-.4m-3.7-.8c.7-2.6 2.3-4.7 5.3-4.7 1.3 0 1.6.9 1.6 2s-.9 1.4-1.9 1.4c-.6 0-.9-.3-.9-.9 0-.7.6-.8 1.1-.8m-5.1-4.6h6s.9.1.9 1.3c0 .5-.7 1.1-.7 1.1h-6.3m75 8.3h6.5s.4.1.4 1.2c0 .5-.3 1-.3 1h-6.7s-.3-.6-.3-1.1c-.1-.9.4-1.1.4-1.1zm6-1.9c-.1.7-.2.9-.4 1.4m-5.3-1.4c.3.5.4 1 .4 1.7m2-1c-.4-1.4-1.5-2.2-3.2-2.2-.8 0-1 .4-1 1 0 .9.5.8 1.2.8.4 0 .3-.5.4-.9m2.8 0c-.6-2.4-1.1-5.3-4.1-5.3-1.6 0-2.3 1.1-2.3 2.4 0 1.1 1.2 1.6 2.2 1.6.5 0 .9-.5.9-1.1 0-.4-.4-.8-.5-1m3.9 5.1c.7-1.4 1.9-2.7 3.8-2.7.8 0 1 .5 1 1.2s-.4 1-1 1h-.6V105m-3.2-.7c.4-1.7 2.3-4.3 4.2-4.3 1.5 0 2 1 2 2.2 0 .7-.9 1.5-1.5 1.5s-1-.4-1-.9v-.7m-3.7-2.4v7.1m-14.7-21.1c.5-1.5 2.1-3.2 2.7-4.6-.9-.7-2.1.6-2.5 1.5-1-.5-1.5-1-2.8-1.3.1-.2 1.1-1.1.9-1.3-.5-.5-1.7-1.1-1.7-2.5l-1 1.4c-.4 0-.6 0-1 0-.4.7 0 1 .1 1.8-1.5-.2-1.5-1.1-4.6-.4-.6.2-.3-1.2-.9-1.5-.4-.2-1.4-.7-1.3-.2.5 1.8.9 3.4 1.4 5.3h.7c.7-.2 3 0 3.6 0 2.5.2 4.4 1.2 6.4 1.8zm-1.9 9.6l.3-.4.7.3m-.6-1.4c.3-.6.9-.7 1.4-.9m-.9-1.6c.2-.8.8-.9 1.2-1.4m-10.7 3.2c-.1.6 0 1.1-.5 1.1-.1 0-1.1-1-1.1-1m1.8-1.5c-.1.2-.5.7-.9.7-.3 0-.5-.5-.5-.9m1.5-1.1c-.3-.4-1-.6-1.1-.9m1.4-1.3c-.5-.2-.7-.5-.7-.9v-.4m-.3-2.8c-1.3 2.6-2.9 4.2-2.9 8 0 2.3 1.4 3.1 3.2 3.6m7.7.6c.4.2.7.4.9.7 2.6-1.4 3.5-4.2 3.3-7.3-.1-1.4-1-3.5-1-3.5m-10.6 7.6c1 1.4 3.3 3.2 5.6 3.2 2.5 0 4-3.9 3.7-7.1-.2-2.1-.8-2.8-1.7-3.8-.5-.6-.8-.7-1.2-1.5m-.6-.2c-.7.5-1.6.5-2 1.1-.4.5-1.7.7-2.1 1.2-1.4 1.6-1.5 3-1.5 5.6 0 1.1-.2 1.5-.3 2.5l.4 3.1m17.1-.8h13.6s.9.1.9 1.3c0 .5-.7 1.1-.7 1.1h-14s-.6-.7-.7-1.2c-.2-1 .9-1.2.9-1.2zm-27.8 0c-2.6-1.4-3.8-4.1-3.1-7 .6-2.5 2.1-4.1 4.7-4.7-2.3-1.5-3-5-2.4-6.7.5-1.5 3.8-4.7 6.9-4-2.1-1.2-3.1-4.3-1.9-6.7 1.3-2.7 3-4.1 6.4-4.7-.6-.7-.8-1.2-1-2.1-.6-2.5 2.8-6 2.8-6l2.2-2.9c1.5.5 4.9 6.2 5.2 9.4.1.8-.6 1-1.2 1.5 3.4 0 5.6 3.3 6.4 5.9.6 2.1-.7 4.9-2.4 5.5 3.2-.3 6.6 3.2 6.6 4.8 0 2.8-.7 3.8-3 6.5 2.3.4 3.8 1.6 4.6 3.8 1 2.8 0 5.7-2.6 7.2m-64.7-.3c-1.7-1.8-1.9-4.7-1.4-6.3.5-1.4 2.8-4.1 5.5-4.4-1.5-1.8-2.2-3.5-1.2-5.8 1.1-2.5 3.3-4 6.2-4.5-.2 0-.3 0-.4-.1-2.9-.7 1.3-7.4 1.3-7.4l1.9-2.8c1.3.4 4.2 5.9 4.5 8.9 0 .7-.6.9-1 1.4 3 .3 4.8 3.1 5.5 5.6.5 1.9-.3 3.4-1.7 4.9 2.8.4 5.3 3.3 5.3 4.9 0 2.6 0 4.5-1.9 6.3m-11.9-6.4l2.8-2.4-2.8-1.1 2.8-.3-2.1-2.9-.9 3-.4-3-2.7 2.4 2.8.9-2.9.5 2.1 2.6.9-2.9.4 3.2zm.8-.1c0-.8.6-1.4 1.2-1.4.7 0 1.2.6 1.2 1.4 0 .8-.6 1.4-1.2 1.4s-1.2-.6-1.2-1.4zm5.5 7.6l2.9.9m-.2-3.5l.4 3.4m-4.7-7.3l3.6 4.5m-4.4-3.7l3.6 4.1m-4.5-3.4l3.6 4.3m-4.3-3.8l2.9-2.5m-3.5 1.7l3-2.5 4.3 5.1-3 2.7-4.3-5.3zm7.8 7.3l6 7.3m-5.1-8.2l5.6 7.1m-7-6.6c0-.4.3-.7.6-.7.4 0 .6.3.6.7 0 .4-.3.6-.6.6s-.6-.3-.6-.6zm9.6 7.6c.3-.6.9-.5 1.5-.4m-1 14.4c1 4.3 0 7.3 0 11.9m-3.8-23.1v17.8m-16.8 2.2c0-.1.1-.3.2-.3s.2.1.2.3c0 .1-.1.3-.2.3-.1-.1-.2-.2-.2-.3zm-3 2.4c0-.1.1-.3.2-.3s.2.1.2.3c0 .1-.1.3-.2.3-.1-.1-.2-.2-.2-.3zm-3 2.3c0-.1.1-.3.2-.3s.2.1.2.3c0 .1-.1.3-.2.3-.1-.1-.2-.2-.2-.3zm0 0c0-.1.1-.3.2-.3s.2.1.2.3c0 .1-.1.3-.2.3-.1-.1-.2-.2-.2-.3zm-1.7 4c-.5-.7-.5-1.7-1.3-2.1-.7-.4-1.3-.2-1.7-.6.7-.7.9-.7 2.7-.7.8 0 1.5-1.2 2.3-1.7.3-.2 1.9-1.2 1.9-1.6 0-.6-1.9-.6-2.2-1l1-.4c-.4-.3-.6-.5-.6-1 0-.4.5-.9 1-.9.1 0 1 .8 1 1 .1-.7.5-.8.9-1 0 .9-.1 1.7-.1 2.3 1-.3 3.8-2.4 4.3-3.3.7-1.4.1-1.8 1.6-2.3v1.1c.3 1.1 1.1 1.6 1.5 2.4m-12.7 8.9l12.1-9.4m-11.6 10.4l12.2-9.8m.3 7.3c1.2.3 2 .9 3.4.9.8 0 1.1-1.1 1.7-1.5 1.1-.8 1.7-.8 1.8-.9.3-.3.1-4-.3-3.8-1.3.5-.4 1.4-.4 1.9l-1.6.5c-.4-.3-.6-.8-1.1-.8-.2 0-.5.1-.8.1l-.2.8c.2.7.4.5.7 1.1-.5.4-.5 1.3-1.3 1.3-.4 0-.8-.2-1.2-.2l-.7.6zm2.6 6.4c1.2.3 2 .9 3.4.9.8 0 1.1-1.1 1.6-1.5 1.1-.8 1.7-.8 1.8-.9.3-.3.1-4-.4-3.8-1.3.5-.4 1.4-.4 1.9l-1.6.5c-.4-.3-.5-.8-1.1-.8-.2 0-.5.1-.8.1l-.2.8c.2.7.4.5.7 1-.6.4-.6 1.3-1.3 1.3-.4 0-.8-.2-1.2-.2l-.5.7zm-1.6 8.3c1.2.3 2 .9 3.4.9.8 0 1.1-1.1 1.6-1.5 1.1-.8 1.7-.8 1.8-.9.3-.3.1-4-.4-3.8-1.3.5-.4 1.4-.4 1.9l-1.5.5c-.4-.3-.6-.8-1.1-.8-.2 0-.5.1-.8.1l-.2.8c.2.7.4.5.7 1.1-.5.4-.5 1.3-1.3 1.3-.4 0-.8-.2-1.2-.2l-.6.6zm-8.3-.3c1.2.3 2 .9 3.4.9.8 0 1.1-1.1 1.6-1.5 1.1-.8 1.7-.8 1.8-.9.3-.3.1-4-.4-3.8-1.3.5-.4 1.4-.4 1.9l-1.5.5c-.4-.3-.6-.8-1.1-.8-.2 0-.5.1-.8.1l-.2.8c.2.7.4.5.7 1.1-.6.4-.6 1.3-1.3 1.3-.4 0-.8-.2-1.2-.2l-.6.6zm-5.3-4.3c1.2.3 2 .9 3.4.9.8 0 1.1-1.1 1.6-1.5 1.1-.8 1.7-.8 1.8-.9.3-.4.1-4-.3-3.9-1.3.5-.5 1.4-.5 1.9l-1.5.5c-.4-.3-.5-.8-1.1-.8-.2 0-.6.1-.8.1l-.2.8c.2.7.4.5.7 1-.6.4-.6 1.3-1.3 1.3-.4 0-.8-.2-1.2-.2l-.6.8zm11.1-6.3c-.8-6 1.7-11.2 5.5-11.6 3.8-.4 7.8 3.5 8.3 8.5.9 5.6-1 12.3-3.8 16.5-4.7 1.6-10.7 2.1-16.2-.2-5.9-2.6-8-7.3-6.6-10.9 1.3-3.5 7.4-4.4 12.8-2.3z" stroke-linecap="round" stroke-linejoin="round"/><path fill="none" stroke="#fff" stroke-width=".339" stroke-miterlimit="3.864" d="M763.9 140.6c.1 0 .2 0 .3-.1m-2.6.4c.3-.2.4-.1.7 0m-.8-.8c.4.3.4.2.7.2m1 .9c-.1.3-.2.5-.1.7.1.2-.2.1-.2.2m.9-.3l-.3-.5m0-2c.2.5.7.6.7 1.1 0 .6-.5 1.4-.5 1.9-.1-.5-.2-1-.4-1.2-.1-.1-.4-.2-.5-.2-.4-.2-.5-.6-.4-1.1l-.3-.2.5-.4c.5.7.6 1.2 1.4 1.5m13.8 1.4c.1 0 .2 0 .3-.1m-2.6.4c.3-.2.4-.1.7 0m-.8-.8c.4.3.4.2.7.2m1 .9c-.1.3-.2.5-.1.7.1.2-.2.1-.2.2m.8-.4l-.3-.5m.1-1.9c.2.5.7.6.7 1.1 0 .6-.5 1.4-.5 1.9-.1-.5-.2-1-.4-1.2-.1-.1-.4-.2-.5-.2-.4-.2-.5-.6-.4-1.1l-.3-.2.5-.4c.5.7.6 1.2 1.4 1.5m-10.1 5.2h.5c.1.1.3.3.4.3.2-.3.3-.5.3-.9.2 0 .3.1.4.1l.1.6h.3l.5-.3.1.6c-.1.4 0 .7 0 1.1 0 .1-.1.2-.1.3h-1c0-.3-.1-.4-.2-.5l-.1.4c-.2.2-.5.1-.7.1h-.4l-.1-1.8m1.7-13.5h.5c.1.1.3.3.4.4.2-.4.3-.5.3-.9.2 0 .3.1.4.1l.1.7h.3l.5-.3.1.6c-.1.4 0 .7 0 1.1 0 .1-.1.2-.1.3h-1c0-.3-.1-.4-.2-.5l-.1.4c-.2.2-.5.1-.7.1h-.4l-.1-2" stroke-linecap="round" stroke-linejoin="round"/><path fill="none" stroke="#fff" stroke-width=".689" stroke-miterlimit="3.864" d="M727.3 129.8l.8-.6" stroke-linecap="round" stroke-linejoin="round"/></svg>