<svg xmlns="http://www.w3.org/2000/svg" viewBox="0 0 512 512"><path d="M306.5,496.7H82.6C37.2,496.7.2,460,.2,415V193.2c0-45,37-81.7,82.4-81.7H306.5c45.4,0,82.4,36.6,82.4,81.7V415C388.9,460,352,496.7,306.5,496.7Z" fill="#00a79d"/><path d="M82.6,136.2c-31.7,0-57.5,25.6-57.5,56.9V415c0,31.4,25.8,56.9,57.5,56.9H306.5c31.7,0,57.5-25.5,57.5-56.9V193.2c0-31.4-25.8-56.9-57.5-56.9Z" fill="#fff"/><path d="M497.9,15.3,476.5,26.1c-111.9,56.3-236,186.8-303.9,297.2C166,311,164,307,157.8,293.5,131.4,246.4,95.5,204.4,78,188.3l-31.8,8.6.7,1.9c17.9,25.3,47.8,80.1,88.4,197.6a118.9,118.9,0,0,0,9.3,15.2c9.3,12.8,20,16.7,27.4,17.6,21,2.7,35.6-12.1,46.6-30.3C300.4,203.3,449.1,80.5,511.8,40Z" fill="#154854"/></svg>