<svg xmlns="http://www.w3.org/2000/svg" viewBox="0 0 512 53.4"><g fill="#154854"><path d="M62.3,45.4a15.1,15.1,0,0,1-7-1.7A11,11,0,0,1,50.7,39,16.3,16.3,0,0,1,49,31.7v-1a17.1,17.1,0,0,1,1.6-7,10.7,10.7,0,0,1,4.5-4.9A12.9,12.9,0,0,1,62,17.1a14.7,14.7,0,0,1,5.1.8,11.8,11.8,0,0,1,4.4,2.4V27H67.4l-.6-4.2a5.7,5.7,0,0,0-1.3-.8L64,21.5l-1.9-.2a5.6,5.6,0,0,0-4,1.2,6.6,6.6,0,0,0-2.6,3.3,13.3,13.3,0,0,0-.9,4.9v1a14.3,14.3,0,0,0,.9,5A8.6,8.6,0,0,0,58.2,40a6.8,6.8,0,0,0,4.2,1.1,9.7,9.7,0,0,0,2.4-.2l2-.7.6-3.9h4.1v6.6a14.4,14.4,0,0,1-4,1.8A18.6,18.6,0,0,1,62.3,45.4Z"/><path d="M73.9,45V41.7l2.7-.6V19.4l-3-.6V15.5h8.5V41.1l2.7.6V45Z"/><path d="M86.3,45V41.7l2.7-.6V28.4l-2.9-.6V24.6h8.4V41.1l2.7.6V45Zm2.1-24.3,3.8-5.2h5.9l-5.3,5.1H88.4Z"/><path d="M98.8,45V41.7l2.7-.6V28.4l-3-.6V24.6h8.2l.2,2.9a6.2,6.2,0,0,1,2.4-2.4,6.3,6.3,0,0,1,3.5-.9,6.1,6.1,0,0,1,4.8,1.9c1.1,1.3,1.7,3.3,1.7,6.1v8.9l2.6.6V45H111.4V41.7l2.3-.6V32.2c0-1.4-.2-2.4-.8-2.9a3.4,3.4,0,0,0-2.4-.9,5.4,5.4,0,0,0-2.1.5,4.7,4.7,0,0,0-1.4,1.4V41.1l2.2.6V45Z"/><path d="M123.6,45V41.7l2.6-.6V28.4l-2.9-.6V24.6h8.4V41.1l2.6.6V45Zm2.5-24.8V15.5h5.6v4.7Z"/><path d="M145.8,45.4a9.9,9.9,0,0,1-5.1-1.3,9.1,9.1,0,0,1-3.3-3.7,11.2,11.2,0,0,1-1.1-5.4v-.5a14.5,14.5,0,0,1,1.1-5.4,8.4,8.4,0,0,1,3.4-3.6,8.7,8.7,0,0,1,5-1.3,9.6,9.6,0,0,1,4.7.9,8.3,8.3,0,0,1,3.2,2v5.7h-4.1l-.7-3.6-1.2-.8-1.4-.2a4.3,4.3,0,0,0-2.5.7,4,4,0,0,0-1.5,2.2,10,10,0,0,0-.5,3.4V35a10.3,10.3,0,0,0,.6,3.5,3.5,3.5,0,0,0,1.4,2,3.7,3.7,0,0,0,2.1.6,3.3,3.3,0,0,0,2.3-.7,6.1,6.1,0,0,0,1.3-2.2h4.6a8.9,8.9,0,0,1-1.2,3.8,6,6,0,0,1-2.6,2.4A11.8,11.8,0,0,1,145.8,45.4Z"/><path d="M163.5,45.4a7.2,7.2,0,0,1-4.9-1.6,6.2,6.2,0,0,1-.7-7.9,7.9,7.9,0,0,1,3.1-2.3,12.4,12.4,0,0,1,5.1-.8h2.7V31.2a4.4,4.4,0,0,0-.9-2.4,4.1,4.1,0,0,0-2.6-.9l-1.6.2-1.3.7-.4,2.7h-4V26.2a11.7,11.7,0,0,1,3.5-1.4,15.2,15.2,0,0,1,4.2-.6,8.9,8.9,0,0,1,6.3,1.9,6.2,6.2,0,0,1,2.3,5.2v9.3c0,.3.1.5.1.8l2.1.3V45h-6.7a2.5,2.5,0,0,1-.4-1.1,3.1,3.1,0,0,1-.3-1.3,12.1,12.1,0,0,1-2.4,2.1A7.1,7.1,0,0,1,163.5,45.4Zm1.5-4.1a5.9,5.9,0,0,0,2.2-.5,4.3,4.3,0,0,0,1.6-1.4V36.2H166a3.6,3.6,0,0,0-2.7.8,2.6,2.6,0,0,0-1,2,2.3,2.3,0,0,0,.7,1.7A3.6,3.6,0,0,0,165,41.3Z"/></g><g fill="#00a79d"><path d="M187.8,45V41.7l3-.6V21.4l-3-.6V17.5h11l7.6,19.1h.1l7.3-19.1h11v3.3l-2.9.6V41.1l2.9.6V45H213.5V41.7l3-.6V23.5h-.1l-8.2,21.2H204l-8.4-21h-.1l.3,11.6v5.9l3.3.6v3.3Z"/><path d="M233.8,45.4a6.8,6.8,0,0,1-4.8-1.6,6.4,6.4,0,0,1-.8-7.9,7.2,7.2,0,0,1,3.1-2.3,12.2,12.2,0,0,1,5-.8H239V31.2a3.8,3.8,0,0,0-.9-2.4,3.4,3.4,0,0,0-2.4-.9l-1.6.2-1.3.7-.5,2.7h-3.9V26.2a8.9,8.9,0,0,1,3.5-1.4,9.5,9.5,0,0,1,4.1-.6,8.9,8.9,0,0,1,6.3,1.9,6.2,6.2,0,0,1,2.4,5.2V41.4l2.2.3V45H240c-.1-.4-.3-.7-.4-1.1a3.1,3.1,0,0,1-.3-1.3,9.3,9.3,0,0,1-2.3,2.1A7.1,7.1,0,0,1,233.8,45.4Zm1.5-4.1a5,5,0,0,0,2.1-.5,3.6,3.6,0,0,0,1.6-1.4V36.2h-2.7a3.9,3.9,0,0,0-2.7.8,2.5,2.5,0,0,0-.9,2,1.9,1.9,0,0,0,.7,1.7A3.1,3.1,0,0,0,235.3,41.3Z"/><path d="M249.2,45V41.7l2.6-.6V28.4l-2.9-.6V24.6H257l.2,2.5v.5A6.8,6.8,0,0,1,259,25a4.5,4.5,0,0,1,2.7-.8h1.1l1,.2-.6,5-2.7-.2a4.3,4.3,0,0,0-1.9.4,5.7,5.7,0,0,0-1.3,1.4V41l2.6.6v3.3Z"/><path d="M274,45.4a6,6,0,0,1-4.4-1.6c-1.1-1-1.6-2.7-1.6-5V28.4h-2.8V24.6H268V19.5h5.5v5.1h3.8v3.8h-3.8V38.8a2.2,2.2,0,0,0,.5,1.7,1.6,1.6,0,0,0,1.4.5h1l.9-.2.5,4-1.9.4Z"/><path d="M279.6,45V41.7l2.7-.6V28.4l-3-.6V24.6h8.5V41.1l2.7.6V45Zm2-24.3,3.8-5.2h5.9l-5.2,5.1h-4.5Z"/><path d="M292.1,45V41.7l2.7-.6V28.4l-3-.6V24.6h8.1l.2,2.9a6.9,6.9,0,0,1,5.9-3.3,5.5,5.5,0,0,1,4.8,1.9c1.2,1.3,1.7,3.3,1.7,6.1v8.9l2.7.6V45H304.6V41.7l2.4-.6V32.2a4.4,4.4,0,0,0-.8-2.9,3.5,3.5,0,0,0-2.5-.9,4.9,4.9,0,0,0-2,.5,6.7,6.7,0,0,0-1.5,1.4V41.1l2.2.6V45Z"/><path d="M326.5,45.4a10.2,10.2,0,0,1-5.1-1.3,8.8,8.8,0,0,1-3.3-3.6,9.5,9.5,0,0,1-1.2-5.2v-.7a11.8,11.8,0,0,1,1.1-5.5,9.2,9.2,0,0,1,3.2-3.6,8.1,8.1,0,0,1,4.8-1.3,8.4,8.4,0,0,1,4.7,1.1,6.7,6.7,0,0,1,2.9,3.1,10.9,10.9,0,0,1,1,5v3H322.5a6.7,6.7,0,0,0,.7,2.4,4.4,4.4,0,0,0,1.6,1.7,5.2,5.2,0,0,0,2.4.5,13.6,13.6,0,0,0,2.9-.3,12.3,12.3,0,0,0,2.6-1.2l1.5,3.4a12.3,12.3,0,0,1-3.2,1.7A13.3,13.3,0,0,1,326.5,45.4Zm-3.9-12.7h6.8v-.5a7.6,7.6,0,0,0-.3-2.1,3.6,3.6,0,0,0-1.1-1.4,4.1,4.1,0,0,0-1.9-.5,3,3,0,0,0-1.8.6,6.1,6.1,0,0,0-1.2,1.6,9,9,0,0,0-.6,2.2Z"/><path d="M337.6,45V41.7l10.6-13.4h-5.5l-.5,3.6h-4.1V24.6h16.8V28L344.8,41h5.8l.8-3.7h3.9V45Z"/><path d="M367.4,45V41.7l2.9-.6V21.4l-2.9-.6V17.5h11.1l7.4,19.1h.2l7.2-19.1h11.2v3.3l-3,.6V41.1l3,.6V45H393.1V41.7l3-.6V23.5H396l-8.2,21.2h-4.1l-8.5-21h-.1l.3,11.6v5.9l3.3.6v3.3Z"/><path d="M413.4,45.4a7.2,7.2,0,0,1-4.9-1.6,6.3,6.3,0,0,1-.7-7.9,7.9,7.9,0,0,1,3.1-2.3,12.7,12.7,0,0,1,5.1-.8h2.7V31.2a3.8,3.8,0,0,0-.9-2.4,3.9,3.9,0,0,0-2.6-.9l-1.6.2-1.3.7-.4,2.7h-4V26.2a11.7,11.7,0,0,1,3.5-1.4,15.2,15.2,0,0,1,4.2-.6,9.3,9.3,0,0,1,6.4,1.9,6.5,6.5,0,0,1,2.3,5.2v9.3a2.2,2.2,0,0,0,.1.8l2.1.3V45h-6.8l-.5-1.1-.3-1.3a7.7,7.7,0,0,1-2.3,2.1A7.1,7.1,0,0,1,413.4,45.4Zm1.5-4.1a5.4,5.4,0,0,0,2.2-.5,5.4,5.4,0,0,0,1.6-1.4V36.2h-2.8a3.8,3.8,0,0,0-2.7.8,2.6,2.6,0,0,0-1,2,2.8,2.8,0,0,0,.7,1.7A3.6,3.6,0,0,0,414.9,41.3Z"/><path d="M428.7,45V41.7l2.7-.6V28.4l-3-.6V24.6h8.1l.2,2.5v.5a6.3,6.3,0,0,1,1.9-2.6,4.2,4.2,0,0,1,2.6-.8h1.1l1.1.2-.6,5-2.8-.2a4.1,4.1,0,0,0-1.9.4,5.7,5.7,0,0,0-1.3,1.4V41l2.7.6v3.3Z"/><path d="M454.3,45.4a8.7,8.7,0,0,1-8.3-5,10.2,10.2,0,0,1-1.2-5.4v-.5a10.4,10.4,0,0,1,1.2-5.4,8.2,8.2,0,0,1,3.3-3.6,8.7,8.7,0,0,1,5-1.3,9.6,9.6,0,0,1,4.7.9,8.6,8.6,0,0,1,3.3,2v5.7h-4.2l-.8-3.6-1.1-.8-1.4-.2a4.5,4.5,0,0,0-2.5.7,5.4,5.4,0,0,0-1.5,2.2,10,10,0,0,0-.5,3.4V35a13.4,13.4,0,0,0,.5,3.5,5,5,0,0,0,1.5,2,4.1,4.1,0,0,0,4.4-.1,4,4,0,0,0,1.2-2.2h4.8a10.7,10.7,0,0,1-1.3,3.8,5.3,5.3,0,0,1-2.7,2.4A9.5,9.5,0,0,1,454.3,45.4Z"/><path d="M474.9,45.4a9.9,9.9,0,0,1-5.1-1.3,8.6,8.6,0,0,1-3.4-3.7,11.5,11.5,0,0,1-1.1-5.5v-.4a11.4,11.4,0,0,1,1.1-5.4,9.5,9.5,0,0,1,3.3-3.6,9,9,0,0,1,5.1-1.3,8.9,8.9,0,0,1,5.3,1.3,10.3,10.3,0,0,1,3.3,3.6,14.5,14.5,0,0,1,1.1,5.4v.4a14.6,14.6,0,0,1-1.1,5.5,9.1,9.1,0,0,1-3.3,3.7A10.6,10.6,0,0,1,474.9,45.4Zm0-4.3a3.5,3.5,0,0,0,2.3-.7,4.4,4.4,0,0,0,1.4-2.2,9.3,9.3,0,0,0,.4-3.3v-.4a11.7,11.7,0,0,0-.4-3.2,5.9,5.9,0,0,0-1.4-2.2,4,4,0,0,0-2.4-.7,3.9,3.9,0,0,0-2.3.7,7.4,7.4,0,0,0-1.4,2.2,11.6,11.6,0,0,0-.3,3.2v.4a9.3,9.3,0,0,0,.3,3.3,6.4,6.4,0,0,0,1.4,2.2A4.2,4.2,0,0,0,474.9,41.1Z"/><path d="M495.7,45.4a19.9,19.9,0,0,1-4.2-.4,15.5,15.5,0,0,1-3.8-1.3V37.9h3.8l.8,3,1.3.5,1.7.2a3.9,3.9,0,0,0,2.6-.6,1.6,1.6,0,0,0,.8-1.6,1.9,1.9,0,0,0-.8-1.5,6.8,6.8,0,0,0-3.2-1.1,10.7,10.7,0,0,1-5.3-2.4,5.1,5.1,0,0,1-1.7-4,5.5,5.5,0,0,1,.8-3.1,5.8,5.8,0,0,1,2.7-2.2,8.5,8.5,0,0,1,4.4-.9,15.4,15.4,0,0,1,4.3.5,12.1,12.1,0,0,1,3.2,1.1v5.6h-3.9l-.6-2.7a2.3,2.3,0,0,0-1.2-.6l-1.4-.2a4.6,4.6,0,0,0-2.3.6A2.3,2.3,0,0,0,493,30a3,3,0,0,0,.2,1,3.1,3.1,0,0,0,1.1.9l2.4.7a16.2,16.2,0,0,1,5.6,2.3A5.4,5.4,0,0,1,504,39a5.5,5.5,0,0,1-2.1,4.6C500.5,44.8,498.5,45.4,495.7,45.4Z"/></g><path d="M31.5,44.9H14.3A6.3,6.3,0,0,1,8,38.6H8V21.7a6.3,6.3,0,0,1,6.3-6.3H31.5a6.3,6.3,0,0,1,6.3,6.3V38.6a6.3,6.3,0,0,1-6.3,6.3Z" fill="#00a79d"/><path d="M14.3,17.2a4.4,4.4,0,0,0-4.4,4.4v17A4.4,4.4,0,0,0,14.3,43H31.5a4.4,4.4,0,0,0,4.3-4.4V21.7a4.5,4.5,0,0,0-4.3-4.5Z" fill="#fff"/><path d="M46.1,8l-1.6.8c-8.6,4.3-18.1,14.3-23.3,22.8l-1.1-2.3a39.4,39.4,0,0,0-6.1-8l-2.5.6v.2c1.4,1.9,3.8,6,6.8,15.1l.7,1.2a2.7,2.7,0,0,0,2.2,1.2c1.5.3,2.7-.8,3.5-2.2A64.3,64.3,0,0,1,47.2,9.9Z" fill="#154854"/></svg>