<svg xmlns="http://www.w3.org/2000/svg" viewBox="0 0 512 512"><g fill="#154854"><path d="M106.3,309.7a41,41,0,0,1-20.6-4.9,34.6,34.6,0,0,1-13.6-14,47.4,47.4,0,0,1-4.7-21.6v-2.7c0-7.9,1.5-15,4.6-21a34.3,34.3,0,0,1,13.2-14.3c5.7-3.6,12.4-5.2,20.3-5.2a47.8,47.8,0,0,1,15.5,2.3,42.2,42.2,0,0,1,13,7.1v19.7H121.8l-1.7-12.4a24.5,24.5,0,0,0-8.7-3.7,33.1,33.1,0,0,0-5.5-.5A20.2,20.2,0,0,0,94,242a21.4,21.4,0,0,0-7.6,9.5,38.2,38.2,0,0,0-2.7,14.9v2.8A35.8,35.8,0,0,0,86.5,284a21.3,21.3,0,0,0,20.1,13.2,33.6,33.6,0,0,0,7.1-.8,34.3,34.3,0,0,0,6.4-2.1l1.7-11.4H134v19.4a47,47,0,0,1-11.9,5.3A52.4,52.4,0,0,1,106.3,309.7Z"/><path d="M141,308.6v-9.8l7.9-1.7V232.9l-8.8-1.7v-9.9h25.1v75.8l7.9,1.7v9.8Z"/><path d="M177.8,308.6v-9.8l8-1.7V259.5l-8.7-1.6v-9.8h25v49l7.9,1.7v9.8Zm6.1-72.1L195,221.3h17.3v.3l-15.4,14.9Z"/><path d="M214.7,308.6v-9.8l7.9-1.7V259.5l-8.7-1.6v-9.8h23.8l.8,8.6a22.1,22.1,0,0,1,7.4-7.2,20.1,20.1,0,0,1,10.2-2.6c6,0,10.7,2,14.1,5.8s5.1,9.8,5.1,18v26.4l7.9,1.7v9.8H252v-9.8l6.9-1.7V270.8q0-6-2.4-8.7c-1.6-1.8-4-2.5-7.1-2.5a12.5,12.5,0,0,0-6.1,1.5,11.8,11.8,0,0,0-4.4,4.2v31.8l6.6,1.7v9.8Z"/><path d="M287.9,308.6v-9.8l7.9-1.7V259.5l-8.7-1.6v-9.8h25v49l7.9,1.7v9.8Zm7.3-73.4V221.3h16.9v13.9Z"/><path d="M353.9,309.7a27.7,27.7,0,0,1-15.1-3.9A26.2,26.2,0,0,1,329,295a34.3,34.3,0,0,1-3.3-15.8v-1.7a33.4,33.4,0,0,1,3.4-15.8,27.1,27.1,0,0,1,9.8-10.9,28.5,28.5,0,0,1,14.8-3.9,35.3,35.3,0,0,1,14.1,2.6,31.5,31.5,0,0,1,9.6,5.9v17.3H365l-2.2-10.8a8.7,8.7,0,0,0-3.4-2.2,11.6,11.6,0,0,0-4.2-.8,12,12,0,0,0-7.4,2.2,12.7,12.7,0,0,0-4.4,6.3,31.6,31.6,0,0,0-1.4,10.1v1.7a27.2,27.2,0,0,0,1.5,10.2,13.5,13.5,0,0,0,4.4,5.9,11.1,11.1,0,0,0,13-.4,12.5,12.5,0,0,0,3.6-6.4h13.9l.2.4a29.3,29.3,0,0,1-3.8,11.1,18.9,18.9,0,0,1-7.9,7.2A29,29,0,0,1,353.9,309.7Z"/><path d="M406.2,309.7c-6,0-10.8-1.5-14.3-4.8s-5.4-7.6-5.4-13.1a17.1,17.1,0,0,1,3.2-10.1,18.5,18.5,0,0,1,9.1-6.7c4-1.7,9.1-2.5,15-2.5h8V268a9.9,9.9,0,0,0-2.6-7.1c-1.7-1.8-4.2-2.6-7.6-2.6a12.4,12.4,0,0,0-4.7.6,16.3,16.3,0,0,0-3.8,1.7l-1.3,8H390.1l-.3-15.7a55.6,55.6,0,0,1,10.4-4.3,42.5,42.5,0,0,1,12.3-1.7c7.9,0,14.1,1.9,18.7,5.5s6.9,8.9,6.9,15.7v27.4a19.4,19.4,0,0,0,.2,2.4l6.3.9v9.8H424.4l-1.2-3.4a23.7,23.7,0,0,1-.9-3.6,23,23,0,0,1-6.9,5.9A18.4,18.4,0,0,1,406.2,309.7Zm4.3-12a15.3,15.3,0,0,0,6.6-1.6,12.9,12.9,0,0,0,4.7-4v-9.6h-8.1q-5.4,0-8.1,2.4a7.8,7.8,0,0,0-2.8,6,6.3,6.3,0,0,0,2,5,8.5,8.5,0,0,0,5.7,1.8Z"/></g><g fill="#00a79d"><path d="M8,405.7v-9.8l8.7-1.7V335.7L8,334.1v-9.8H40.8L63,381h.3l21.6-56.7h32.9v9.8l-8.8,1.6v58.5l8.8,1.7v9.8H84v-9.8l9.1-1.7V378.6l.3-36.8h-.3L68.8,404.6H56.4L31.5,342.3h-.4l1,34.6v17.3l9.6,1.7v9.8Z"/><path d="M144.2,406.9c-6.1,0-10.8-1.6-14.4-4.9s-5.2-7.6-5.2-13.1a16.5,16.5,0,0,1,3.1-10.1,19.6,19.6,0,0,1,9.1-6.7c4.1-1.7,9-2.5,15-2.5h8v-4.4a9.6,9.6,0,0,0-2.6-7.1c-1.7-1.8-4.3-2.7-7.6-2.7a19.7,19.7,0,0,0-4.8.6,10.9,10.9,0,0,0-3.7,1.9l-1.3,7.9H128V350a61.1,61.1,0,0,1,10.2-4.3,47,47,0,0,1,12.4-1.7c7.9,0,14.1,1.9,18.8,5.6s6.8,8.8,6.8,15.7v25c0,.8.1,1.5.1,2.3a9.7,9.7,0,0,0,.2,2.4l6.3.9v9.8H162.4c-.4-1.1-.9-2.2-1.3-3.4a35.9,35.9,0,0,1-.8-3.5,23,23,0,0,1-6.9,5.9A19.5,19.5,0,0,1,144.2,406.9Zm4.3-12.1a14.5,14.5,0,0,0,6.5-1.6,11.8,11.8,0,0,0,4.8-4v-9.6h-8c-3.7,0-6.4.9-8.2,2.5a7.6,7.6,0,0,0-2.8,5.9,6.4,6.4,0,0,0,2.1,5A8.2,8.2,0,0,0,148.5,394.8Z"/><path d="M189.7,405.7v-9.8l7.8-1.7V356.7l-8.7-1.7v-9.8h23.9l.6,7.4.2,1.4a18.5,18.5,0,0,1,5.5-7.4,13.1,13.1,0,0,1,7.9-2.6l3.2.3,3.1.6L231.4,360l-8.1-.5a10.7,10.7,0,0,0-5.6,1.2,12.9,12.9,0,0,0-3.8,3.9v29.6l7.8,1.7v9.8Z"/><path d="M263.1,406.9c-5.6,0-10-1.6-12.9-4.7s-4.7-8-4.7-14.7V356.7h-8.3V345.2h8.3V330.4h16.3v14.8H273v11.5H261.8v30.7c0,2.4.5,4,1.5,5a5.2,5.2,0,0,0,4.1,1.6l2.9-.2,2.7-.5,1.4,11.9a48.8,48.8,0,0,1-5.5,1.2A54.4,54.4,0,0,1,263.1,406.9Z"/><path d="M280,405.7v-9.8l7.8-1.7V356.7l-8.7-1.7v-9.8h25.1v49l7.8,1.7v9.8Zm6-72,11.1-15.3h17.3v.3l-15.4,15Z"/><path d="M316.9,405.7v-9.8l7.8-1.7V356.7L316,355v-9.8h23.9l.7,8.6a23.5,23.5,0,0,1,7.5-7.2,20.8,20.8,0,0,1,10.1-2.6c6,0,10.7,2,14.1,5.9s5.1,9.7,5.1,17.9v26.4l7.8,1.7v9.8H354v-9.8l7-1.7V367.9c0-4-.8-6.9-2.4-8.6a10,10,0,0,0-7.2-2.5,11.1,11.1,0,0,0-6.1,1.5,13,13,0,0,0-4.3,4.1v31.8l6.6,1.7v9.8Z"/><path d="M418.9,406.9a28.6,28.6,0,0,1-15.1-3.9,25.8,25.8,0,0,1-10.1-10.6,32.4,32.4,0,0,1-3.5-15.3v-2.2a36.7,36.7,0,0,1,3.3-16A27,27,0,0,1,403,348a26.3,26.3,0,0,1,14.4-4c5.6,0,10.1,1.1,13.9,3.3a20.5,20.5,0,0,1,8.5,9.4,32.2,32.2,0,0,1,2.9,14.7v8.9H407.2v.3a17.5,17.5,0,0,0,1.9,7.1,12.1,12.1,0,0,0,4.7,4.8,13.4,13.4,0,0,0,7.3,1.8,28.4,28.4,0,0,0,15.9-4.5l4.5,10a29.7,29.7,0,0,1-9.4,5.1A42.3,42.3,0,0,1,418.9,406.9Zm-11.6-37.4h20.1V368a15.2,15.2,0,0,0-1-6.3,7.8,7.8,0,0,0-3-4.1,10.3,10.3,0,0,0-5.7-1.4,8.3,8.3,0,0,0-5.4,1.7,10.5,10.5,0,0,0-3.5,4.6,22.8,22.8,0,0,0-1.7,6.7Z"/><path d="M451.6,405.7v-9.6l31.6-39.5H466.9L465,366.9H453V345.2h49.7v10.4L473,394h17.2l2.3-11.1H504v22.8Z"/><path d="M53.7,502.8V493l8.7-1.7V432.9l-8.7-1.6v-9.9H86.6l22.2,56.8h.4l21.4-56.8h32.9v9.9l-8.8,1.6v58.4l8.8,1.7v9.8H129.7V493l9.2-1.7V475.7l.3-36.7h-.4l-24.3,62.7H102.2L77.3,439.5H77l.9,34.6v17.2l9.6,1.7v9.8Z"/><path d="M190,504c-6,0-10.9-1.6-14.3-4.9s-5.4-7.6-5.4-13.1a16.8,16.8,0,0,1,3.1-10.1,21.1,21.1,0,0,1,9.2-6.7c4-1.7,9-2.5,14.9-2.5h8v-4.4a9.3,9.3,0,0,0-2.5-7.1c-1.7-1.8-4.2-2.7-7.7-2.7a18.2,18.2,0,0,0-4.6.6,14.1,14.1,0,0,0-3.9,1.9l-1.3,8H173.9l-.3-15.7a47.3,47.3,0,0,1,10.3-4.5,46.2,46.2,0,0,1,12.3-1.7c7.9,0,14.2,1.9,18.8,5.6s6.9,8.9,6.9,15.7v27.5a16.4,16.4,0,0,0,.2,2.2l6.3.9v9.8H208.2c-.4-1-.8-2.2-1.2-3.4a10.6,10.6,0,0,1-.9-3.5,23,23,0,0,1-6.9,5.9A18.4,18.4,0,0,1,190,504Zm4.3-12.1a13.2,13.2,0,0,0,6.5-1.5,11.6,11.6,0,0,0,4.7-4.1v-9.6h-8c-3.6,0-6.3.9-8.1,2.5a7.6,7.6,0,0,0-2.8,5.9,6.5,6.5,0,0,0,2,5.1,8.4,8.4,0,0,0,5.7,1.7Z"/><path d="M235.4,502.8V493l8-1.7V453.8l-8.7-1.7v-9.8h23.8l.7,7.5v1.3a19.2,19.2,0,0,1,5.5-7.4,13.1,13.1,0,0,1,7.9-2.6l3.2.3,3,.6-1.7,15.2-8.2-.5a9.6,9.6,0,0,0-5.5,1.1,10.9,10.9,0,0,0-3.8,3.9v29.6l7.8,1.7v9.8Z"/><path d="M311.2,504a27.8,27.8,0,0,1-15.1-4,26,26,0,0,1-9.8-10.7,36.2,36.2,0,0,1-3.3-15.8v-1.7a33.1,33.1,0,0,1,3.4-15.8,26.5,26.5,0,0,1,9.8-10.9,29,29,0,0,1,14.9-4,36,36,0,0,1,14.1,2.6,32.2,32.2,0,0,1,9.5,5.9v17.3H322.3l-2.2-10.7a10.7,10.7,0,0,0-7.6-3,12.4,12.4,0,0,0-7.4,2.2,12.8,12.8,0,0,0-4.3,6.4,28.2,28.2,0,0,0-1.5,10v1.7a26.7,26.7,0,0,0,1.6,10.1,12.9,12.9,0,0,0,4.3,6,10.2,10.2,0,0,0,6.1,1.8,9.6,9.6,0,0,0,6.9-2.2,12.1,12.1,0,0,0,3.6-6.5h13.9l.2.4a30.8,30.8,0,0,1-3.7,11.2,19.2,19.2,0,0,1-8,7.2C320.8,503.2,316.5,504,311.2,504Z"/><path d="M372.1,504a28.6,28.6,0,0,1-15.4-4,24.9,24.9,0,0,1-9.8-10.8,35.6,35.6,0,0,1-3.5-16V472a36.2,36.2,0,0,1,3.5-15.9,26,26,0,0,1,9.8-11,31.6,31.6,0,0,1,30.7,0,26.5,26.5,0,0,1,9.8,10.9,35.4,35.4,0,0,1,3.3,16v1.2a35.4,35.4,0,0,1-3.3,16,24.9,24.9,0,0,1-9.8,10.8C383.2,502.7,378,504,372.1,504Zm0-12.6a9.6,9.6,0,0,0,6.9-2.2,13.7,13.7,0,0,0,4-6.5,30.6,30.6,0,0,0,1.2-9.5V472a30.6,30.6,0,0,0-1.2-9.5,13.4,13.4,0,0,0-4-6.4,11.9,11.9,0,0,0-13.9,0,14.4,14.4,0,0,0-4.1,6.4,38.1,38.1,0,0,0-1.2,9.5v1.2a38.1,38.1,0,0,0,1.2,9.5,13.2,13.2,0,0,0,4.1,6.5A9.8,9.8,0,0,0,372.1,491.4Z"/><path d="M433.7,504a58.3,58.3,0,0,1-12.5-1.3,57.4,57.4,0,0,1-11.3-3.7V481.9h11.3l2.3,8.7a15.6,15.6,0,0,0,4.1,1.5,15.1,15.1,0,0,0,5.2.6c3.6,0,6.2-.6,7.7-1.8a5.5,5.5,0,0,0,2.2-4.5,5.4,5.4,0,0,0-2.3-4.4c-1.6-1.3-4.8-2.4-9.5-3.4-7.2-1.5-12.5-3.8-15.8-6.9a15.9,15.9,0,0,1-5.2-12.1,17,17,0,0,1,10.4-15.8,30.3,30.3,0,0,1,13.3-2.6,58.6,58.6,0,0,1,12.6,1.4,36.2,36.2,0,0,1,9.5,3.5l.2,16.5H444.4l-1.7-7.9a8.8,8.8,0,0,0-3.5-1.7,18.4,18.4,0,0,0-4.7-.6,10.3,10.3,0,0,0-6.5,1.8,5.2,5.2,0,0,0-2.4,4.4,6,6,0,0,0,.8,2.9,9.3,9.3,0,0,0,3.3,2.6,43.7,43.7,0,0,0,7,2.2c7.5,1.7,13,4,16.4,6.9s5.2,6.8,5.2,11.9a17.2,17.2,0,0,1-6.2,13.7C448,502.2,441.9,504,433.7,504Z"/></g><path d="M277,208.8H183.7a34.2,34.2,0,0,1-34.4-34V82.2a34.3,34.3,0,0,1,34.4-34.1H277a34.4,34.4,0,0,1,34.5,34.1v92.6a34.2,34.2,0,0,1-34.5,34Z" fill="#00a79d"/><path d="M183.7,58.4a23.9,23.9,0,0,0-24,23.7v92.7a23.9,23.9,0,0,0,24,23.7H277a23.8,23.8,0,0,0,24-23.6h0V82.2a23.9,23.9,0,0,0-24-23.8H183.7Z" fill="#fff"/><path d="M356.9,8,348,12.6C301.3,36,249.6,90.4,221.2,136.5c-2.7-5.2-3.6-6.9-6.2-12.5-11-19.6-25.9-37.1-33.2-43.8l-13.3,3.6.3.7c7.5,10.6,19.9,33.5,36.9,82.5a59.8,59.8,0,0,0,3.8,6.4c3.9,5.3,8.4,6.9,11.4,7.3,8.8,1.1,14.9-5.1,19.5-12.7C274.5,86.4,336.6,35.2,362.7,18.3Z" fill="#154854"/></svg>